
<svg width="115" height="86" viewBox="0 0 115 86" fill="none" xmlns="http://www.w3.org/2000/svg">
<g clip-path="url(#clip0_316_35)">
<path d="M41.5703 66.3378C41.6968 66.2226 54.3468 54.7112 54.5018 54.5843C56.7723 52.7293 58.0744 50.0737 58.0744 47.2984C58.0744 42.9763 54.9218 39.138 50.3887 37.9156C49.565 39.695 47.893 41.0016 45.8511 41.4707C46.741 42.2515 47.2451 43.3217 47.2451 44.4513V44.4556C48.0772 44.8077 48.8111 45.3491 49.3728 46.0265L49.379 46.0338C49.4167 46.0796 49.4511 46.1229 49.4848 46.1665C49.5234 46.2164 49.5579 46.2627 49.5915 46.3093L49.598 46.3187C49.6306 46.364 49.6626 46.4097 49.6935 46.4559L49.6999 46.4659C49.7318 46.5137 49.7612 46.5591 49.7897 46.6052L49.7964 46.6165C49.8271 46.6668 49.8546 46.7119 49.8805 46.7575L49.8898 46.7744C49.9178 46.8238 49.9422 46.8678 49.9656 46.9122L49.9802 46.9412C50.0023 46.9831 50.0242 47.026 50.0452 47.0695L50.06 47.1015C50.0804 47.1448 50.1002 47.1869 50.1189 47.2294L50.1368 47.2722C50.1537 47.3116 50.1708 47.3517 50.1865 47.3917L50.2149 47.466C50.2264 47.4962 50.2379 47.5264 50.2484 47.5565L50.2755 47.6364C50.2854 47.6654 50.2952 47.6943 50.3042 47.7235L50.332 47.8166C50.3396 47.8417 50.3469 47.8666 50.3537 47.8917L50.3787 47.9905C50.385 48.0142 50.3911 48.0381 50.3966 48.0619C50.4012 48.0819 50.4054 48.1018 50.4095 48.1219L50.4214 48.1777C50.4255 48.1967 50.4297 48.2153 50.4332 48.2342C50.4382 48.2597 50.4424 48.2854 50.4468 48.3111L50.4632 48.4074C50.4684 48.441 50.4726 48.4745 50.4767 48.5079L50.4864 48.583C50.4932 48.6415 50.4987 48.7003 50.503 48.7594C50.6215 50.3788 49.9202 51.9167 48.5794 52.9784C48.4266 53.0996 43.959 57.0919 41.6181 59.1862L37.6891 62.7651C37.5006 62.9377 37.4863 63.2134 37.6574 63.3792C37.7443 63.4636 37.8632 63.5114 37.9924 63.5135C38.0971 63.5189 38.1961 63.4853 38.2784 63.4282C38.2955 63.4166 38.3121 63.4035 38.3278 63.3893L39.6364 62.1972L40.0389 62.5637L38.6824 63.7994C38.5921 63.8817 38.5422 63.9913 38.5422 64.1079C38.5422 64.2246 38.5921 64.3339 38.6824 64.4163C38.869 64.5864 39.1731 64.5864 39.3596 64.4163L40.724 63.1735L41.1265 63.54L41.0062 63.6498C40.9541 63.6971 39.8589 64.6984 39.7653 64.7891C39.6334 64.9601 39.6557 65.1994 39.819 65.3482C39.9867 65.501 40.2522 65.5169 40.4392 65.3934L40.5399 65.3092L41.8039 64.157L42.2014 64.5192L42.0354 64.6788C41.9397 64.7662 41.7153 64.9704 41.491 65.1747C41.1325 65.5013 40.9736 65.646 40.8909 65.7102L40.8966 65.7156C40.7113 65.8853 40.7093 66.1594 40.8922 66.3267L40.9044 66.3378C41.0879 66.5051 41.3868 66.5051 41.5703 66.3378Z" fill="#EDA177"/>
<path d="M49.7774 35.5475C49.7774 32.7502 47.2792 30.4744 44.2082 30.4744C42.5754 30.4744 41.0453 31.1172 39.9839 32.243C41.2984 33.2885 42.0488 34.7857 42.0488 36.3757C42.0488 37.5524 41.6461 38.6692 40.8824 39.6153C41.8495 40.2734 42.9955 40.6206 44.2082 40.6206C47.2792 40.6206 49.7774 38.3449 49.7774 35.5475Z" fill="#EDA177"/>
<path d="M39.6485 40.8843L39.5973 40.9187C39.5312 40.961 39.4681 41.0013 39.405 41.0388C39.2126 41.1558 39.0042 41.2671 38.7876 41.3686C37.9292 41.7654 37.0001 41.9665 36.0251 41.9665C33.708 41.9665 31.5678 40.7534 30.5326 38.8649C26.4652 39.8956 23.6367 43.2812 23.6367 47.143C23.6367 49.6171 24.8112 51.9734 26.8587 53.6079C26.9774 53.7025 35.3625 61.2918 36.3181 62.1569C36.4288 62.2581 36.5758 62.3136 36.7333 62.3136C36.8911 62.3136 37.0379 62.2581 37.1477 62.1577L37.1749 62.1339C37.384 61.9434 37.3978 61.6291 37.2034 61.4203C37.1784 61.3967 36.6248 60.8914 36.3884 60.6756C36.31 60.6041 36.2581 60.5567 36.255 60.5537L36.137 60.4447L36.4641 60.1424H36.5355C36.6074 60.1424 36.6074 60.1424 37.6199 61.0661C37.8012 61.231 38.1491 61.203 38.3072 61.064C38.5182 60.8774 38.5327 60.7063 38.3541 60.4936L37.2769 59.5091L37.6632 59.1415L38.7679 60.1384C38.9691 60.2667 39.2472 60.2459 39.4199 60.0878L39.4421 60.0686C39.6105 59.9152 39.6352 59.6619 39.4971 59.48C39.4167 59.4005 38.5945 58.6474 38.5209 58.5803L38.4004 58.4705L38.8014 58.1053L38.9569 58.2462C39.7589 58.9745 39.877 59.0798 39.8906 59.0915C40.0856 59.2319 40.3762 59.2169 40.559 59.0511L40.5763 59.0355C40.5882 59.0243 40.5996 59.0124 40.6109 59.0008C40.7532 58.8408 40.7294 58.5919 40.5568 58.4343L35.7547 54.0613L35.7615 54.0551L33.3616 51.8678L33.3739 51.8572L32.7916 51.3255C32.5681 51.1233 32.445 50.8524 32.445 50.5629C32.445 50.2731 32.5681 50.002 32.7919 49.7993C32.9221 49.6807 33.0793 49.5926 33.2508 49.5403C33.1056 49.3583 33.0268 49.1383 33.0268 48.9064C33.0268 48.6158 33.1497 48.3446 33.3728 48.1428C33.6209 47.9166 33.9648 47.8051 34.3095 47.8313C34.3242 47.5639 34.4455 47.3147 34.6545 47.1244C34.8781 46.9209 35.1755 46.8087 35.4923 46.8087C35.7645 46.8087 36.0225 46.8915 36.2316 47.0441C36.2874 46.8773 36.3877 46.725 36.5268 46.5991C36.7499 46.3959 37.0474 46.2837 37.3641 46.2837C37.6809 46.2837 37.9783 46.3959 38.2018 46.5994L39.4653 47.7495C39.4957 47.6494 39.5297 47.5487 39.5676 47.4483C38.667 46.6671 38.153 45.5807 38.153 44.4512C38.153 43.1032 38.8769 41.8361 40.0895 41.0619C40.2779 40.9411 40.4767 40.8335 40.6832 40.7405C40.5235 40.6503 40.3679 40.5541 40.2185 40.4529C40.0385 40.6065 39.8472 40.7512 39.6485 40.8843Z" fill="#96C2DC"/>
<path d="M36.0252 31.8202C33.2679 31.8202 31.0244 33.8637 31.0244 36.3758C31.0244 38.8876 33.2679 40.9312 36.0252 40.9312C38.7826 40.9312 41.0261 38.8876 41.0261 36.3758C41.0261 33.8637 38.7826 31.8202 36.0252 31.8202Z" fill="#96C2DC"/>
<path d="M34.3934 51.5206C34.4243 51.5488 34.451 51.5804 34.4733 51.615L36.767 53.7056C36.7902 53.7269 36.8115 53.7504 36.83 53.7754L41.5423 58.0685C43.138 56.6221 47.7154 52.476 47.9455 52.2934C49.0565 51.4137 49.6374 50.1392 49.5391 48.7968C49.4447 47.5107 48.4094 46.0775 47.1435 45.4432C46.6288 47.2841 44.8247 48.5926 42.7659 48.5927C42.7537 48.5927 42.7415 48.5926 42.7294 48.5926C41.8965 48.5863 41.1215 48.3862 40.3664 47.9815C40.3339 48.1099 40.309 48.2777 40.2971 48.3578C40.2921 48.391 40.2879 48.419 40.2845 48.4395L40.25 48.641C40.2201 48.8152 40.0876 48.9576 39.9036 49.0122C39.723 49.0659 39.5161 49.0203 39.3828 48.8987L37.5191 47.2008C37.4364 47.1255 37.2914 47.1256 37.2095 47.2005C37.1679 47.2382 37.1462 47.2866 37.1462 47.3408C37.146 47.3951 37.1687 47.4451 37.2095 47.4824L37.2242 47.4964L37.9211 48.1871C38.1079 48.3726 38.0976 48.6648 37.8983 48.8389L37.7341 48.9821C37.6383 49.0656 37.5126 49.1117 37.3805 49.1117C37.2436 49.1117 37.1151 49.0632 37.0186 48.975L35.6471 47.7254C35.5651 47.6513 35.419 47.6513 35.3374 47.7254C35.2966 47.7628 35.2742 47.8128 35.2742 47.8664C35.2742 47.9199 35.2966 47.9701 35.3377 48.0074L36.7897 49.3303C36.8863 49.4181 36.9395 49.535 36.9395 49.6596C36.9395 49.7841 36.8863 49.9012 36.7897 49.989L36.622 50.1416C36.5255 50.2296 36.3971 50.2782 36.2605 50.2782C36.1237 50.2782 35.9955 50.2296 35.8988 50.1416L34.3649 48.7441C34.2839 48.6709 34.1363 48.6712 34.0548 48.7449C34.0148 48.7812 33.9929 48.8309 33.9929 48.8851C33.9929 48.9393 34.0152 48.9894 34.0555 49.0262L35.5894 50.4234C35.7888 50.605 35.7888 50.9006 35.5896 51.0824L35.4218 51.2351C35.3252 51.323 35.1968 51.3714 35.0601 51.3714C34.9235 51.3714 34.7951 51.323 34.6982 51.2348L33.7837 50.4005C33.7038 50.328 33.555 50.3273 33.4748 50.4006C33.4328 50.4386 33.4111 50.4871 33.4111 50.5416C33.4111 50.5955 33.4332 50.645 33.4732 50.6811L34.3934 51.5206Z" fill="#DFE9EF"/>
<path d="M42.7048 41.2418C40.7619 41.2418 39.1814 42.6814 39.1814 44.4513C39.1814 46.2208 40.7619 47.6607 42.7048 47.6607C44.6477 47.6607 46.2282 46.2208 46.2282 44.4513C46.2282 42.6814 44.6477 41.2418 42.7048 41.2418Z" fill="#DFE9EF"/>
<path d="M75.4532 65.2613C75.4486 65.2613 75.4463 65.2583 75.4463 65.255C75.4463 65.2513 75.4486 65.2486 75.4532 65.2486C75.4571 65.2486 75.4601 65.2513 75.4601 65.255C75.4601 65.2583 75.4571 65.2613 75.4532 65.2613Z" fill="#96C2DC"/>
<path d="M75.3988 65.358C75.3914 65.358 75.3862 65.3528 75.3862 65.346C75.3862 65.3394 75.3914 65.3338 75.3988 65.3338C75.4063 65.3338 75.4122 65.3394 75.4122 65.346C75.4122 65.3528 75.4063 65.358 75.3988 65.358Z" fill="#96C2DC"/>
<path d="M71.6646 70.8378C71.4815 70.8378 71.3328 70.7024 71.3328 70.5355C71.3328 70.3686 71.4815 70.2333 71.6646 70.2333C71.848 70.2333 71.9967 70.3686 71.9967 70.5355C71.9967 70.7024 71.848 70.8378 71.6646 70.8378Z" fill="#96C2DC"/>
<path d="M71.5942 70.9233C71.4083 70.9233 71.2576 70.7862 71.2576 70.6168C71.2576 70.4475 71.4083 70.3102 71.5942 70.3102C71.7801 70.3102 71.9307 70.4475 71.9307 70.6168C71.9307 70.7862 71.7801 70.9233 71.5942 70.9233Z" fill="#96C2DC"/>
<path d="M71.5233 71.0087C71.3351 71.0087 71.1821 70.8695 71.1821 70.6978C71.1821 70.5261 71.3351 70.387 71.5233 70.387C71.7118 70.387 71.8646 70.5261 71.8646 70.6978C71.8646 70.8695 71.7118 71.0087 71.5233 71.0087Z" fill="#96C2DC"/>
<path d="M66.8346 75.7425C66.5048 75.7425 66.2373 75.4984 66.2373 75.1985C66.2373 74.8979 66.5048 74.6539 66.8346 74.6539C67.1644 74.6539 67.4319 74.8979 67.4319 75.1985C67.4319 75.4984 67.1644 75.7425 66.8346 75.7425Z" fill="#96C2DC"/>
<path d="M66.7495 75.8145C66.4175 75.8145 66.1482 75.569 66.1482 75.2669C66.1482 74.9641 66.4175 74.7193 66.7495 74.7193C67.0818 74.7193 67.3508 74.9641 67.3508 75.2669C67.3508 75.569 67.0818 75.8145 66.7495 75.8145Z" fill="#96C2DC"/>
<path d="M66.6643 75.8865C66.33 75.8865 66.0591 75.6396 66.0591 75.3353C66.0591 75.0302 66.33 74.784 66.6643 74.784C66.9983 74.784 67.2693 75.0302 67.2693 75.3353C67.2693 75.6396 66.9983 75.8865 66.6643 75.8865Z" fill="#96C2DC"/>
<path d="M61.1711 79.7492C60.719 79.7492 60.3528 79.4155 60.3528 79.0039C60.3528 78.5915 60.719 78.2578 61.1711 78.2578C61.6229 78.2578 61.9894 78.5915 61.9894 79.0039C61.9894 79.4155 61.6229 79.7492 61.1711 79.7492Z" fill="#96C2DC"/>
<path d="M61.0737 79.8051C60.62 79.8051 60.2522 79.4706 60.2522 79.0568C60.2522 78.6437 60.62 78.3085 61.0737 78.3085C61.5274 78.3085 61.8951 78.6437 61.8951 79.0568C61.8951 79.4706 61.5274 79.8051 61.0737 79.8051Z" fill="#96C2DC"/>
<path d="M60.9766 79.8617C60.521 79.8617 60.1521 79.525 60.1521 79.1104C60.1521 78.6959 60.521 78.3592 60.9766 78.3592C61.4319 78.3592 61.8009 78.6959 61.8009 79.1104C61.8009 79.525 61.4319 79.8617 60.9766 79.8617Z" fill="#96C2DC"/>
<path d="M54.8517 82.7423C54.2951 82.7423 53.8438 82.3314 53.8438 81.8242C53.8438 81.3178 54.2951 80.9062 54.8517 80.9062C55.4083 80.9062 55.8596 81.3178 55.8596 81.8242C55.8596 82.3314 55.4083 82.7423 54.8517 82.7423Z" fill="#96C2DC"/>
<path d="M54.7454 82.782C54.1872 82.782 53.7346 82.3696 53.7346 81.8617C53.7346 81.3531 54.1872 80.9407 54.7454 80.9407C55.3037 80.9407 55.7563 81.3531 55.7563 81.8617C55.7563 82.3696 55.3037 82.782 54.7454 82.782Z" fill="#96C2DC"/>
<path d="M54.6393 82.8217C54.0793 82.8217 53.6252 82.4078 53.6252 81.8977C53.6252 81.3876 54.0793 80.9745 54.6393 80.9745C55.1993 80.9745 55.6532 81.3876 55.6532 81.8977C55.6532 82.4078 55.1993 82.8217 54.6393 82.8217Z" fill="#96C2DC"/>
<path d="M48.0781 84.6174C47.4389 84.6174 46.9209 84.1455 46.9209 83.5633C46.9209 82.9812 47.4389 82.5093 48.0781 82.5093C48.7173 82.5093 49.2355 82.9812 49.2355 83.5633C49.2355 84.1455 48.7173 84.6174 48.0781 84.6174Z" fill="#96C2DC"/>
<path d="M47.9663 84.638C47.326 84.638 46.8069 84.1653 46.8069 83.5824C46.8069 82.9996 47.326 82.5262 47.9663 82.5262C48.6066 82.5262 49.1257 82.9996 49.1257 83.5824C49.1257 84.1653 48.6066 84.638 47.9663 84.638Z" fill="#96C2DC"/>
<path d="M47.8545 84.6585C47.2133 84.6585 46.6931 84.1852 46.6931 83.6008C46.6931 83.0165 47.2133 82.5431 47.8545 82.5431C48.4958 82.5431 49.0159 83.0165 49.0159 83.6008C49.0159 84.1852 48.4958 84.6585 47.8545 84.6585Z" fill="#96C2DC"/>
<path d="M41.0717 85.3296C40.3673 85.3296 39.7961 84.81 39.7961 84.1683C39.7961 83.5258 40.3673 83.0062 41.0717 83.0062C41.7761 83.0062 42.3474 83.5258 42.3474 84.1683C42.3474 84.81 41.7761 85.3296 41.0717 85.3296Z" fill="#96C2DC"/>
<path d="M40.9581 85.3318C40.2528 85.3318 39.6812 84.8107 39.6812 84.1683C39.6812 83.5258 40.2528 83.0047 40.9581 83.0047C41.6634 83.0047 42.2351 83.5258 42.2351 84.1683C42.2351 84.8107 41.6634 85.3318 40.9581 85.3318Z" fill="#96C2DC"/>
<path d="M40.8436 85.3333C40.1374 85.3333 39.5652 84.8122 39.5652 84.1683C39.5652 83.5251 40.1374 83.004 40.8436 83.004C41.5499 83.004 42.1223 83.5251 42.1223 84.1683C42.1223 84.8122 41.5499 85.3333 40.8436 85.3333Z" fill="#96C2DC"/>
<path d="M34.0577 84.8783C33.303 84.8783 32.6914 84.3212 32.6914 83.6332C32.6914 82.9459 33.303 82.3887 34.0577 82.3887C34.8123 82.3887 35.4239 82.9459 35.4239 83.6332C35.4239 84.3212 34.8123 84.8783 34.0577 84.8783Z" fill="#96C2DC"/>
<path d="M33.9457 84.8607C33.1905 84.8607 32.5784 84.3035 32.5784 83.6155C32.5784 82.9275 33.1905 82.3696 33.9457 82.3696C34.7011 82.3696 35.3133 82.9275 35.3133 83.6155C35.3133 84.3035 34.7011 84.8607 33.9457 84.8607Z" fill="#96C2DC"/>
<path d="M33.834 84.8438C33.0782 84.8438 32.4653 84.2859 32.4653 83.5971C32.4653 82.9084 33.0782 82.3505 33.834 82.3505C34.5897 82.3505 35.2026 82.9084 35.2026 83.5971C35.2026 84.2859 34.5897 84.8438 33.834 84.8438Z" fill="#96C2DC"/>
<path d="M27.2625 83.2664C26.472 83.2664 25.8313 82.6828 25.8313 81.9624C25.8313 81.2428 26.472 80.6592 27.2625 80.6592C28.0531 80.6592 28.6937 81.2428 28.6937 81.9624C28.6937 82.6828 28.0531 83.2664 27.2625 83.2664Z" fill="#96C2DC"/>
<path d="M27.1556 83.2311C26.3647 83.2311 25.7236 82.6467 25.7236 81.9264C25.7236 81.206 26.3647 80.6217 27.1556 80.6217C27.9465 80.6217 28.5876 81.206 28.5876 81.9264C28.5876 82.6467 27.9465 83.2311 27.1556 83.2311Z" fill="#96C2DC"/>
<path d="M27.0491 83.1951C26.2579 83.1951 25.6165 82.6107 25.6165 81.8904C25.6165 81.1693 26.2579 80.5849 27.0491 80.5849C27.8404 80.5849 28.4817 81.1693 28.4817 81.8904C28.4817 82.6107 27.8404 83.1951 27.0491 83.1951Z" fill="#96C2DC"/>
<path d="M20.909 80.5467C20.0958 80.5467 19.4368 79.9462 19.4368 79.2053C19.4368 78.4643 20.0958 77.8638 20.909 77.8638C21.7222 77.8638 22.3813 78.4643 22.3813 79.2053C22.3813 79.9462 21.7222 80.5467 20.909 80.5467Z" fill="#96C2DC"/>
<path d="M20.8115 80.4938C19.9982 80.4938 19.3389 79.8933 19.3389 79.1523C19.3389 78.4114 19.9982 77.8109 20.8115 77.8109C21.6247 77.8109 22.284 78.4114 22.284 79.1523C22.284 79.8933 21.6247 80.4938 20.8115 80.4938Z" fill="#96C2DC"/>
<path d="M20.7138 80.4409C19.9005 80.4409 19.241 79.8403 19.241 79.0994C19.241 78.3585 19.9005 77.7572 20.7138 77.7572C21.5272 77.7572 22.1866 78.3585 22.1866 79.0994C22.1866 79.8403 21.5272 80.4409 20.7138 80.4409Z" fill="#96C2DC"/>
<path d="M15.2001 76.8105C14.3792 76.8105 13.7139 76.2041 13.7139 75.4565C13.7139 74.709 14.3792 74.1026 15.2001 74.1026C16.0208 74.1026 16.6862 74.709 16.6862 75.4565C16.6862 76.2041 16.0208 76.8105 15.2001 76.8105Z" fill="#96C2DC"/>
<path d="M15.1144 76.7429C14.2933 76.7429 13.6279 76.1365 13.6279 75.3889C13.6279 74.6407 14.2933 74.035 15.1144 74.035C15.9353 74.035 16.6006 74.6407 16.6006 75.3889C16.6006 76.1365 15.9353 76.7429 15.1144 76.7429Z" fill="#96C2DC"/>
<path d="M15.0286 76.6745C14.2075 76.6745 13.542 76.0688 13.542 75.3206C13.542 74.5723 14.2075 73.9659 15.0286 73.9659C15.8497 73.9659 16.5153 74.5723 16.5153 75.3206C16.5153 76.0688 15.8497 76.6745 15.0286 76.6745Z" fill="#96C2DC"/>
<path d="M10.3144 72.1879C9.4985 72.1879 8.83716 71.5853 8.83716 70.8422C8.83716 70.099 9.4985 69.4964 10.3144 69.4964C11.1303 69.4964 11.7917 70.099 11.7917 70.8422C11.7917 71.5853 11.1303 72.1879 10.3144 72.1879Z" fill="#96C2DC"/>
<path d="M10.2432 72.1069C9.42748 72.1069 8.76636 71.5045 8.76636 70.7615C8.76636 70.0184 9.42748 69.4158 10.2432 69.4158C11.0591 69.4158 11.7203 70.0184 11.7203 70.7615C11.7203 71.5045 11.0591 72.1069 10.2432 72.1069Z" fill="#96C2DC"/>
<path d="M10.1725 72.0259C9.35678 72.0259 8.6958 71.4234 8.6958 70.6805C8.6958 69.9375 9.35678 69.3353 10.1725 69.3353C10.9882 69.3353 11.6494 69.9375 11.6494 70.6805C11.6494 71.4234 10.9882 72.0259 10.1725 72.0259Z" fill="#96C2DC"/>
<path d="M6.40933 66.8263C5.61071 66.8263 4.96338 66.2364 4.96338 65.5091C4.96338 64.7816 5.61071 64.1917 6.40933 64.1917C7.20796 64.1917 7.85511 64.7816 7.85511 65.5091C7.85511 66.2364 7.20796 66.8263 6.40933 66.8263Z" fill="#96C2DC"/>
<path d="M6.35507 66.7347C5.55682 66.7347 4.90967 66.1452 4.90967 65.4181C4.90967 64.691 5.55682 64.1015 6.35507 64.1015C7.15333 64.1015 7.80047 64.691 7.80047 65.4181C7.80047 66.1452 7.15333 66.7347 6.35507 66.7347Z" fill="#96C2DC"/>
<path d="M6.30129 66.643C5.5034 66.643 4.85645 66.0537 4.85645 65.3268C4.85645 64.6002 5.5034 64.011 6.30129 64.011C7.09918 64.011 7.74596 64.6002 7.74596 65.3268C7.74596 66.0537 7.09918 66.643 6.30129 66.643Z" fill="#96C2DC"/>
<path d="M3.61669 60.8914C2.8488 60.8914 2.22632 60.3242 2.22632 59.6248C2.22632 58.9254 2.8488 58.3585 3.61669 58.3585C4.38458 58.3585 5.00706 58.9254 5.00706 59.6248C5.00706 60.3242 4.38458 60.8914 3.61669 60.8914Z" fill="#96C2DC"/>
<path d="M3.58122 60.792C2.81407 60.792 2.19214 60.2253 2.19214 59.5265C2.19214 58.8275 2.81407 58.261 3.58122 58.261C4.34856 58.261 4.97049 58.8275 4.97049 59.5265C4.97049 60.2253 4.34856 60.792 3.58122 60.792Z" fill="#96C2DC"/>
<path d="M3.54636 60.6925C2.77976 60.6925 2.1582 60.1264 2.1582 59.4281C2.1582 58.7298 2.77976 58.1636 3.54636 58.1636C4.31296 58.1636 4.93434 58.7298 4.93434 59.4281C4.93434 60.1264 4.31296 60.6925 3.54636 60.6925Z" fill="#96C2DC"/>
<path d="M2.03283 54.5706C1.31004 54.5706 0.724365 54.037 0.724365 53.3787C0.724365 52.7205 1.31004 52.1868 2.03283 52.1868C2.75544 52.1868 3.34111 52.7205 3.34111 53.3787C3.34111 54.037 2.75544 54.5706 2.03283 54.5706Z" fill="#96C2DC"/>
<path d="M2.01726 54.4667C1.29557 54.4667 0.710449 53.9337 0.710449 53.2761C0.710449 52.6187 1.29557 52.0856 2.01726 52.0856C2.73913 52.0856 3.32425 52.6187 3.32425 53.2761C3.32425 53.9337 2.73913 54.4667 2.01726 54.4667Z" fill="#96C2DC"/>
<path d="M2.00236 54.3625C1.2814 54.3625 0.697021 53.8302 0.697021 53.1734C0.697021 52.5169 1.2814 51.9844 2.00236 51.9844C2.72331 51.9844 3.30769 52.5169 3.30769 53.1734C3.30769 53.8302 2.72331 54.3625 2.00236 54.3625Z" fill="#96C2DC"/>
<path d="M1.69877 48.0664C1.03671 48.0664 0.5 47.5774 0.5 46.9743C0.5 46.3714 1.03671 45.8825 1.69877 45.8825C2.36082 45.8825 2.89753 46.3714 2.89753 46.9743C2.89753 47.5774 2.36082 48.0664 1.69877 48.0664Z" fill="#96C2DC"/>
<path d="M1.70364 47.961C1.04269 47.961 0.50708 47.473 0.50708 46.8709C0.50708 46.269 1.04269 45.781 1.70364 45.781C2.36459 45.781 2.90038 46.269 2.90038 46.8709C2.90038 47.473 2.36459 47.961 1.70364 47.961Z" fill="#96C2DC"/>
<path d="M1.70887 47.8558C1.04903 47.8558 0.51416 47.3686 0.51416 46.7677C0.51416 46.1666 1.04903 45.6794 1.70887 45.6794C2.36854 45.6794 2.90341 46.1666 2.90341 46.7677C2.90341 47.3686 2.36854 47.8558 1.70887 47.8558Z" fill="#96C2DC"/>
<path d="M2.61589 41.583C2.03077 41.583 1.55664 41.1511 1.55664 40.6181C1.55664 40.0853 2.03077 39.6532 2.61589 39.6532C3.20083 39.6532 3.67496 40.0853 3.67496 40.6181C3.67496 41.1511 3.20083 41.583 2.61589 41.583Z" fill="#96C2DC"/>
<path d="M2.6409 41.4799C2.05726 41.4799 1.58423 41.0488 1.58423 40.5171C1.58423 39.9854 2.05726 39.5546 2.6409 39.5546C3.22455 39.5546 3.69758 39.9854 3.69758 40.5171C3.69758 41.0488 3.22455 41.4799 2.6409 41.4799Z" fill="#96C2DC"/>
<path d="M2.6661 41.3767C2.08392 41.3767 1.61182 40.9468 1.61182 40.4162C1.61182 39.8858 2.08392 39.4559 2.6661 39.4559C3.24845 39.4559 3.72056 39.8858 3.72056 40.4162C3.72056 40.9468 3.24845 41.3767 2.6661 41.3767Z" fill="#96C2DC"/>
<path d="M4.77156 35.3248C4.28105 35.3248 3.8833 34.9626 3.8833 34.5156C3.8833 34.0686 4.28105 33.7063 4.77156 33.7063C5.26225 33.7063 5.66001 34.0686 5.66001 34.5156C5.66001 34.9626 5.26225 35.3248 4.77156 35.3248Z" fill="#96C2DC"/>
<path d="M4.81635 35.2271C4.3273 35.2271 3.93066 34.8659 3.93066 34.4202C3.93066 33.9749 4.3273 33.6138 4.81635 33.6138C5.3052 33.6138 5.70184 33.9749 5.70184 34.4202C5.70184 34.8659 5.3052 35.2271 4.81635 35.2271Z" fill="#96C2DC"/>
<path d="M4.86107 35.1293C4.37387 35.1293 3.97852 34.7693 3.97852 34.3253C3.97852 33.8814 4.37387 33.5214 4.86107 33.5214C5.34845 33.5214 5.74362 33.8814 5.74362 34.3253C5.74362 34.7693 5.34845 35.1293 4.86107 35.1293Z" fill="#96C2DC"/>
<path d="M8.09713 29.4789C7.72513 29.4789 7.42383 29.2042 7.42383 28.8656C7.42383 28.5267 7.72513 28.2523 8.09713 28.2523C8.46909 28.2523 8.77039 28.5267 8.77039 28.8656C8.77039 29.2042 8.46909 29.4789 8.09713 29.4789Z" fill="#96C2DC"/>
<path d="M8.15988 29.3886C7.79012 29.3886 7.49048 29.1157 7.49048 28.7788C7.49048 28.442 7.79012 28.1692 8.15988 28.1692C8.52965 28.1692 8.82949 28.442 8.82949 28.7788C8.82949 29.1157 8.52965 29.3886 8.15988 29.3886Z" fill="#96C2DC"/>
<path d="M8.22293 29.2987C7.85535 29.2987 7.55737 29.0273 7.55737 28.6925C7.55737 28.3577 7.85535 28.0862 8.22293 28.0862C8.59051 28.0862 8.88844 28.3577 8.88844 28.6925C8.88844 29.0273 8.59051 29.2987 8.22293 29.2987Z" fill="#96C2DC"/>
<path d="M12.4782 24.2308C12.245 24.2308 12.0562 24.0588 12.0562 23.8466C12.0562 23.6341 12.245 23.4621 12.4782 23.4621C12.7112 23.4621 12.9 23.6341 12.9 23.8466C12.9 24.0588 12.7112 24.2308 12.4782 24.2308Z" fill="#96C2DC"/>
<path d="M12.5567 24.1518C12.3262 24.1518 12.1394 23.9816 12.1394 23.7717C12.1394 23.5618 12.3262 23.3918 12.5567 23.3918C12.7871 23.3918 12.9739 23.5618 12.9739 23.7717C12.9739 23.9816 12.7871 24.1518 12.5567 24.1518Z" fill="#96C2DC"/>
<path d="M12.6354 24.0729C12.4076 24.0729 12.2229 23.9047 12.2229 23.6973C12.2229 23.4895 12.4076 23.3216 12.6354 23.3216C12.8631 23.3216 13.0479 23.4895 13.0479 23.6973C13.0479 23.9047 12.8631 24.0729 12.6354 24.0729Z" fill="#96C2DC"/>
<path d="M17.7686 19.7189C17.7074 19.7189 17.658 19.6739 17.658 19.6186C17.658 19.5632 17.7074 19.5185 17.7686 19.5185C17.8295 19.5185 17.879 19.5632 17.879 19.6186C17.879 19.6739 17.8295 19.7189 17.7686 19.7189Z" fill="#96C2DC"/>
<path d="M17.8603 19.6529C17.8025 19.6529 17.7556 19.6103 17.7556 19.5578C17.7556 19.5052 17.8025 19.4623 17.8603 19.4623C17.9183 19.4623 17.9653 19.5052 17.9653 19.5578C17.9653 19.6103 17.9183 19.6529 17.8603 19.6529Z" fill="#96C2DC"/>
<path d="M17.9523 19.5872C17.8974 19.5872 17.853 19.5469 17.853 19.4972C17.853 19.4472 17.8974 19.4069 17.9523 19.4069C18.0073 19.4069 18.0516 19.4472 18.0516 19.4972C18.0516 19.5469 18.0073 19.5872 17.9523 19.5872Z" fill="#96C2DC"/>
<path d="M68.8038 63.4355C68.8002 63.4355 68.7976 63.4327 68.7976 63.4295C68.7976 63.4262 68.8002 63.4235 68.8038 63.4235C68.8074 63.4235 68.8101 63.4262 68.8101 63.4295C68.8101 63.4327 68.8074 63.4355 68.8038 63.4355Z" fill="#96C2DC"/>
<path d="M68.7554 63.5132C68.7495 63.5132 68.7444 63.5087 68.7444 63.5028C68.7444 63.4973 68.7495 63.4929 68.7554 63.4929C68.7614 63.4929 68.7665 63.4973 68.7665 63.5028C68.7665 63.5087 68.7614 63.5132 68.7554 63.5132Z" fill="#96C2DC"/>
<path d="M65.4729 67.929C65.3179 67.929 65.1924 67.8145 65.1924 67.6736C65.1924 67.5325 65.3179 67.418 65.4729 67.418C65.6279 67.418 65.7534 67.5325 65.7534 67.6736C65.7534 67.8145 65.6279 67.929 65.4729 67.929Z" fill="#96C2DC"/>
<path d="M65.4117 67.9976C65.2545 67.9976 65.127 67.8816 65.127 67.7384C65.127 67.5954 65.2545 67.4793 65.4117 67.4793C65.5689 67.4793 65.6962 67.5954 65.6962 67.7384C65.6962 67.8816 65.5689 67.9976 65.4117 67.9976Z" fill="#96C2DC"/>
<path d="M65.3502 68.0658C65.1907 68.0658 65.0615 67.9482 65.0615 67.8033C65.0615 67.658 65.1907 67.5404 65.3502 67.5404C65.5093 67.5404 65.6385 67.658 65.6385 67.8033C65.6385 67.9482 65.5093 68.0658 65.3502 68.0658Z" fill="#96C2DC"/>
<path d="M61.3059 71.8338C61.0273 71.8338 60.8018 71.6281 60.8018 71.3746C60.8018 71.121 61.0273 70.9152 61.3059 70.9152C61.5844 70.9152 61.8101 71.121 61.8101 71.3746C61.8101 71.6281 61.5844 71.8338 61.3059 71.8338Z" fill="#96C2DC"/>
<path d="M61.2328 71.8909C60.9527 71.8909 60.7253 71.6839 60.7253 71.4286C60.7253 71.1732 60.9527 70.9662 61.2328 70.9662C61.513 70.9662 61.7402 71.1732 61.7402 71.4286C61.7402 71.6839 61.513 71.8909 61.2328 71.8909Z" fill="#96C2DC"/>
<path d="M61.1597 71.9475C60.8778 71.9475 60.6492 71.7393 60.6492 71.4824C60.6492 71.2252 60.8778 71.017 61.1597 71.017C61.4419 71.017 61.6705 71.2252 61.6705 71.4824C61.6705 71.7393 61.4419 71.9475 61.1597 71.9475Z" fill="#96C2DC"/>
<path d="M56.482 74.9677C56.1015 74.9677 55.7932 74.687 55.7932 74.3407C55.7932 73.9938 56.1015 73.713 56.482 73.713C56.8622 73.713 57.1706 73.9938 57.1706 74.3407C57.1706 74.687 56.8622 74.9677 56.482 74.9677Z" fill="#96C2DC"/>
<path d="M56.3995 75.0118C56.0176 75.0118 55.708 74.7296 55.708 74.3819C55.708 74.0342 56.0176 73.752 56.3995 73.752C56.7812 73.752 57.0908 74.0342 57.0908 74.3819C57.0908 74.7296 56.7812 75.0118 56.3995 75.0118Z" fill="#96C2DC"/>
<path d="M56.3171 75.0552C55.9339 75.0552 55.623 74.7722 55.623 74.4223C55.623 74.0739 55.9339 73.7909 56.3171 73.7909C56.7003 73.7909 57.0112 74.0739 57.0112 74.4223C57.0112 74.7722 56.7003 75.0552 56.3171 75.0552Z" fill="#96C2DC"/>
<path d="M51.1526 77.2434C50.6843 77.2434 50.3049 76.898 50.3049 76.4716C50.3049 76.0446 50.6843 75.6991 51.1526 75.6991C51.621 75.6991 52.0003 76.0446 52.0003 76.4716C52.0003 76.898 51.621 77.2434 51.1526 77.2434Z" fill="#96C2DC"/>
<path d="M51.0636 77.2728C50.5941 77.2728 50.2136 76.9259 50.2136 76.4981C50.2136 76.071 50.5941 75.7241 51.0636 75.7241C51.533 75.7241 51.9134 76.071 51.9134 76.4981C51.9134 76.9259 51.533 77.2728 51.0636 77.2728Z" fill="#96C2DC"/>
<path d="M50.9742 77.3015C50.5039 77.3015 50.1223 76.9538 50.1223 76.5253C50.1223 76.0968 50.5039 75.7491 50.9742 75.7491C51.4449 75.7491 51.8263 76.0968 51.8263 76.5253C51.8263 76.9538 51.4449 77.3015 50.9742 77.3015Z" fill="#96C2DC"/>
<path d="M45.4895 78.5768C44.9537 78.5768 44.5193 78.1813 44.5193 77.6933C44.5193 77.2052 44.9537 76.809 45.4895 76.809C46.025 76.809 46.4596 77.2052 46.4596 77.6933C46.4596 78.1813 46.025 78.5768 45.4895 78.5768Z" fill="#96C2DC"/>
<path d="M45.3961 78.59C44.8594 78.59 44.4243 78.1938 44.4243 77.705C44.4243 77.2162 44.8594 76.8201 45.3961 76.8201C45.9328 76.8201 46.3679 77.2162 46.3679 77.705C46.3679 78.1938 45.9328 78.59 45.3961 78.59Z" fill="#96C2DC"/>
<path d="M45.3031 78.6033C44.7655 78.6033 44.3296 78.2063 44.3296 77.7168C44.3296 77.2273 44.7655 76.8303 45.3031 76.8303C45.8407 76.8303 46.2766 77.2273 46.2766 77.7168C46.2766 78.2063 45.8407 78.6033 45.3031 78.6033Z" fill="#96C2DC"/>
<path d="M39.6763 78.9451C39.0872 78.9451 38.6094 78.5099 38.6094 77.9733C38.6094 77.4368 39.0872 77.0009 39.6763 77.0009C40.2657 77.0009 40.7435 77.4368 40.7435 77.9733C40.7435 78.5099 40.2657 78.9451 39.6763 78.9451Z" fill="#96C2DC"/>
<path d="M39.5824 78.9436C38.9923 78.9436 38.5139 78.5077 38.5139 77.9704C38.5139 77.4323 38.9923 76.9972 39.5824 76.9972C40.1725 76.9972 40.6508 77.4323 40.6508 77.9704C40.6508 78.5077 40.1725 78.9436 39.5824 78.9436Z" fill="#96C2DC"/>
<path d="M39.4885 78.9414C38.8978 78.9414 38.4187 78.5048 38.4187 77.9667C38.4187 77.4287 38.8978 76.9921 39.4885 76.9921C40.0793 76.9921 40.5582 77.4287 40.5582 77.9667C40.5582 78.5048 40.0793 78.9414 39.4885 78.9414Z" fill="#96C2DC"/>
<path d="M33.9015 78.3497C33.2718 78.3497 32.7615 77.8851 32.7615 77.3111C32.7615 76.7377 33.2718 76.2724 33.9015 76.2724C34.5312 76.2724 35.0415 76.7377 35.0415 77.3111C35.0415 77.8851 34.5312 78.3497 33.9015 78.3497Z" fill="#96C2DC"/>
<path d="M33.8099 78.3328C33.1797 78.3328 32.6689 77.8675 32.6689 77.2927C32.6689 76.7186 33.1797 76.2533 33.8099 76.2533C34.4401 76.2533 34.9511 76.7186 34.9511 77.2927C34.9511 77.8675 34.4401 78.3328 33.8099 78.3328Z" fill="#96C2DC"/>
<path d="M33.718 78.3144C33.0872 78.3144 32.5759 77.8491 32.5759 77.2743C32.5759 76.6995 33.0872 76.2342 33.718 76.2342C34.3488 76.2342 34.8599 76.6995 34.8599 77.2743C34.8599 77.8491 34.3488 78.3144 33.718 78.3144Z" fill="#96C2DC"/>
<path d="M28.3513 76.7995C27.6936 76.7995 27.1604 76.3143 27.1604 75.7153C27.1604 75.1162 27.6936 74.6304 28.3513 74.6304C29.0087 74.6304 29.5419 75.1162 29.5419 75.7153C29.5419 76.3143 29.0087 76.7995 28.3513 76.7995Z" fill="#96C2DC"/>
<path d="M28.2647 76.7671C27.6069 76.7671 27.0735 76.2813 27.0735 75.6822C27.0735 75.0824 27.6069 74.5965 28.2647 74.5965C28.9228 74.5965 29.4562 75.0824 29.4562 75.6822C29.4562 76.2813 28.9228 76.7671 28.2647 76.7671Z" fill="#96C2DC"/>
<path d="M28.1783 76.734C27.5201 76.734 26.9863 76.2482 26.9863 75.6484C26.9863 75.0493 27.5201 74.5627 28.1783 74.5627C28.8364 74.5627 29.37 75.0493 29.37 75.6484C29.37 76.2482 28.8364 76.734 28.1783 76.734Z" fill="#96C2DC"/>
<path d="M23.2076 74.3474C22.5338 74.3474 21.9873 73.8497 21.9873 73.236C21.9873 72.6222 22.5338 72.1244 23.2076 72.1244C23.8815 72.1244 24.4279 72.6222 24.4279 73.236C24.4279 73.8497 23.8815 74.3474 23.2076 74.3474Z" fill="#96C2DC"/>
<path d="M23.129 74.3011C22.4549 74.3011 21.9084 73.8034 21.9084 73.1892C21.9084 72.5753 22.4549 72.0774 23.129 72.0774C23.803 72.0774 24.3494 72.5753 24.3494 73.1892C24.3494 73.8034 23.803 74.3011 23.129 74.3011Z" fill="#96C2DC"/>
<path d="M23.0502 74.254C22.3761 74.254 21.8296 73.7564 21.8296 73.1422C21.8296 72.5282 22.3761 72.0303 23.0502 72.0303C23.7244 72.0303 24.2709 72.5282 24.2709 73.1422C24.2709 73.7564 23.7244 74.254 23.0502 74.254Z" fill="#96C2DC"/>
<path d="M18.6322 71.08C17.9527 71.08 17.4016 70.5784 17.4016 69.9592C17.4016 69.3403 17.9527 68.8385 18.6322 68.8385C19.3116 68.8385 19.8627 69.3403 19.8627 69.9592C19.8627 70.5784 19.3116 71.08 18.6322 71.08Z" fill="#96C2DC"/>
<path d="M18.564 71.0211C17.8846 71.0211 17.3337 70.5194 17.3337 69.9004C17.3337 69.2816 17.8846 68.7799 18.564 68.7799C19.2433 68.7799 19.7942 69.2816 19.7942 69.9004C19.7942 70.5194 19.2433 71.0211 18.564 71.0211Z" fill="#96C2DC"/>
<path d="M18.4957 70.962C17.8165 70.962 17.2656 70.4603 17.2656 69.8415C17.2656 69.2228 17.8165 68.7211 18.4957 68.7211C19.1748 68.7211 19.7258 69.2228 19.7258 69.8415C19.7258 70.4603 19.1748 70.962 18.4957 70.962Z" fill="#96C2DC"/>
<path d="M14.7695 67.1035C14.0966 67.1035 13.551 66.6065 13.551 65.9935C13.551 65.3804 14.0966 64.8834 14.7695 64.8834C15.4424 64.8834 15.9881 65.3804 15.9881 65.9935C15.9881 66.6065 15.4424 67.1035 14.7695 67.1035Z" fill="#96C2DC"/>
<path d="M14.7139 67.0344C14.0412 67.0344 13.4956 66.5374 13.4956 65.9246C13.4956 65.3116 14.0412 64.8147 14.7139 64.8147C15.3868 64.8147 15.9324 65.3116 15.9324 65.9246C15.9324 66.5374 15.3868 67.0344 14.7139 67.0344Z" fill="#96C2DC"/>
<path d="M14.6585 66.9651C13.9858 66.9651 13.4404 66.4683 13.4404 65.8555C13.4404 65.2427 13.9858 64.7459 14.6585 64.7459C15.3313 64.7459 15.8766 65.2427 15.8766 65.8555C15.8766 66.4683 15.3313 66.9651 14.6585 66.9651Z" fill="#96C2DC"/>
<path d="M11.7452 62.5435C11.0905 62.5435 10.5601 62.0601 10.5601 61.4638C10.5601 60.8675 11.0905 60.3841 11.7452 60.3841C12.3999 60.3841 12.9303 60.8675 12.9303 61.4638C12.9303 62.0601 12.3999 62.5435 11.7452 62.5435Z" fill="#96C2DC"/>
<path d="M11.7041 62.4662C11.0498 62.4662 10.5193 61.983 10.5193 61.3869C10.5193 60.791 11.0498 60.3078 11.7041 60.3078C12.3584 60.3078 12.8889 60.791 12.8889 61.3869C12.8889 61.983 12.3584 62.4662 11.7041 62.4662Z" fill="#96C2DC"/>
<path d="M11.6628 62.3886C11.0089 62.3886 10.4788 61.9057 10.4788 61.31C10.4788 60.7143 11.0089 60.2314 11.6628 60.2314C12.3169 60.2314 12.847 60.7143 12.847 61.31C12.847 61.9057 12.3169 62.3886 11.6628 62.3886Z" fill="#96C2DC"/>
<path d="M9.6626 57.5434C9.03809 57.5434 8.53174 57.0822 8.53174 56.5132C8.53174 55.9445 9.03809 55.4834 9.6626 55.4834C10.2871 55.4834 10.7932 55.9445 10.7932 56.5132C10.7932 57.0822 10.2871 57.5434 9.6626 57.5434Z" fill="#96C2DC"/>
<path d="M9.63726 57.4601C9.01333 57.4601 8.50757 56.9993 8.50757 56.4309C8.50757 55.8627 9.01333 55.402 9.63726 55.402C10.2614 55.402 10.7672 55.8627 10.7672 56.4309C10.7672 56.9993 10.2614 57.4601 9.63726 57.4601Z" fill="#96C2DC"/>
<path d="M9.61222 57.3767C8.98865 57.3767 8.4834 56.9164 8.4834 56.3484C8.4834 55.7806 8.98865 55.3201 9.61222 55.3201C10.2356 55.3201 10.741 55.7806 10.741 56.3484C10.741 56.9164 10.2356 57.3767 9.61222 57.3767Z" fill="#96C2DC"/>
<path d="M8.59235 52.2613C8.01059 52.2613 7.53882 51.8316 7.53882 51.3016C7.53882 50.7717 8.01059 50.3423 8.59235 50.3423C9.17397 50.3423 9.64576 50.7717 9.64576 51.3016C9.64576 51.8316 9.17397 52.2613 8.59235 52.2613Z" fill="#96C2DC"/>
<path d="M8.58359 52.1757C8.0027 52.1757 7.53149 51.7465 7.53149 51.2172C7.53149 50.688 8.0027 50.2588 8.58359 50.2588C9.16462 50.2588 9.63561 50.688 9.63561 51.2172C9.63561 51.7465 9.16462 52.1757 8.58359 52.1757Z" fill="#96C2DC"/>
<path d="M8.57495 52.0899C7.99479 52.0899 7.52417 51.6614 7.52417 51.1327C7.52417 50.6042 7.99479 50.1756 8.57495 50.1756C9.15525 50.1756 9.62572 50.6042 9.62572 51.1327C9.62572 51.6614 9.15525 52.0899 8.57495 52.0899Z" fill="#96C2DC"/>
<path d="M8.5567 46.8686C8.03099 46.8686 7.60474 46.4805 7.60474 46.0015C7.60474 45.5224 8.03099 45.1342 8.5567 45.1342C9.08234 45.1342 9.5086 45.5224 9.5086 46.0015C9.5086 46.4805 9.08234 46.8686 8.5567 46.8686Z" fill="#96C2DC"/>
<path d="M8.56453 46.7817C8.03962 46.7817 7.61426 46.3941 7.61426 45.9161C7.61426 45.4381 8.03962 45.0505 8.56453 45.0505C9.08951 45.0505 9.51482 45.4381 9.51482 45.9161C9.51482 46.3941 9.08951 46.7817 8.56453 46.7817Z" fill="#96C2DC"/>
<path d="M8.57247 46.6949C8.04866 46.6949 7.62402 46.3079 7.62402 45.8308C7.62402 45.3536 8.04866 44.9666 8.57247 44.9666C9.09651 44.9666 9.52109 45.3536 9.52109 45.8308C9.52109 46.3079 9.09651 46.6949 8.57247 46.6949Z" fill="#96C2DC"/>
<path d="M9.55559 41.5258C9.10222 41.5258 8.73486 41.1912 8.73486 40.7784C8.73486 40.3655 9.10222 40.0308 9.55559 40.0308C10.0087 40.0308 10.3761 40.3655 10.3761 40.7784C10.3761 41.1912 10.0087 41.5258 9.55559 41.5258Z" fill="#96C2DC"/>
<path d="M9.57991 41.4409C9.12822 41.4409 8.76196 41.1073 8.76196 40.6958C8.76196 40.2842 9.12822 39.9505 9.57991 39.9505C10.0317 39.9505 10.3979 40.2842 10.3979 40.6958C10.3979 41.1073 10.0317 41.4409 9.57991 41.4409Z" fill="#96C2DC"/>
<path d="M9.6047 41.3559C9.15447 41.3559 8.78931 41.0234 8.78931 40.6129C8.78931 40.2029 9.15447 39.8704 9.6047 39.8704C10.0551 39.8704 10.4202 40.2029 10.4202 40.6129C10.4202 41.0234 10.0551 41.3559 9.6047 41.3559Z" fill="#96C2DC"/>
<path d="M11.5701 36.4041C11.2062 36.4041 10.9114 36.1354 10.9114 35.8039C10.9114 35.4724 11.2062 35.2037 11.5701 35.2037C11.9342 35.2037 12.229 35.4724 12.229 35.8039C12.229 36.1354 11.9342 36.4041 11.5701 36.4041Z" fill="#96C2DC"/>
<path d="M11.6111 36.3238C11.2485 36.3238 10.9548 36.0561 10.9548 35.726C10.9548 35.3957 11.2485 35.1281 11.6111 35.1281C11.9735 35.1281 12.2673 35.3957 12.2673 35.726C12.2673 36.0561 11.9735 36.3238 11.6111 36.3238Z" fill="#96C2DC"/>
<path d="M11.652 36.2435C11.2911 36.2435 10.9983 35.9769 10.9983 35.6481C10.9983 35.3192 11.2911 35.0526 11.652 35.0526C12.0132 35.0526 12.3059 35.3192 12.3059 35.6481C12.3059 35.9769 12.0132 36.2435 11.652 36.2435Z" fill="#96C2DC"/>
<path d="M14.5338 31.6624C14.2771 31.6624 14.0691 31.4728 14.0691 31.239C14.0691 31.0051 14.2771 30.8155 14.5338 30.8155C14.7906 30.8155 14.9986 31.0051 14.9986 31.239C14.9986 31.4728 14.7906 31.6624 14.5338 31.6624Z" fill="#96C2DC"/>
<path d="M14.5887 31.5899C14.3337 31.5899 14.1272 31.4016 14.1272 31.1696C14.1272 30.9374 14.3337 30.749 14.5887 30.749C14.8436 30.749 15.0503 30.9374 15.0503 31.1696C15.0503 31.4016 14.8436 31.5899 14.5887 31.5899Z" fill="#96C2DC"/>
<path d="M14.6442 31.5175C14.3912 31.5175 14.186 31.3308 14.186 31.1002C14.186 30.8697 14.3912 30.6827 14.6442 30.6827C14.8972 30.6827 15.1023 30.8697 15.1023 31.1002C15.1023 31.3308 14.8972 31.5175 14.6442 31.5175Z" fill="#96C2DC"/>
<path d="M18.3422 27.4411C18.2145 27.4411 18.1108 27.3469 18.1108 27.2304C18.1108 27.1141 18.2145 27.0198 18.3422 27.0198C18.4699 27.0198 18.5736 27.1141 18.5736 27.2304C18.5736 27.3469 18.4699 27.4411 18.3422 27.4411Z" fill="#96C2DC"/>
<path d="M18.4102 27.378C18.2844 27.378 18.1829 27.2853 18.1829 27.1712C18.1829 27.0568 18.2844 26.9641 18.4102 26.9641C18.5357 26.9641 18.6373 27.0568 18.6373 27.1712C18.6373 27.2853 18.5357 27.378 18.4102 27.378Z" fill="#96C2DC"/>
<path d="M18.4779 27.3153C18.3546 27.3153 18.2546 27.2241 18.2546 27.1119C18.2546 26.9996 18.3546 26.9086 18.4779 26.9086C18.6012 26.9086 18.7011 26.9996 18.7011 27.1119C18.7011 27.2241 18.6012 27.3153 18.4779 27.3153Z" fill="#96C2DC"/>
<path d="M64.701 58.2616C64.6986 58.2616 64.6965 58.2597 64.6965 58.2573C64.6965 58.255 64.6986 58.2529 64.701 58.2529C64.7036 58.2529 64.7055 58.255 64.7055 58.2573C64.7055 58.2597 64.7036 58.2616 64.701 58.2616Z" fill="#96C2DC"/>
<path d="M64.6702 58.3287C64.6653 58.3287 64.6611 58.3252 64.6611 58.3209C64.6611 58.3167 64.6653 58.3131 64.6702 58.3131C64.6749 58.3131 64.6789 58.3167 64.6789 58.3209C64.6789 58.3252 64.6749 58.3287 64.6702 58.3287Z" fill="#96C2DC"/>
<path d="M62.4347 62.1221C62.3146 62.1221 62.217 62.0335 62.217 61.924C62.217 61.8144 62.3146 61.7257 62.4347 61.7257C62.5549 61.7257 62.6527 61.8144 62.6527 61.924C62.6527 62.0335 62.5549 62.1221 62.4347 62.1221Z" fill="#96C2DC"/>
<path d="M62.3917 62.1819C62.2699 62.1819 62.1709 62.0919 62.1709 61.9809C62.1709 61.8699 62.2699 61.7798 62.3917 61.7798C62.5138 61.7798 62.6126 61.8699 62.6126 61.9809C62.6126 62.0919 62.5138 62.1819 62.3917 62.1819Z" fill="#96C2DC"/>
<path d="M62.3487 62.2415C62.2251 62.2415 62.1248 62.1502 62.1248 62.0376C62.1248 61.925 62.2251 61.8337 62.3487 61.8337C62.4725 61.8337 62.5728 61.925 62.5728 62.0376C62.5728 62.1502 62.4725 62.2415 62.3487 62.2415Z" fill="#96C2DC"/>
<path d="M59.4436 65.5784C59.2268 65.5784 59.051 65.4183 59.051 65.2208C59.051 65.0233 59.2268 64.8632 59.4436 64.8632C59.6604 64.8632 59.8362 65.0233 59.8362 65.2208C59.8362 65.4183 59.6604 65.5784 59.4436 65.5784Z" fill="#96C2DC"/>
<path d="M59.3901 65.6296C59.1718 65.6296 58.9951 65.4685 58.9951 65.2698C58.9951 65.0712 59.1718 64.91 59.3901 64.91C59.6084 64.91 59.7851 65.0712 59.7851 65.2698C59.7851 65.4685 59.6084 65.6296 59.3901 65.6296Z" fill="#96C2DC"/>
<path d="M59.3365 65.6809C59.1171 65.6809 58.939 65.5188 58.939 65.3188C58.939 65.1185 59.1171 64.9566 59.3365 64.9566C59.5561 64.9566 59.734 65.1185 59.734 65.3188C59.734 65.5188 59.5561 65.6809 59.3365 65.6809Z" fill="#96C2DC"/>
<path d="M55.8563 68.4716C55.5587 68.4716 55.3174 68.2518 55.3174 67.9806C55.3174 67.7096 55.5587 67.4897 55.8563 67.4897C56.1539 67.4897 56.3954 67.7096 56.3954 67.9806C56.3954 68.2518 56.1539 68.4716 55.8563 68.4716Z" fill="#96C2DC"/>
<path d="M55.7941 68.513C55.4954 68.513 55.2532 68.2924 55.2532 68.0203C55.2532 67.7482 55.4954 67.5275 55.7941 67.5275C56.0928 67.5275 56.3349 67.7482 56.3349 68.0203C56.3349 68.2924 56.0928 68.513 55.7941 68.513Z" fill="#96C2DC"/>
<path d="M55.7322 68.5543C55.4322 68.5543 55.1892 68.3328 55.1892 68.0597C55.1892 67.7865 55.4322 67.565 55.7322 67.565C56.032 67.565 56.275 67.7865 56.275 68.0597C56.275 68.3328 56.032 68.5543 55.7322 68.5543Z" fill="#96C2DC"/>
<path d="M51.786 70.7168C51.4199 70.7168 51.123 70.4466 51.123 70.1129C51.123 69.7794 51.4199 69.5092 51.786 69.5092C52.1521 69.5092 52.4492 69.7794 52.4492 70.1129C52.4492 70.4466 52.1521 70.7168 51.786 70.7168Z" fill="#96C2DC"/>
<path d="M51.717 70.7475C51.3498 70.7475 51.0522 70.4763 51.0522 70.1419C51.0522 69.8074 51.3498 69.5359 51.717 69.5359C52.0842 69.5359 52.382 69.8074 52.382 70.1419C52.382 70.4763 52.0842 70.7475 51.717 70.7475Z" fill="#96C2DC"/>
<path d="M51.6483 70.7779C51.2798 70.7779 50.9812 70.506 50.9812 70.1705C50.9812 69.8348 51.2798 69.5628 51.6483 69.5628C52.0166 69.5628 52.3151 69.8348 52.3151 70.1705C52.3151 70.506 52.0166 70.7779 51.6483 70.7779Z" fill="#96C2DC"/>
<path d="M47.3616 72.2338C46.9436 72.2338 46.6047 71.9252 46.6047 71.5446C46.6047 71.1638 46.9436 70.855 47.3616 70.855C47.7796 70.855 48.1182 71.1638 48.1182 71.5446C48.1182 71.9252 47.7796 72.2338 47.3616 72.2338Z" fill="#96C2DC"/>
<path d="M47.2881 72.2521C46.8694 72.2521 46.5298 71.943 46.5298 71.5616C46.5298 71.1799 46.8694 70.8708 47.2881 70.8708C47.7068 70.8708 48.0462 71.1799 48.0462 71.5616C48.0462 71.943 47.7068 72.2521 47.2881 72.2521Z" fill="#96C2DC"/>
<path d="M47.2144 72.2704C46.7949 72.2704 46.4546 71.9605 46.4546 71.5784C46.4546 71.1961 46.7949 70.8863 47.2144 70.8863C47.6338 70.8863 47.9739 71.1961 47.9739 71.5784C47.9739 71.9605 47.6338 72.2704 47.2144 72.2704Z" fill="#96C2DC"/>
<path d="M42.7262 72.9962C42.2602 72.9962 41.8823 72.6521 41.8823 72.2276C41.8823 71.8031 42.2602 71.459 42.7262 71.459C43.1921 71.459 43.57 71.8031 43.57 72.2276C43.57 72.6521 43.1921 72.9962 42.7262 72.9962Z" fill="#96C2DC"/>
<path d="M42.6512 73.0019C42.1846 73.0019 41.8064 72.6574 41.8064 72.2324C41.8064 71.8074 42.1846 71.4628 42.6512 71.4628C43.1176 71.4628 43.496 71.8074 43.496 72.2324C43.496 72.6574 43.1176 73.0019 42.6512 73.0019Z" fill="#96C2DC"/>
<path d="M42.5759 73.0073C42.109 73.0073 41.7302 72.6624 41.7302 72.2369C41.7302 71.8113 42.109 71.4664 42.5759 71.4664C43.0431 71.4664 43.4219 71.8113 43.4219 72.2369C43.4219 72.6624 43.0431 73.0073 42.5759 73.0073Z" fill="#96C2DC"/>
<path d="M38.032 72.9752C37.532 72.9752 37.1265 72.606 37.1265 72.1503C37.1265 71.6947 37.532 71.3255 38.032 71.3255C38.5323 71.3255 38.9376 71.6947 38.9376 72.1503C38.9376 72.606 38.5323 72.9752 38.032 72.9752Z" fill="#96C2DC"/>
<path d="M37.9566 72.9684C37.4559 72.9684 37.0503 72.5988 37.0503 72.1429C37.0503 71.6869 37.4559 71.3174 37.9566 71.3174C38.457 71.3174 38.8629 71.6869 38.8629 72.1429C38.8629 72.5988 38.457 72.9684 37.9566 72.9684Z" fill="#96C2DC"/>
<path d="M37.8814 72.9614C37.3804 72.9614 36.9744 72.5916 36.9744 72.1353C36.9744 71.679 37.3804 71.3092 37.8814 71.3092C38.3822 71.3092 38.7883 71.679 38.7883 72.1353C38.7883 72.5916 38.3822 72.9614 37.8814 72.9614Z" fill="#96C2DC"/>
<path d="M33.4274 72.1788C32.9022 72.1788 32.4766 71.791 32.4766 71.3128C32.4766 70.8343 32.9022 70.4467 33.4274 70.4467C33.9526 70.4467 34.3781 70.8343 34.3781 71.3128C34.3781 71.791 33.9526 72.1788 33.4274 72.1788Z" fill="#96C2DC"/>
<path d="M33.3538 72.1594C32.8286 72.1594 32.4026 71.7716 32.4026 71.2928C32.4026 70.8145 32.8286 70.4264 33.3538 70.4264C33.8791 70.4264 34.305 70.8145 34.305 71.2928C34.305 71.7716 33.8791 72.1594 33.3538 72.1594Z" fill="#96C2DC"/>
<path d="M33.2809 72.1397C32.7554 72.1397 32.3291 71.7517 32.3291 71.2728C32.3291 70.7942 32.7554 70.4058 33.2809 70.4058C33.8064 70.4058 34.2325 70.7942 34.2325 71.2728C34.2325 71.7517 33.8064 72.1397 33.2809 72.1397Z" fill="#96C2DC"/>
<path d="M29.0629 70.6244C28.5226 70.6244 28.085 70.2255 28.085 69.7336C28.085 69.2413 28.5226 68.8424 29.0629 68.8424C29.6031 68.8424 30.0409 69.2413 30.0409 69.7336C30.0409 70.2255 29.6031 70.6244 29.0629 70.6244Z" fill="#96C2DC"/>
<path d="M28.9958 70.5937C28.4552 70.5937 28.0173 70.1947 28.0173 69.7024C28.0173 69.21 28.4552 68.811 28.9958 68.811C29.5362 68.811 29.9743 69.21 29.9743 69.7024C29.9743 70.1947 29.5362 70.5937 28.9958 70.5937Z" fill="#96C2DC"/>
<path d="M28.9286 70.5629C28.388 70.5629 27.9497 70.1636 27.9497 69.6711C27.9497 69.1786 28.388 68.7794 28.9286 68.7794C29.4694 68.7794 29.9075 69.1786 29.9075 69.6711C29.9075 70.1636 29.4694 70.5629 28.9286 70.5629Z" fill="#96C2DC"/>
<path d="M25.0818 68.3689C24.535 68.3689 24.0918 67.9652 24.0918 67.4672C24.0918 66.9691 24.535 66.5654 25.0818 66.5654C25.6285 66.5654 26.0717 66.9691 26.0717 67.4672C26.0717 67.9652 25.6285 68.3689 25.0818 68.3689Z" fill="#96C2DC"/>
<path d="M25.0213 68.3271C24.4745 68.3271 24.0312 67.9235 24.0312 67.4253C24.0312 66.9272 24.4745 66.5234 25.0213 66.5234C25.5681 66.5234 26.0113 66.9272 26.0113 67.4253C26.0113 67.9235 25.5681 68.3271 25.0213 68.3271Z" fill="#96C2DC"/>
<path d="M24.9612 68.2854C24.4142 68.2854 23.9709 67.8817 23.9709 67.3834C23.9709 66.8853 24.4142 66.4814 24.9612 66.4814C25.508 66.4814 25.9514 66.8853 25.9514 67.3834C25.9514 67.8817 25.508 68.2854 24.9612 68.2854Z" fill="#96C2DC"/>
<path d="M21.607 65.4898C21.0617 65.4898 20.6196 65.0871 20.6196 64.5903C20.6196 64.0934 21.0617 63.6906 21.607 63.6906C22.1526 63.6906 22.5947 64.0934 22.5947 64.5903C22.5947 65.0871 22.1526 65.4898 21.607 65.4898Z" fill="#96C2DC"/>
<path d="M21.5558 65.4389C21.0104 65.4389 20.5684 65.0362 20.5684 64.5394C20.5684 64.0427 21.0104 63.6399 21.5558 63.6399C22.1011 63.6399 22.5433 64.0427 22.5433 64.5394C22.5433 65.0362 22.1011 65.4389 21.5558 65.4389Z" fill="#96C2DC"/>
<path d="M21.5046 65.3878C20.9592 65.3878 20.5173 64.985 20.5173 64.4885C20.5173 63.9916 20.9592 63.5889 21.5046 63.5889C22.05 63.5889 22.4919 63.9916 22.4919 64.4885C22.4919 64.985 22.05 65.3878 21.5046 65.3878Z" fill="#96C2DC"/>
<path d="M18.7496 62.0808C18.2133 62.0808 17.7786 61.6849 17.7786 61.1964C17.7786 60.7078 18.2133 60.3116 18.7496 60.3116C19.286 60.3116 19.7205 60.7078 19.7205 61.1964C19.7205 61.6849 19.286 62.0808 18.7496 62.0808Z" fill="#96C2DC"/>
<path d="M18.7091 62.0219C18.1729 62.0219 17.7385 61.6263 17.7385 61.1378C17.7385 60.6495 18.1729 60.2536 18.7091 60.2536C19.2451 60.2536 19.6796 60.6495 19.6796 61.1378C19.6796 61.6263 19.2451 62.0219 18.7091 62.0219Z" fill="#96C2DC"/>
<path d="M18.6689 61.9632C18.1331 61.9632 17.6987 61.5675 17.6987 61.0794C17.6987 60.5912 18.1331 60.1957 18.6689 60.1957C19.2046 60.1957 19.639 60.5912 19.639 61.0794C19.639 61.5675 19.2046 61.9632 18.6689 61.9632Z" fill="#96C2DC"/>
<path d="M16.6041 58.2469C16.0856 58.2469 15.665 57.864 15.665 57.3915C15.665 56.9192 16.0856 56.5364 16.6041 56.5364C17.1226 56.5364 17.5432 56.9192 17.5432 57.3915C17.5432 57.864 17.1226 58.2469 16.6041 58.2469Z" fill="#96C2DC"/>
<path d="M16.576 58.1822C16.0579 58.1822 15.6377 57.7997 15.6377 57.3275C15.6377 56.8557 16.0579 56.4731 16.576 56.4731C17.0941 56.4731 17.5143 56.8557 17.5143 57.3275C17.5143 57.7997 17.0941 58.1822 16.576 58.1822Z" fill="#96C2DC"/>
<path d="M16.5478 58.1174C16.03 58.1174 15.6104 57.7352 15.6104 57.2635C15.6104 56.7919 16.03 56.4095 16.5478 56.4095C17.0655 56.4095 17.4854 56.7919 17.4854 57.2635C17.4854 57.7352 17.0655 58.1174 16.5478 58.1174Z" fill="#96C2DC"/>
<path d="M15.2453 54.1083C14.7537 54.1083 14.3552 53.7454 14.3552 53.2976C14.3552 52.8497 14.7537 52.4868 15.2453 52.4868C15.737 52.4868 16.1352 52.8497 16.1352 53.2976C16.1352 53.7454 15.737 54.1083 15.2453 54.1083Z" fill="#96C2DC"/>
<path d="M15.2301 54.0396C14.7393 54.0396 14.3413 53.6772 14.3413 53.23C14.3413 52.7827 14.7393 52.4202 15.2301 52.4202C15.7212 52.4202 16.1191 52.7827 16.1191 53.23C16.1191 53.6772 15.7212 54.0396 15.2301 54.0396Z" fill="#96C2DC"/>
<path d="M15.2151 53.971C14.7248 53.971 14.3271 53.609 14.3271 53.1623C14.3271 52.7156 14.7248 52.3534 15.2151 52.3534C15.7054 52.3534 16.103 52.7156 16.103 53.1623C16.103 53.609 15.7054 53.971 15.2151 53.971Z" fill="#96C2DC"/>
<path d="M14.7152 49.7958C14.2615 49.7958 13.8936 49.4608 13.8936 49.0476C13.8936 48.6341 14.2615 48.2991 14.7152 48.2991C15.1689 48.2991 15.5367 48.6341 15.5367 49.0476C15.5367 49.4608 15.1689 49.7958 14.7152 49.7958Z" fill="#96C2DC"/>
<path d="M14.7136 49.7256C14.2608 49.7256 13.8936 49.3911 13.8936 48.9787C13.8936 48.566 14.2608 48.2316 14.7136 48.2316C15.1666 48.2316 15.5337 48.566 15.5337 48.9787C15.5337 49.3911 15.1666 49.7256 14.7136 49.7256Z" fill="#96C2DC"/>
<path d="M14.7121 49.6554C14.26 49.6554 13.8936 49.3216 13.8936 48.9097C13.8936 48.498 14.26 48.164 14.7121 48.164C15.1641 48.164 15.5306 48.498 15.5306 48.9097C15.5306 49.3216 15.1641 49.6554 14.7121 49.6554Z" fill="#96C2DC"/>
<path d="M15.0192 45.4458C14.6153 45.4458 14.2876 45.1475 14.2876 44.7793C14.2876 44.4113 14.6153 44.113 15.0192 44.113C15.4233 44.113 15.751 44.4113 15.751 44.7793C15.751 45.1475 15.4233 45.4458 15.0192 45.4458Z" fill="#96C2DC"/>
<path d="M15.0312 45.3764C14.6279 45.3764 14.301 45.0786 14.301 44.7113C14.301 44.3439 14.6279 44.046 15.0312 44.046C15.4343 44.046 15.7613 44.3439 15.7613 44.7113C15.7613 45.0786 15.4343 45.3764 15.0312 45.3764Z" fill="#96C2DC"/>
<path d="M15.0431 45.3068C14.6406 45.3068 14.3145 45.0097 14.3145 44.643C14.3145 44.2763 14.6406 43.9792 15.0431 43.9792C15.4456 43.9792 15.7718 44.2763 15.7718 44.643C15.7718 45.0097 15.4456 45.3068 15.0431 45.3068Z" fill="#96C2DC"/>
<path d="M16.1566 41.2008C15.8102 41.2008 15.5295 40.9452 15.5295 40.6296C15.5295 40.3141 15.8102 40.0584 16.1566 40.0584C16.5032 40.0584 16.7839 40.3141 16.7839 40.6296C16.7839 40.9452 16.5032 41.2008 16.1566 41.2008Z" fill="#96C2DC"/>
<path d="M16.1819 41.1339C15.8366 41.1339 15.5569 40.8789 15.5569 40.5645C15.5569 40.25 15.8366 39.9949 16.1819 39.9949C16.5272 39.9949 16.8069 40.25 16.8069 40.5645C16.8069 40.8789 16.5272 41.1339 16.1819 41.1339Z" fill="#96C2DC"/>
<path d="M16.207 41.0669C15.863 41.0669 15.584 40.8127 15.584 40.4992C15.584 40.1857 15.863 39.9316 16.207 39.9316C16.5512 39.9316 16.8302 40.1857 16.8302 40.4992C16.8302 40.8127 16.5512 41.0669 16.207 41.0669Z" fill="#96C2DC"/>
<path d="M18.096 37.1915C17.8187 37.1915 17.5938 36.9866 17.5938 36.7339C17.5938 36.4813 17.8187 36.2762 18.096 36.2762C18.3736 36.2762 18.5983 36.4813 18.5983 36.7339C18.5983 36.9866 18.3736 37.1915 18.096 37.1915Z" fill="#96C2DC"/>
<path d="M18.1337 37.1293C17.8575 37.1293 17.6333 36.9252 17.6333 36.6736C17.6333 36.4217 17.8575 36.2177 18.1337 36.2177C18.41 36.2177 18.6342 36.4217 18.6342 36.6736C18.6342 36.9252 18.41 37.1293 18.1337 37.1293Z" fill="#96C2DC"/>
<path d="M18.1718 37.0672C17.8967 37.0672 17.6733 36.864 17.6733 36.6134C17.6733 36.3627 17.8967 36.1593 18.1718 36.1593C18.4469 36.1593 18.67 36.3627 18.67 36.6134C18.67 36.864 18.4469 37.0672 18.1718 37.0672Z" fill="#96C2DC"/>
<path d="M20.7703 33.5314C20.5799 33.5314 20.4255 33.3906 20.4255 33.2172C20.4255 33.0437 20.5799 32.903 20.7703 32.903C20.9608 32.903 21.1152 33.0437 21.1152 33.2172C21.1152 33.3906 20.9608 33.5314 20.7703 33.5314Z" fill="#96C2DC"/>
<path d="M20.819 33.4761C20.6299 33.4761 20.4768 33.3364 20.4768 33.1642C20.4768 32.9919 20.6299 32.8524 20.819 32.8524C21.008 32.8524 21.1613 32.9919 21.1613 33.1642C21.1613 33.3364 21.008 33.4761 20.819 33.4761Z" fill="#96C2DC"/>
<path d="M20.8678 33.4209C20.6801 33.4209 20.5278 33.2824 20.5278 33.1114C20.5278 32.9405 20.6801 32.8019 20.8678 32.8019C21.0556 32.8019 21.2076 32.9405 21.2076 33.1114C21.2076 33.2824 21.0556 33.4209 20.8678 33.4209Z" fill="#96C2DC"/>
<path d="M24.0895 30.3351C24.0017 30.3351 23.9307 30.2702 23.9307 30.1904C23.9307 30.1105 24.0017 30.0457 24.0895 30.0457C24.1773 30.0457 24.2483 30.1105 24.2483 30.1904C24.2483 30.2702 24.1773 30.3351 24.0895 30.3351Z" fill="#96C2DC"/>
<path d="M24.1474 30.288C24.0615 30.288 23.9917 30.2245 23.9917 30.1461C23.9917 30.068 24.0615 30.0045 24.1474 30.0045C24.2336 30.0045 24.3033 30.068 24.3033 30.1461C24.3033 30.2245 24.2336 30.288 24.1474 30.288Z" fill="#96C2DC"/>
<path d="M24.2059 30.2408C24.1218 30.2408 24.0537 30.1787 24.0537 30.1021C24.0537 30.0257 24.1218 29.9636 24.2059 29.9636C24.29 29.9636 24.3581 30.0257 24.3581 30.1021C24.3581 30.1787 24.29 30.2408 24.2059 30.2408Z" fill="#96C2DC"/>
<path d="M33.1588 24.6255C31.5291 24.6255 30.6721 23.9323 30.5884 22.5461C30.5404 21.6619 30.5166 20.7286 30.5166 19.7461C30.5166 18.8948 30.5344 18.0053 30.5703 17.0773C29.1443 17.1539 27.958 17.192 27.0116 17.192C26.0409 17.192 25.0282 17.1374 23.9739 17.0281L23.9918 19.8444C23.9918 21.2853 23.9798 22.7808 23.9559 24.3307C23.5004 24.4727 23.087 24.5437 22.7157 24.5437C20.8582 24.5437 19.9296 22.7973 19.9296 19.3042L19.9656 17.192C19.9656 12.171 19.9476 6.52208 19.9116 0.245459C21.0859 0.147208 21.8109 0.0980841 22.0866 0.0980841C23.5723 0.0980841 24.3154 1.51718 24.3154 4.35521C24.3154 4.61727 24.2704 5.81806 24.1806 7.95743C24.0906 10.097 24.0457 12.5475 24.0457 15.3091C25.3159 15.4947 26.3286 15.5875 27.0834 15.5875C27.9939 15.5875 29.1684 15.5219 30.6064 15.3909C30.7502 11.9307 30.8222 9.03801 30.8222 6.71305C30.8222 3.34001 30.6721 1.15167 30.3727 0.147209C30.864 0.0489586 31.3193 0 31.7388 0C33.8357 0 34.8843 1.20617 34.8843 3.6185L34.8662 4.30608C34.6984 6.52208 34.6146 9.0927 34.6146 12.0181C34.6146 13.5463 34.5248 15.8766 34.345 19.0095C34.2252 21.0179 34.1653 22.497 34.1653 23.4466C34.1653 23.9815 34.1833 24.3471 34.2193 24.5437C33.8357 24.5981 33.4823 24.6255 33.1588 24.6255Z" fill="#EDA177"/>
<path d="M42.4056 15.8985C42.9688 15.8985 43.4662 15.4674 43.8974 14.605C44.3887 13.6227 44.6344 12.5639 44.6344 11.4286C44.6344 10.5117 44.4606 9.77497 44.1132 9.21817C43.9094 8.93444 43.7178 8.79243 43.538 8.79243C43.3701 8.79243 43.1756 9.01912 42.9539 9.47198C42.732 9.92506 42.5194 11.074 42.3158 12.9187C42.2558 13.4972 42.2139 14.485 42.1899 15.8821L42.4056 15.8985ZM43.8796 24.6255C42.4655 24.6255 41.3272 24.2054 40.4644 23.3647C39.6018 22.5244 38.9485 21.5665 38.5053 20.4913C38.0617 19.4161 37.8401 17.8854 37.8401 15.8985C37.8401 14.7305 37.9599 13.4944 38.1996 12.1899C38.4392 10.8858 38.9546 9.62494 39.7455 8.40771C40.5364 7.19061 41.5249 6.58217 42.7112 6.58217C43.7417 6.58217 44.7122 7.01054 45.623 7.86746C46.5337 8.72437 46.989 9.80231 46.989 11.1012C46.989 12.6512 46.5039 14.043 45.5332 15.2763C44.7303 16.2915 43.8974 16.799 43.0348 16.799C42.7232 16.799 42.4056 16.7335 42.0821 16.6026C42.106 18.7203 42.2619 20.3086 42.5494 21.3672C42.801 22.2841 43.3103 22.7425 44.0773 22.7425C45.1677 22.688 46.1022 22.0167 46.8812 20.7287C47.4205 19.8445 47.6901 19.1351 47.6901 18.6C47.6901 18.4255 47.6602 18.2673 47.6003 18.1253C47.8758 18.0163 48.1035 17.9616 48.2834 17.9616C48.6307 17.9616 48.8046 18.169 48.8046 18.5838C48.8046 18.8568 48.7565 19.1731 48.6607 19.5335C48.1575 21.6183 47.3185 23.1028 46.1443 23.9869C45.593 24.4126 44.8382 24.6255 43.8796 24.6255Z" fill="#EDA177"/>
<path d="M56.3439 23.201C57.1827 23.1683 58.0245 22.5599 58.8694 21.3753C59.7141 20.1911 60.1364 19.0859 60.1364 18.0598C60.1364 17.7106 60.1005 17.3394 60.0287 16.9463C59.8369 16.8373 59.6032 16.7827 59.3276 16.7827C59.016 16.7827 58.5426 16.8865 57.9077 17.0937C57.2725 17.3013 56.5714 17.9725 55.8046 19.1077L55.7687 19.1568C55.1576 20.0847 54.8521 20.898 54.8521 21.5964C54.8521 21.7494 54.8639 21.8912 54.888 22.0222C55.0198 22.808 55.4871 23.201 56.29 23.201H56.3439ZM62.3294 24.7073H62.2036C61.8559 24.7073 61.5323 24.6199 61.2328 24.4454C60.5019 24.0197 60.0885 23.2828 59.9926 22.2349C59.5973 22.8791 59.0461 23.4302 58.339 23.8887C57.6919 24.3254 56.961 24.5437 56.1462 24.5437C54.6962 24.5437 53.5758 24.189 52.785 23.4793C52.1978 22.9554 51.9042 22.1915 51.9042 21.187C51.9042 20.8707 51.9341 20.5322 51.9941 20.172C52.2457 18.6438 52.9468 17.5086 54.0971 16.7662C55.6069 15.7948 56.9669 15.3091 58.1772 15.3091C58.9323 15.3091 59.4894 15.3692 59.8489 15.4892L59.8669 13.2787C59.8669 10.7572 59.2676 9.4966 58.0694 9.4966C57.0387 9.50748 56.0501 10.5772 55.1037 12.7057C54.8521 12.7276 54.6123 12.7385 54.3846 12.7385C53.0187 12.7385 52.1739 12.2855 51.8503 11.3794C51.7903 11.2158 51.7605 11.052 51.7605 10.8882C51.7605 9.96049 52.6651 8.95083 54.4746 7.85915C55.8883 7.01869 57.2366 6.59299 58.5187 6.58209C59.1777 6.58209 59.8248 6.69124 60.4599 6.90954C62.3294 7.55366 63.2641 10.3479 63.2641 15.2927C63.2641 20.2374 63.4496 23.2119 63.8212 24.2162C63.282 24.5218 62.7846 24.6855 62.3294 24.7073Z" fill="#EDA177"/>
<path d="M70.7312 24.822C69.6407 24.822 68.658 24.1399 67.7833 22.7753C66.8848 21.3781 66.4353 18.4528 66.4353 13.9992C66.4353 10.2444 66.6479 7.20982 67.0735 4.89558C67.4988 2.58149 68.1667 1.3371 69.0776 1.1624C69.3171 1.10791 69.5328 1.08057 69.7246 1.08057C70.3237 1.08057 70.8149 1.27171 71.1985 1.65365C71.4741 1.90481 71.6119 2.33051 71.6119 2.93074C71.6119 3.48738 71.5041 4.1971 71.2883 5.05921C70.7371 7.32987 70.4615 9.87317 70.4615 12.6894C70.4615 13.8575 70.5094 15.069 70.6053 16.3241C70.7851 18.6929 71.0217 20.5377 71.3155 21.8583C71.609 23.1792 72.0193 24.0252 72.5466 24.3963C71.8996 24.6799 71.2944 24.822 70.7312 24.822Z" fill="#EDA177"/>
<path d="M78.1807 24.6582C77.3059 24.6582 76.4845 24.1507 75.718 23.1355C75.4067 22.7318 75.167 22.1967 74.9989 21.5309C74.8315 20.8652 74.7175 19.8991 74.6576 18.6327C74.5977 17.3667 74.5619 15.6257 74.5495 13.4098C74.5495 11.6196 74.5378 10.397 74.5137 9.74211C74.4895 8.91269 74.4779 8.23579 74.4779 7.71185C74.0584 7.67899 73.6747 7.66275 73.3276 7.66275C72.4888 7.66275 71.8836 7.75007 71.5122 7.92464C71.4883 7.80461 71.4761 7.68472 71.4761 7.56447C71.4761 6.47301 72.5127 5.82885 74.586 5.63235C74.6218 5.50141 74.6394 5.35403 74.6394 5.19022C74.6394 3.553 74.5195 2.56512 74.2805 2.22661C75.1787 1.50634 76.06 1.14603 76.9223 1.14603C78.264 1.14603 78.9355 2.43418 78.9355 5.01015L78.9173 5.46854C80.2473 5.38136 81.1527 5.21755 81.6314 4.97746C81.787 4.90117 81.9251 4.86278 82.045 4.86278C82.3088 4.87384 82.5002 5.05391 82.6201 5.40315C82.6924 5.59965 82.7282 5.80168 82.7282 6.00908C82.7282 6.35849 82.6325 6.72937 82.4403 7.12236C81.3376 7.12236 80.1516 7.23705 78.8815 7.46627C78.7974 8.01219 78.546 9.82965 78.1266 12.9184C77.8869 15.0691 77.767 17.0229 77.767 18.7801C77.767 20.8325 78.0425 22.1096 78.5943 22.6115C78.6659 22.6771 78.7499 22.7098 78.8457 22.7098C79.1928 22.7098 79.6904 22.3168 80.3379 21.5309H80.4811C81.1527 21.5309 81.5955 21.7984 81.8111 22.3332C81.8477 22.4424 81.8652 22.546 81.8652 22.6442C81.8652 23.1028 81.4487 23.553 80.6163 23.9951C79.7832 24.4372 78.9714 24.6582 78.1807 24.6582Z" fill="#EDA177"/>
<path d="M96.792 24.6582C96.1569 24.6582 95.6417 24.5871 95.2464 24.4453C94.2876 24.1179 93.7783 22.7263 93.7184 20.2701C93.7184 19.255 93.7666 17.8415 93.8623 16.0294C93.9223 14.5558 93.9522 13.3225 93.9522 12.3292C93.9522 10.2006 93.7483 9.13636 93.3413 9.13636C92.9335 9.13636 92.4607 9.43927 91.9214 10.0451C91.3821 10.6508 90.8786 11.4886 90.4116 12.5584C89.1408 15.4072 88.5058 18.3053 88.5058 21.2527C88.5058 22.6389 88.6973 23.6213 89.0809 24.1998C88.1945 24.429 87.4454 24.5435 86.8345 24.5435C85.8158 24.5435 85.1749 24.2216 84.9111 23.5776C84.564 22.7371 84.3835 20.0629 84.3718 15.5546C84.3718 14.496 84.3835 13.3388 84.4076 12.0835C84.4317 10.6099 84.4442 9.28925 84.4442 8.12112C84.4442 4.01692 84.3119 1.78466 84.0488 1.42435C84.803 1.08617 85.4804 0.916832 86.0796 0.916832C86.7629 0.916832 87.3439 1.1571 87.8233 1.63728C88.3501 2.18319 88.6139 3.9678 88.6139 6.99142C88.6139 8.92342 88.5058 11.3631 88.2902 14.3103C90.1595 9.23456 91.9272 6.64218 93.5927 6.53304L94.0063 6.5166C95.4561 6.5166 96.4361 7.14702 96.9447 8.40764C97.4541 9.66853 97.7091 12.029 97.7091 15.489L97.6733 17.9125C97.6733 21.5473 98.1103 23.7306 98.985 24.4617C98.1344 24.5927 97.4036 24.6582 96.792 24.6582Z" fill="#EDA177"/>
<path d="M106.83 31.5022H106.435C105.848 31.5022 105.35 31.4639 104.943 31.3876C103.912 31.1802 103.271 30.5907 103.02 29.6194C102.96 29.4119 102.93 29.2154 102.93 29.0299C102.941 28.615 103.091 28.2768 103.379 28.0148C103.559 27.84 103.786 27.7529 104.062 27.7529C104.41 27.7529 104.805 27.8618 105.248 28.0803C104.949 28.5823 104.793 29.0353 104.781 29.4392C104.781 29.8322 105.08 30.0885 105.68 30.2088C105.752 30.2305 105.829 30.2414 105.913 30.2414C106.464 30.2414 107.141 29.7884 107.944 28.8826C108.855 27.8783 109.481 26.492 109.823 24.7237C110.164 22.9553 110.335 21.4272 110.335 20.1393C110.335 18.5892 110.203 16.1715 109.94 12.8858C108.154 18.1691 106.59 21.2526 105.248 22.1368C104.721 22.4969 104.217 22.677 103.739 22.677C103.031 22.677 102.378 22.2897 101.78 21.5146C101.132 20.6741 100.808 19.3152 100.808 17.4376C100.808 16.4443 100.898 15.3146 101.078 14.0483C101.318 12.3455 101.438 10.9537 101.438 9.8731C101.438 8.60691 101.276 7.77734 100.952 7.38431C101.947 6.83858 102.768 6.56579 103.415 6.56579C104.11 6.56579 104.619 6.86038 104.943 7.44988C105.29 8.09407 105.464 8.92901 105.464 9.95491C105.464 10.7847 105.35 11.7344 105.123 12.804C104.607 15.2163 104.35 17.1428 104.35 18.5837C104.35 19.2714 104.464 19.6154 104.691 19.6154C104.931 19.6154 105.284 19.277 105.752 18.6001C107.501 16.4498 108.777 13.3989 109.58 9.44743C109.976 7.50457 111.509 6.53294 114.181 6.53294C113.93 7.29714 113.804 8.78714 113.804 11.0029C113.804 11.9197 113.828 12.957 113.876 14.1138C113.948 15.9368 113.984 17.5469 113.984 18.944C113.984 20.5705 113.912 22.1259 113.768 23.6104C113.505 26.5029 112.384 28.6805 110.407 30.1434C109.233 31.0055 108.04 31.4585 106.83 31.5022Z" fill="#EDA177"/>
<path d="M70.4566 64.6968C69.9411 64.6968 69.5337 64.4785 69.2342 64.042C68.9346 63.6054 68.7549 61.8724 68.6951 58.8434C68.6351 55.8142 68.6051 51.8712 68.6051 47.0136C68.6051 46.1078 68.6111 45.251 68.6231 44.443C68.6351 44.2138 68.6412 43.9411 68.6412 43.6243L68.6231 42.5273C67.7002 42.4292 66.9095 42.3801 66.2505 42.3801C65.148 42.3801 64.3812 42.511 63.9497 42.7729C64.0097 41.0046 64.7587 40.1205 66.1965 40.1205C66.3881 40.1205 66.592 40.1369 66.8077 40.1696C69.1683 40.508 71.8285 40.6772 74.7885 40.6772C76.8617 40.6772 78.2092 40.5026 78.8326 40.1532C79.0481 40.4479 79.1563 40.7373 79.1563 41.021C79.1563 41.3485 79.0423 41.6652 78.8143 41.9706C78.4306 42.4728 77.2205 42.7238 75.1838 42.7238C74.7527 42.7238 74.285 42.7131 73.7815 42.6911C73.7581 43.1277 73.4642 47.0465 72.901 54.4471C72.6014 57.4381 72.4517 59.7684 72.4517 61.4385C72.4517 62.7812 72.5474 63.6981 72.7392 64.1894C71.7804 64.5277 71.0198 64.6968 70.4566 64.6968Z" fill="#EDA177"/>
<path d="M81.8244 63.4853C82.1124 63.4853 82.4112 63.387 82.7233 63.1905C83.3583 62.8085 83.9634 62.0935 84.5385 61.0456C84.9938 60.2489 85.3592 59.0535 85.6354 57.4598C85.9109 55.8663 86.0483 54.4528 86.0483 53.2192C86.0483 52.1932 85.9613 51.2409 85.7881 50.3621C85.6142 49.4834 85.1794 48.8639 84.4844 48.5037C83.9817 48.2417 83.5381 48.1108 83.1544 48.1108C82.9988 48.1108 82.762 48.1599 82.4449 48.2581C82.127 48.3563 81.7645 48.6509 81.3575 49.1422C80.6983 49.9391 80.3687 50.8015 80.3687 51.7292C80.3687 52.2859 80.5302 52.8318 80.854 53.3665C81.1777 53.9015 81.5065 54.2289 81.8427 54.349V54.3816C81.8427 55.0694 81.5431 55.4131 80.9439 55.4131C80.7882 55.4131 80.6143 55.3915 80.4228 55.3478C80.854 55.6644 81.0695 56.0844 81.0695 56.6084V56.7722C80.5302 56.7942 80.2606 57.4655 80.2606 58.7861C80.2606 59.9323 80.3629 61.002 80.5661 61.9952C80.6859 62.6394 80.8569 63.0487 81.0783 63.2234C81.3005 63.3979 81.5489 63.4853 81.8244 63.4853ZM82.2563 64.6805C81.5131 64.6805 80.6859 64.5387 79.7754 64.2548C79.0088 64.0256 78.3672 63.5808 77.852 62.9204C77.3368 62.26 77.0043 61.575 76.8545 60.8655C76.7047 60.1561 76.6301 59.5339 76.6301 58.9989C76.6301 58.5296 76.6718 58.0439 76.7558 57.5418C77.0671 55.8172 77.6664 54.671 78.5535 54.1033C77.8461 52.8044 77.4924 51.6583 77.4924 50.6649C77.4924 50.1409 77.5947 49.6554 77.7986 49.2077C78.05 48.6182 78.4271 48.1327 78.9306 47.7504C79.8652 47.0192 81.1653 46.6534 82.8314 46.6534C83.8618 46.6534 84.8264 46.8392 85.7245 47.2102C87.1152 47.7888 88.0199 48.6729 88.4394 49.8627C88.9545 51.3255 89.2118 52.8318 89.2118 54.3816C89.1877 56.3029 88.5826 58.4369 87.3966 60.7837C86.9055 61.7553 86.288 62.6038 85.5455 63.3297C84.8023 64.0556 84.1344 64.4622 83.541 64.5495C82.9484 64.6369 82.5194 64.6805 82.2563 64.6805Z" fill="#EDA177"/>
<path d="M95.9604 64.7296C95.0857 64.7296 94.265 64.2221 93.4977 63.2069C93.1864 62.8032 92.9467 62.2682 92.7794 61.6024C92.6113 60.9366 92.4973 59.9705 92.4374 58.7042C92.3775 57.4381 92.3417 55.6971 92.3292 53.4811C92.3292 51.691 92.3175 50.4684 92.2934 49.8135C92.2693 48.9841 92.2576 48.3072 92.2576 47.7833C91.8382 47.7504 91.4552 47.7341 91.1074 47.7341C90.2685 47.7341 89.6634 47.8215 89.2922 47.996C89.268 47.876 89.2563 47.7561 89.2563 47.6359C89.2563 46.5444 90.2926 45.9003 92.3658 45.7038C92.4016 45.5728 92.4198 45.4254 92.4198 45.2618C92.4198 43.6244 92.2993 42.6365 92.0603 42.2982C92.9584 41.5778 93.8397 41.2176 94.702 41.2176C96.0445 41.2176 96.7153 42.5056 96.7153 45.0816L96.6978 45.5401C98.0278 45.4528 98.9325 45.2891 99.4118 45.0489C99.5675 44.9726 99.7049 44.9343 99.8247 44.9343C100.089 44.9452 100.28 45.1253 100.4 45.4746C100.472 45.6711 100.508 45.8731 100.508 46.0805C100.508 46.4299 100.412 46.8008 100.221 47.1938C99.1181 47.1938 97.9313 47.3085 96.6612 47.5376C96.5779 48.0836 96.3258 49.901 95.9063 52.9899C95.6667 55.1405 95.5468 57.0942 95.5468 58.8516C95.5468 60.9039 95.8223 62.181 96.374 62.683C96.4457 62.7485 96.5297 62.7812 96.6254 62.7812C96.9733 62.7812 97.4702 62.3882 98.1177 61.6024H98.2609C98.9325 61.6024 99.3753 61.8698 99.5916 62.4046C99.6274 62.5138 99.645 62.6174 99.645 62.7157C99.645 63.1742 99.2284 63.6244 98.3961 64.0665C97.563 64.5087 96.7511 64.7296 95.9604 64.7296Z" fill="#EDA177"/>
<path d="M106.412 64.9588C105.62 64.9479 104.872 64.8386 104.165 64.6314C103.146 64.3259 102.451 63.8454 102.08 63.1904C101.912 62.885 101.828 62.6174 101.828 62.3882C101.828 62.1262 101.927 61.9298 102.124 61.7987C102.322 61.6677 102.535 61.6022 102.763 61.6022C103.062 61.6022 103.398 61.7004 103.769 61.897C103.601 62.159 103.518 62.4102 103.518 62.6501C103.518 62.9995 103.682 63.2534 104.012 63.4115C104.341 63.5699 104.878 63.649 105.62 63.649C106.663 63.649 107.49 63.0487 108.101 61.8478C108.245 61.5642 108.317 61.2585 108.317 60.9311C108.317 59.8722 107.556 58.5952 106.034 57.0996C104.045 55.1567 102.876 53.8413 102.529 53.1537C102.181 52.466 102.007 51.8821 102.007 51.4018C102.007 50.9432 102.178 50.321 102.52 49.5352C102.862 48.7492 103.614 48.0725 104.776 47.5048C106.082 46.8826 107.448 46.5716 108.874 46.5716C109.497 46.5716 110.096 46.6371 110.671 46.7681C113.224 47.292 114.5 48.7602 114.5 51.1724C114.5 52.1769 114.105 52.6789 113.314 52.6789C112.571 52.6789 111.941 52.2751 111.426 51.4672C111.666 51.0634 111.786 50.7141 111.786 50.4193C111.762 49.7971 111.199 49.426 110.096 49.306C109.857 49.2732 109.623 49.2568 109.395 49.2568C108.125 49.2568 107.208 49.6335 106.646 50.3866C106.453 50.6705 106.358 50.9706 106.358 51.2871C106.369 52.0295 106.944 52.8916 108.083 53.8742C109.701 55.2715 110.899 56.6575 111.678 58.0329C112.253 59.0808 112.541 60.0141 112.541 60.8328C112.541 61.7278 111.944 62.6394 110.753 63.5671C109.56 64.4949 108.113 64.9588 106.412 64.9588Z" fill="#EDA177"/>
</g>
<defs>
<clipPath id="clip0_316_35">
<rect width="114" height="86" fill="white" transform="translate(0.5)"/>
</clipPath>
</defs>
</svg>
