<svg width="120" height="138" viewBox="0 0 120 138" fill="none" xmlns="http://www.w3.org/2000/svg">
<g id="Group">
<path id="Vector" opacity="0.78" d="M118.019 102.396C118.019 103.516 117.243 104.895 116.295 105.455L61.9536 137.579C61.0029 138.14 59.4503 138.14 58.5031 137.579L4.16021 105.455C3.20947 104.894 2.43378 103.516 2.43378 102.396V38.1469C2.43378 37.0249 3.20947 35.6476 4.16021 35.0866L58.5031 2.96214C59.4503 2.40114 61.0029 2.40114 61.9536 2.96214L116.295 35.0866C117.241 35.6476 118.019 37.0249 118.019 38.1469V102.396Z" fill="white"/>
<path id="Vector_2" d="M116.603 101.609C116.603 102.704 115.846 104.047 114.924 104.593L61.9117 135.932C60.9849 136.478 59.4695 136.478 58.5451 135.932L5.53298 104.593C4.60622 104.047 3.8497 102.703 3.8497 101.609V38.9325C3.8497 37.8375 4.60622 36.4958 5.53298 35.9471L58.5451 4.60955C59.4683 4.06205 60.9837 4.06205 61.9117 4.60955L114.924 35.9471C115.847 36.4946 116.603 37.8375 116.603 38.9325V101.609Z" fill="#8CD4FA"/>
<path id="Vector_3" d="M63.8467 14.6499H56.6436V28.0881H63.8467V14.6499Z" fill="#001244"/>
<g id="Group_2">
<g id="Clip path group">
<mask id="mask0_232_3247" style="mask-type:luminance" maskUnits="userSpaceOnUse" x="0" y="1" width="113" height="133">
<g id="SVGID_00000143605644468566517390000011144532582824829609_">
<path id="Vector_4" d="M112.754 99.0695C112.754 100.165 111.996 101.508 111.074 102.055L58.0608 133.393C57.134 133.939 55.621 133.939 54.6942 133.393L1.68328 102.055C0.75652 101.509 0 100.165 0 99.0695V36.3932C0 35.2995 0.75652 33.9553 1.68328 33.4078L54.6942 2.07148C55.6198 1.52398 57.134 1.52398 58.0608 2.07148L111.074 33.4078C111.997 33.9553 112.754 35.2983 112.754 36.3932V99.0695Z" fill="white"/>
</g>
</mask>
<g mask="url(#mask0_232_3247)">
<path id="Vector_5" opacity="0.5" d="M116 81.2469L45.0238 132L24.9987 122.408L3 108.796L4 42.6013L21.0652 31.0963L23.4607 29.8495L31.4053 29.71L33.8008 31.9283L37.3734 29.3409L47.4204 30.1272L51.1996 32.3406L63.1345 23.8081L71.2566 18L116 81.2469Z" fill="url(#paint0_linear_232_3247)"/>
</g>
</g>
</g>
<g id="Group_3">
<g id="Group_4">
<g id="Group_5">
<g id="Group_6">
<path id="Vector_6" d="M113.175 14.8942C112.084 15.3128 111.626 15.6 111.404 15.8492C111.224 16.0505 110.766 16.7012 110.771 18.1288C110.774 19.1428 110.591 25.714 112.197 29.9258C112.358 30.2536 112.665 30.1382 112.826 29.8878C113.036 29.5686 113.372 27.3123 113.146 27.1294C112.918 26.9502 112.447 26.7538 112.237 26.3622C112.024 25.9681 112.29 19.0495 112.412 18.7009C112.536 18.3473 112.944 18.4087 113.238 18.4566C113.007 16.8485 113.175 14.8942 113.175 14.8942Z" fill="#001244"/>
</g>
</g>
</g>
<g id="Group_7">
<path id="Vector_7" d="M119.184 19.0016H72.4381C71.9861 19.0016 71.6216 19.376 71.6216 19.8388V81.8964C71.6216 82.358 71.9861 82.7324 72.4381 82.7324H119.184C119.636 82.7324 120 82.358 120 81.8964V19.8388C120 19.3773 119.636 19.0016 119.184 19.0016Z" fill="#F27B57"/>
<path id="Vector_8" d="M113.749 68.7786C113.736 68.7921 108.513 74.4954 108.565 74.4954H78.4781C78.1437 74.4954 77.8739 74.2204 77.8739 73.8779V27.8574C77.8739 27.5149 78.1437 27.2399 78.4781 27.2399H113.146C113.479 27.2399 113.749 27.5161 113.749 27.8574V68.7786Z" fill="white"/>
<path id="Vector_9" d="M104.237 17.5052H87.3848C86.9724 17.5052 86.6391 17.8489 86.6391 18.2712C86.6391 18.6935 86.9724 19.036 87.3848 19.036H88.6868C88.5106 19.3171 88.4039 19.6498 88.4039 20.0095C88.4039 21.0087 89.1952 21.8189 90.1723 21.8189H101.452C102.426 21.8189 103.22 21.0087 103.22 20.0095C103.22 19.6498 103.112 19.3171 102.936 19.036H104.238C104.65 19.036 104.984 18.6923 104.984 18.2712C104.982 17.8489 104.649 17.5052 104.237 17.5052Z" fill="#BC0202"/>
<path id="Vector_10" d="M108.517 34.0885H83.1048V35.1455H108.517V34.0885Z" fill="#94B0B7"/>
<path id="Vector_11" d="M108.517 38.6244H83.1048V39.6801H108.517V38.6244Z" fill="#94B0B7"/>
<path id="Vector_12" d="M108.517 43.477H83.1048V44.5327H108.517V43.477Z" fill="#94B0B7"/>
<path id="Vector_13" d="M108.517 48.0141H83.1048V49.0686H108.517V48.0141Z" fill="#94B0B7"/>
<path id="Vector_14" d="M108.517 52.8655H83.1048V53.9212H108.517V52.8655Z" fill="#94B0B7"/>
<path id="Vector_15" d="M108.517 57.4039H83.1048V58.4596H108.517V57.4039Z" fill="#94B0B7"/>
<path id="Vector_16" d="M108.517 62.2565H83.1048V63.3122H108.517V62.2565Z" fill="#94B0B7"/>
<g id="Group_8">
<path id="Vector_17" d="M109.151 68.7602H113.762L108.544 74.5126V69.3813C108.544 69.0388 108.817 68.7602 109.151 68.7602Z" fill="#BDDFEF"/>
</g>
</g>
<g id="Group_9">
<g id="Group_10">
<path id="Vector_18" d="M115.879 60.3169C115.879 60.3169 115.508 61.2351 115.319 61.2351C115.135 61.2351 114.733 60.2862 114.733 60.2862L115.879 60.3169Z" fill="#001244"/>
<path id="Vector_19" d="M115.879 60.3427C116.331 59.3042 116.707 56.083 116.753 55.4606L113.883 55.4753C113.913 56.4623 114.502 59.6847 114.743 60.3562C115.406 60.3488 115.794 60.3488 115.879 60.3427Z" fill="white"/>
<path id="Vector_20" d="M116.738 55.5637C117.035 54.06 117.615 32.419 117.615 32.419L112.829 32.4117C112.829 32.4117 113.613 54.0735 113.912 55.5821C115.613 55.6141 116.445 55.5711 116.738 55.5637Z" fill="#001244"/>
<path id="Vector_21" d="M115.232 15.0893H115.248C115.248 15.0893 115.247 15.0893 115.25 15.0869L117.646 14.9224C117.646 14.7125 117.825 11.7994 115.248 11.754C115.24 11.754 115.236 11.754 115.232 11.754C115.227 11.754 115.223 11.754 115.218 11.754C112.64 11.7994 112.821 14.7125 112.821 14.9224L115.216 15.0869C115.216 15.0893 115.218 15.0893 115.218 15.0893H115.232Z" fill="#F27B57"/>
<path id="Vector_22" d="M115.221 31.7365L115.892 31.8077V31.6653L117.656 31.6076C117.656 31.4603 117.795 15.217 117.628 14.4301C116.514 14.4044 115.722 14.4044 115.222 14.413C114.721 14.4056 113.93 14.4056 112.818 14.4301C112.648 15.217 112.894 31.3154 112.894 31.4627L114.552 31.6641V31.8065L115.221 31.7365Z" fill="#001244"/>
<path id="Vector_23" d="M112.797 32.6412C112.741 32.6412 112.695 32.5983 112.695 32.543V31.3154C112.695 31.2614 112.741 31.216 112.797 31.216H117.794C117.848 31.216 117.896 31.2614 117.896 31.3154V32.543C117.896 32.5983 117.848 32.6412 117.794 32.6412H112.797Z" fill="white"/>
</g>
</g>
</g>
<path id="Vector_24" opacity="0.5" d="M82.5365 57.3314C82.5365 51.9952 78.3115 47.668 73.0999 47.668C71.3387 47.668 69.605 48.4438 68.1951 49.3019L49.5101 63.2827L56.7587 82.7312L74.8383 68.2654C79.6998 64.2807 82.5365 62.1742 82.5365 57.3314Z" fill="url(#paint1_linear_232_3247)"/>
<g id="Group_11">
<path id="Vector_25" d="M65.8225 57.2627C65.8225 52.9993 69.1962 49.5437 73.3601 49.5437C77.5239 49.5437 80.8988 52.9993 80.8988 57.2627C80.8988 61.5261 77.5239 64.9817 73.3601 64.9817C69.1974 64.9805 65.8225 61.5261 65.8225 57.2627Z" fill="#205F89"/>
<g id="Group_12">
<g id="Group_13">
<g id="Group_14">
<g id="Group_15">
<path id="Vector_26" d="M77.0179 64.5569C78.9889 70.0025 81.28 77.3004 81.2848 85.0513C81.2848 88.858 80.7297 92.7801 79.2922 96.6273C78.236 99.4213 76.5539 101.816 74.4798 103.755C72.8661 107.3 69.9827 110.341 66.5011 112.613C62.3996 115.283 57.4397 116.904 52.5458 116.908C50.0856 116.908 47.641 116.496 45.3487 115.579C38.907 113.02 35.5524 108.654 33.9411 104.418C32.3166 100.19 32.4161 96.1805 32.3346 93.9451L35.6831 93.7904C35.4493 96.0541 34.8643 99.7663 36.291 103.47C37.7297 107.165 40.4524 110.827 46.2671 113.17C48.2321 113.956 50.3602 114.323 52.5446 114.32C56.8882 114.325 61.4369 112.852 65.1439 110.433C66.4423 109.589 67.6317 108.634 68.6747 107.593C66.0227 108.779 63.1753 109.409 60.4022 109.416C57.4013 109.416 54.4604 108.67 51.9715 107.018C49.4838 105.371 47.484 102.808 46.3978 99.3673C45.7168 97.2301 45.3991 95.1972 45.3991 93.2908C45.3907 88.6739 47.3041 84.834 50.2654 82.2475C53.2208 79.6512 57.1868 78.2542 61.3566 78.2542C62.5902 78.2542 63.8431 78.3782 65.096 78.6299C71.4837 79.9286 76.3129 86.4532 76.3081 94.7872C76.3081 95.6649 76.2542 96.5647 76.1439 97.4805C76.4424 96.9109 76.7074 96.3168 76.9328 95.7042C78.242 92.1983 78.7599 88.599 78.7599 85.0513C78.7647 77.6613 76.4928 70.5144 74.5254 65.1118L77.0179 64.5569ZM51.9091 84.2092C49.4706 86.3648 47.9324 89.4006 47.9228 93.2896C47.9228 94.9014 48.1949 96.6629 48.798 98.5681C49.7343 101.492 51.3373 103.508 53.3466 104.848C55.356 106.182 57.8054 106.83 60.4034 106.83C64.5756 106.842 69.038 105.139 72.4033 102.182C72.5544 101.81 72.6886 101.436 72.8049 101.056C73.4775 98.8566 73.7797 96.7501 73.7797 94.7872C73.7725 87.4426 69.5775 82.1481 64.6116 81.166C63.5194 80.9475 62.4272 80.8407 61.3566 80.8407C61.3542 80.8407 61.353 80.8407 61.3506 80.8407C57.7299 80.8407 54.3489 82.0609 51.9091 84.2092Z" fill="#001244"/>
</g>
</g>
<g id="Group_16">
<path id="Vector_27" d="M73.2749 48.1062C68.3186 48.1062 64.3023 52.2186 64.3023 57.2897C64.3023 62.362 68.3198 66.4757 73.2749 66.4757C78.2276 66.4757 82.2428 62.362 82.2428 57.2897C82.244 52.2186 78.2276 48.1062 73.2749 48.1062ZM73.3924 64.2525C69.5847 64.2525 66.4987 61.0903 66.4987 57.194C66.4987 53.2939 69.5847 50.1354 73.3924 50.1354C77.1977 50.1354 80.2849 53.2939 80.2849 57.194C80.2849 61.0903 77.1977 64.2525 73.3924 64.2525Z" fill="#94B0B7"/>
<g id="Group_17">
<path id="Vector_28" d="M73.4787 51.4956C70.5174 51.4956 68.1148 53.9568 68.1148 56.9902C68.1148 60.0235 70.5174 62.4848 73.4787 62.4848C76.4448 62.4848 78.8451 60.0235 78.8451 56.9902C78.8451 53.9568 76.4448 51.4956 73.4787 51.4956ZM73.4787 60.6643C71.4981 60.6643 69.8904 59.0194 69.8904 56.9902C69.8904 54.9598 71.4981 53.3148 73.4787 53.3148C75.4629 53.3148 77.0695 54.9598 77.0695 56.9902C77.0695 59.0206 75.4629 60.6643 73.4787 60.6643Z" fill="white"/>
<path id="Vector_29" d="M76.5 56.9902C76.5 58.6977 75.1488 60.0812 73.4811 60.0812C71.811 60.0812 70.4623 58.6977 70.4623 56.9902C70.4623 55.2814 71.8122 53.8967 73.4811 53.8967C75.1488 53.8979 76.5 55.2826 76.5 56.9902Z" fill="white"/>
</g>
</g>
<g id="Group_18">
<g id="Group_19">
<path id="Vector_30" d="M20.7184 65.1928C20.4067 64.2942 19.0004 64.4808 17.8254 64.9841C16.8855 65.3868 17.3794 66.4781 17.5892 67.3926C17.7499 68.0924 19.7485 75.8359 21.5013 79.8194C23.0335 83.3032 26.6002 89.0323 34.5166 88.6174C39.9657 88.3338 42.9581 86.161 45.6245 79.9458C48.3245 73.657 50.2307 66.6217 50.2859 65.9674C50.3374 65.3659 50.1 64.9571 49.286 64.7779C48.4731 64.6011 47.7202 64.4207 47.4708 64.897C47.2203 65.3721 43.9221 77.4563 42.1213 80.4921C40.3505 83.4751 38.5414 85.6405 34.392 85.5865C30.3672 85.5374 26.02 84.2902 23.344 74.817C21.1224 66.9532 20.7184 65.1928 20.7184 65.1928Z" fill="#001244"/>
</g>
<g id="Group_20">
<path id="Vector_31" d="M19.2497 63.4472C17.9513 58.7652 15.9863 50.9837 15.9875 44.1559C15.9875 43.7213 15.9959 43.2966 16.0126 42.8853C16.3327 34.9356 19.7077 32.2177 21.9484 31.739C22.8512 31.545 23.905 31.4677 24.9769 31.4701C26.7992 31.4701 28.6599 31.68 29.9979 31.8016L30.1238 30.6673H30.1214C28.8086 30.5494 26.8987 30.3322 24.9757 30.3322C23.8403 30.3322 22.6989 30.407 21.6523 30.6341C18.6299 31.2958 15.0619 34.652 14.7502 42.8448C14.7322 43.2733 14.725 43.7103 14.725 44.1571C14.7298 51.2672 16.3567 58.3196 17.8901 63.7873L19.2497 63.4472Z" fill="white"/>
<g id="Group_21">
<path id="Vector_32" d="M28.5496 32.5565C28.3578 32.4718 28.2679 32.1085 28.287 31.4738C28.3074 30.8391 28.3626 30.024 28.6755 29.8964C28.9896 29.7687 30.3216 29.2543 31.3635 29.3231C32.3514 29.3894 33.4052 29.8153 33.5083 31.1964C33.5922 32.295 33.1678 33.4674 31.3862 33.4907C29.6778 33.5165 28.5496 32.5565 28.5496 32.5565Z" fill="#001244"/>
</g>
</g>
<g id="Group_22">
<path id="Vector_33" d="M53.6656 43.0388C53.5433 34.8423 50.0545 31.4186 47.0488 30.698C46.0045 30.4525 44.8668 30.3567 43.7302 30.3346C41.8096 30.299 39.8913 30.4807 38.5785 30.5728L38.678 31.7095C40.0172 31.6137 41.8839 31.4394 43.7038 31.4726C44.7769 31.4934 45.8283 31.588 46.7263 31.8016C48.9551 32.3196 52.264 35.1037 52.4019 43.0547C52.4091 43.4684 52.4067 43.8907 52.3947 44.3253C52.2413 51.2243 49.9861 58.9371 48.557 63.5663C48.8472 63.6166 49.8087 63.8597 50.1144 63.9149C51.4955 59.1753 53.4929 51.3593 53.6584 44.3498C53.6728 43.903 53.6728 43.466 53.6656 43.0388Z" fill="white"/>
<g id="Group_23">
<path id="Vector_34" d="M40.6814 32.3908C40.8696 32.2987 40.9451 31.9329 40.8984 31.2983C40.854 30.6648 40.7665 29.8546 40.4476 29.7405C40.1299 29.6238 38.7739 29.1672 37.7381 29.2826C36.7538 29.3906 35.7191 29.862 35.6699 31.2479C35.6328 32.3466 36.1039 33.5018 37.8867 33.449C39.594 33.3986 40.6814 32.3908 40.6814 32.3908Z" fill="#001244"/>
</g>
</g>
</g>
<g id="Group_24">
<g id="Group_25">
<path id="Vector_35" d="M29.7761 89.435C29.8924 89.7234 32.373 95.9534 32.373 95.9534H35.4578C35.4578 95.9534 37.804 89.624 37.8783 89.4215C37.0355 89.6633 35.598 89.9874 34.5813 90.0058C32.5384 90.0426 31.4042 89.9272 29.7761 89.435Z" fill="#001244"/>
</g>
</g>
</g>
</g>
</g>
<g id="Group_26">
<g id="Group_27">
<g id="Group_28">
<path id="Vector_36" d="M57.948 39.2284C57.484 38.9399 57.0021 38.5102 56.6484 38.1616C57.6951 44.065 59.3435 51.4624 59.3244 62.6567L60.7283 62.6444C60.5269 51.3728 62.3025 43.833 63.234 37.9321C62.8851 38.3175 62.2257 38.9767 61.4656 39.3695C60.5509 39.8434 59.1481 39.9797 57.948 39.2284Z" fill="#8CD4FA"/>
<path id="Vector_37" d="M59.4802 64.1076C59.485 64.4833 59.7116 64.7853 59.9958 64.7816H60.1216C60.4046 64.7779 60.63 64.4747 60.6276 64.0978L60.7343 62.5339H59.3711L59.4802 64.1076Z" fill="white"/>
<path id="Vector_38" d="M61.6251 8.29718C61.239 9.5849 61.552 6.678 59.6769 6.76271C57.8233 6.84618 57.1867 9.94213 56.7911 8.75752C56.5285 7.96082 55.0095 8.08112 54.3369 7.568C54.2614 7.95223 54.229 8.50955 54.2014 8.96989C53.6272 18.4959 56.2312 36.6296 56.5333 38.0585C56.5333 38.0585 57.2659 38.7877 58.1183 39.3204C59.2716 40.0435 60.6192 39.9121 61.4956 39.4592C62.5746 38.8994 63.264 37.8744 63.264 37.8744C63.5338 36.4418 65.6199 18.313 64.8466 8.80048C64.8142 8.42116 64.7782 8.06148 64.7423 7.71285C63.5386 8.11918 61.9512 7.21077 61.6251 8.29718ZM62.0375 16.9921L62.1154 25.9988C62.1202 26.604 61.6659 27.0999 61.0964 27.1024L58.3809 27.1282C57.8114 27.1331 57.3486 26.6457 57.3438 26.0418L57.2647 17.0351C57.2623 16.4299 57.7166 15.9339 58.2837 15.929L61.0029 15.9045C61.5699 15.9008 62.0351 16.3869 62.0375 16.9921Z" fill="white"/>
<path id="Vector_39" d="M59.539 22.8845L59.0558 22.8869L59.0594 23.3804L59.5402 23.3792L59.539 22.8845ZM59.5354 21.1131L59.051 21.1143L59.0534 21.609L59.5366 21.6078L59.5354 21.1131ZM59.0091 25.8822L60.4022 25.8785C60.853 25.8773 61.2139 25.5385 61.2139 25.1236L61.1911 17.7336C61.1899 17.3174 60.8242 16.9823 60.3746 16.9847L58.9779 16.9896C58.5295 16.9896 58.1638 17.3285 58.1662 17.7446L58.1878 25.1321C58.1914 25.5471 58.5571 25.8834 59.0091 25.8822ZM58.8065 19.8082L59.0019 19.6105L59.1697 19.6093V19.8573L59.0498 19.8585L59.051 20.352L59.5342 20.3507L59.5318 20.1028L59.7752 20.1015V20.3483H60.2571V19.8536L60.1325 19.856L60.1348 19.6081H60.3015L60.4969 19.8045V20.3986L60.3063 20.5963L59.7284 20.5999L59.6553 20.5251L59.5822 20.5999H59.0031L58.8112 20.4035L58.8065 19.8082ZM58.8112 21.0652L59.0031 20.8676L60.3075 20.8639L60.5017 21.0603V21.6544L60.3123 21.8533L60.1408 21.8545L60.1432 21.6053H60.2631L60.2583 21.1118H59.7788L59.78 21.6569L59.5857 21.8545L59.0067 21.857L58.8112 21.6593V21.0652ZM58.8136 22.1246H59.0534L59.0558 22.3713L58.816 22.3726L58.8136 22.1246ZM58.816 22.8366L59.0079 22.6389L60.3123 22.634L60.5065 22.8329V23.4258L60.3147 23.6247H60.1456L60.1432 23.3767H60.2655V22.8845L59.7824 22.8857L59.7836 23.4295L59.5893 23.6284H59.0115L58.8172 23.4307V22.8366H58.816Z" fill="#94B0B7"/>
<path id="Vector_40" d="M57.5201 11.0776C57.4949 9.86479 58.4264 8.98462 59.6145 8.98094C60.7991 8.97603 61.7414 9.94581 61.745 11.1611C61.7474 11.3624 61.8229 11.4484 61.775 11.635C62.0064 11.1992 62.0687 10.6013 62.1934 10.1766C62.5315 9.03004 64.0157 7.79387 64.7543 7.74109C63.981 0.705854 61.9836 0.0380548 59.6637 0L59.6385 0.00736492C57.2395 0.00982007 54.9892 0.901041 54.3238 7.70303C54.452 7.77914 56.525 9.07423 56.7803 9.8918C56.9817 10.5228 57.2719 11.4815 57.5045 11.6337C57.5045 11.6337 57.526 11.4754 57.5201 11.0776Z" fill="#F27B57"/>
<path id="Vector_41" d="M60.6672 11.2164C60.6672 11.7577 60.2427 12.196 59.7116 12.1996C59.1853 12.2021 58.7549 11.7651 58.7525 11.2262C58.7501 10.6848 59.1769 10.2453 59.7044 10.2429C60.2344 10.2392 60.6636 10.6762 60.6672 11.2164Z" fill="#F27B57"/>
</g>
</g>
</g>
</g>
<defs>
<linearGradient id="paint0_linear_232_3247" x1="12.082" y1="119.278" x2="94.2174" y2="41.1211" gradientUnits="userSpaceOnUse">
<stop offset="0.1813" stop-color="white"/>
<stop offset="0.2842" stop-color="#E6E6E6"/>
<stop offset="0.5036" stop-color="#A5A5A5"/>
<stop offset="0.8192" stop-color="#3E3E3E"/>
<stop offset="1"/>
</linearGradient>
<linearGradient id="paint1_linear_232_3247" x1="51.6667" y1="77.8695" x2="78.7452" y2="49.5096" gradientUnits="userSpaceOnUse">
<stop offset="0.1813" stop-color="white"/>
<stop offset="0.2842" stop-color="#E6E6E6"/>
<stop offset="0.5036" stop-color="#A5A5A5"/>
<stop offset="0.8192" stop-color="#3E3E3E"/>
<stop offset="1"/>
</linearGradient>
</defs>
</svg>
