<svg width="120" height="138" viewBox="0 0 120 138" fill="none" xmlns="http://www.w3.org/2000/svg">
<g id="Group">
<path id="Vector" opacity="0.78" d="M120 101.729C120 102.869 119.195 104.274 118.213 104.845L61.7906 137.571C60.8048 138.143 59.194 138.143 58.2094 137.571L1.78997 104.845C0.802886 104.274 0 102.869 0 101.729V36.2738C0 35.1308 0.802886 33.7289 1.78997 33.1573L58.2094 0.428649C59.194 -0.142883 60.8048 -0.142883 61.7906 0.428649L118.213 33.1573C119.195 33.7289 120 35.1308 120 36.2738V101.729Z" fill="white"/>
<path id="Vector_2" d="M118.53 100.931C118.53 102.043 117.745 103.409 116.787 103.97L61.7458 135.894C60.7848 136.451 59.2127 136.451 58.253 135.894L3.21396 103.97C2.25177 103.411 1.46634 102.043 1.46634 100.931V37.0755C1.46634 35.9612 2.25177 34.5917 3.21396 34.034L58.253 2.10946C59.2127 1.55169 60.7836 1.55169 61.7458 2.10946L116.787 34.034C117.746 34.5905 118.53 35.9612 118.53 37.0755V100.931Z" fill="#8CD4FA"/>
<g id="Group_2">
<g id="Clip path group">
<mask id="mask0_222_1842" style="mask-type:luminance" maskUnits="userSpaceOnUse" x="1" y="1" width="118" height="136">
<g id="SVGID_00000181059982636898880610000011170567608352401536_">
<path id="Vector_3" d="M118.717 101.116C118.717 102.23 117.929 103.595 116.972 104.155L61.9325 136.082C60.9703 136.638 59.3982 136.638 58.4385 136.082L3.39819 104.155C2.436 103.596 1.65057 102.23 1.65057 101.116V37.2606C1.65057 36.1463 2.436 34.7793 3.39819 34.2191L58.4385 2.29455C59.3969 1.73678 60.9691 1.73678 61.9325 2.29455L116.972 34.2191C117.929 34.7781 118.717 36.1463 118.717 37.2606V101.116Z" fill="white"/>
</g>
</mask>
<g mask="url(#mask0_222_1842)">
<path id="Vector_4" opacity="0.5" d="M33.4675 45.4146L49.6792 33.8051L67.5699 43.3536L82.1049 34.9282L88.0672 52.717L110.616 88.4759L23.9639 134.91L-4.36285 102.892L-3.98815 51.4989L20.8645 37.4094L33.4675 45.4146Z" fill="url(#paint0_linear_222_1842)"/>
</g>
</g>
<g id="Clip path group_2">
<mask id="mask1_222_1842" style="mask-type:luminance" maskUnits="userSpaceOnUse" x="1" y="1" width="118" height="136">
<g id="SVGID_00000181059982636898880610000011170567608352401536__2">
<path id="Vector_5" d="M118.717 101.116C118.717 102.23 117.929 103.595 116.972 104.155L61.9325 136.082C60.9703 136.638 59.3982 136.638 58.4385 136.082L3.39819 104.155C2.436 103.596 1.65057 102.23 1.65057 101.116V37.2606C1.65057 36.1463 2.436 34.7793 3.39819 34.2191L58.4385 2.29455C59.3969 1.73678 60.9691 1.73678 61.9325 2.29455L116.972 34.2191C117.929 34.7781 118.717 36.1463 118.717 37.2606V101.116Z" fill="white"/>
</g>
</mask>
<g mask="url(#mask1_222_1842)">
<path id="Vector_6" opacity="0.5" d="M49.1203 131.162L32.0697 140.713L-5.66486 108.698L19.5861 93.2245L49.1203 131.162Z" fill="url(#paint1_linear_222_1842)"/>
</g>
</g>
</g>
<path id="Vector_7" d="M36.8993 43.0222L43.0335 69.1126L30.4914 66.7139L30.3569 53.4998L36.8993 43.0222Z" fill="#205F89"/>
<path id="Vector_8" d="M18.2244 44.9381L12.9081 68.7686L25.5871 76.3711L24.7693 48.0221L18.2244 44.9381Z" fill="#001244"/>
<path id="Vector_9" d="M46.3047 72.1928V71.9877C45.3848 65.8259 41.6356 66.6451 32.4021 62.2667L23.8805 62.403C15.4287 66.1686 10.2493 67.5368 10.1111 73.0157L9.08917 82.259H47.1884L46.3047 72.1928Z" fill="white"/>
<g id="Group_3">
<path id="Vector_10" d="M23.6415 58.6011C23.5419 60.2432 22.5175 63.6323 20.9852 64.7642C22.6196 67.6393 26.3003 70.7221 27.9371 70.9272C27.8338 64.6616 27.9371 58.6024 27.9371 58.6024H23.6415V58.6011Z" fill="#94B0B7"/>
<path id="Vector_11" d="M32.1295 58.6011C32.2328 60.2432 33.2535 63.6323 34.7882 64.7642C33.1514 67.6393 29.4707 70.7221 27.8351 70.9272C27.9384 64.6616 27.8351 58.6024 27.8351 58.6024H32.1295V58.6011Z" fill="white"/>
</g>
<path id="Vector_12" opacity="0.4" d="M32.5738 59.1464L20.8346 74.2363L14.1018 68.9487L25.841 53.86L32.5738 59.1464Z" fill="url(#paint2_linear_222_1842)"/>
<g id="Group_4">
<path id="Vector_13" d="M20.4724 42.4994C19.5525 44.209 20.0181 46.4639 20.1363 48.7675C19.5687 48.9188 19.2351 49.3265 19.2351 50.4308C19.2351 52.0704 19.9683 54.6579 21.1134 55.0256C21.2591 55.4258 21.4234 55.8122 21.6001 56.1861C21.6126 56.2112 21.625 56.2299 21.6362 56.2487C22.0308 57.0516 22.4714 57.7769 22.9519 58.421C23.1834 58.7312 23.4225 59.0213 23.6689 59.2927C24.9361 60.6771 26.4148 61.52 28.0068 61.6589V38.156C25.3394 38.1723 21.9599 39.7418 20.4724 42.4994Z" fill="#94B0B7"/>
<path id="Vector_14" d="M27.9259 38.1572V61.6601C29.5142 61.5213 30.9967 60.6783 32.2626 59.2939C32.5091 59.0225 32.7506 58.7324 32.9796 58.4222C33.4576 57.7769 33.902 57.0516 34.2953 56.2499C34.3065 56.2312 34.3214 56.2124 34.3314 56.1874C34.5082 55.8134 34.6712 55.4283 34.8169 55.0268C35.9645 54.6591 36.6977 52.0716 36.6977 50.432C36.6977 49.3277 36.3628 48.92 35.7965 48.7687C35.9147 46.4651 36.379 44.2102 35.4604 42.5006C33.9742 39.7418 30.5922 38.1722 27.9259 38.1572Z" fill="white"/>
</g>
<path id="Vector_15" d="M27.9384 37.6471C26.0974 37.0305 21.9661 37.7158 20.1662 40.0095C17.5099 43.3986 17.612 49.9231 17.612 49.9231L20.9865 49.4604C20.9865 49.4604 21.9748 45.2833 25.653 43.8464C28.4288 42.7596 27.9384 37.6471 27.9384 37.6471Z" fill="#001244"/>
<path id="Vector_16" d="M24.1543 40.8311C24.7693 43.9114 30.8337 44.3216 32.8788 45.3483C34.9252 46.3763 34.8891 49.3541 34.8891 49.3541L36.628 48.8413C36.628 48.8413 38.6744 42.8734 34.8891 39.4942C31.2096 36.2063 27.2214 37.542 25.5871 37.9534C23.9502 38.3649 24.1543 40.8311 24.1543 40.8311Z" fill="#205F89"/>
<g id="Group_5">
<path id="Vector_17" d="M34.9513 37.2168C32.4681 35.5897 30.0831 34.9719 27.9733 34.8744H27.7505C25.6443 34.9719 23.2556 35.5897 20.7736 37.2168C21.9387 40.3308 22.7677 42.2793 22.7677 42.2793C24.5627 41.6427 26.1721 41.3588 27.8625 41.3789C29.5516 41.3576 31.1636 41.6427 32.9547 42.2793C32.9547 42.2793 33.7862 40.3308 34.9513 37.2168Z" fill="white"/>
<g id="Group_6">
<g id="Group_7">
<path id="Vector_18" d="M29.8142 37.3531H28.7823C28.7587 37.3531 28.7425 37.3381 28.7425 37.3168V36.2776C28.7425 36.2376 28.7114 36.2038 28.6703 36.2038H27.3135C27.2712 36.2038 27.2388 36.2376 27.2388 36.2776V37.3168C27.2388 37.3394 27.2202 37.3531 27.199 37.3531H26.1671C26.1273 37.3531 26.0949 37.3881 26.0949 37.4307V38.7926C26.0949 38.8339 26.126 38.8689 26.1671 38.8689H27.199C27.2214 38.8689 27.2388 38.8864 27.2388 38.9064V39.9444C27.2388 39.9844 27.2712 40.0182 27.3135 40.0182H28.6703C28.7102 40.0182 28.7425 39.9857 28.7425 39.9444V38.9064C28.7425 38.8851 28.7599 38.8689 28.7823 38.8689H29.8142C29.8565 38.8689 29.8889 38.8351 29.8889 38.7926V37.4307C29.8889 37.3894 29.8565 37.3531 29.8142 37.3531Z" fill="#F26D3E"/>
</g>
</g>
</g>
<g id="Group_8">
<path id="Vector_19" d="M108.96 79.4695V79.2619C108.019 72.9763 106.438 72.0445 97.0177 67.5798L84.7134 67.8412C75.2906 71.0478 72.8771 73.1813 72.0431 80.3086L71 89.7408H109.861L108.96 79.4695Z" fill="white"/>
<g id="Group_9">
<path id="Vector_20" d="M85.3918 64.5909L84.5566 67.7349L90.372 72.4473L90.1866 65.1161L85.3918 64.5909Z" fill="#94B0B7"/>
<path id="Vector_21" d="M95.0635 64.6972L95.8975 67.8412L90.0845 72.5523L90.2675 65.2199L95.0635 64.6972Z" fill="white"/>
</g>
<path id="Vector_22" d="M84.8516 66.6444C85.4279 67.3772 88.6667 69.7484 90.4194 69.5608C92.1682 69.377 95.0759 67.8049 95.6535 66.5468C96.1352 67.0721 97.8007 67.8925 97.8007 67.8925L90.0845 75.7063L82.8886 68.5741L84.8516 66.6444Z" fill="#94B0B7"/>
<path id="Vector_23" opacity="0.4" d="M95.1419 65.4738L86.2046 76.962L80.058 72.1346L88.9953 60.6502L95.1419 65.4738Z" fill="url(#paint3_linear_222_1842)"/>
<g id="Group_10">
<g id="Group_11">
<g id="Group_12">
<g id="Group_13">
<path id="Vector_24" d="M84.7533 64.6534C84.9885 64.9711 85.2337 65.2687 85.4864 65.5426C85.4877 65.5389 85.4914 65.5314 85.4914 65.5226C85.2375 65.2562 84.991 64.9611 84.7533 64.6534Z" fill="white"/>
</g>
<path id="Vector_25" d="M99.6367 56.6219C99.6367 55.5614 99.3317 55.13 98.809 54.9561C98.9347 52.7838 99.2471 50.4839 98.4542 48.8906C96.948 45.8491 92.7869 43.982 89.9463 43.982C87.2216 43.982 83.7487 45.5853 82.2239 48.4129C81.2854 50.1613 81.7596 52.4562 81.8829 54.8048C81.3016 54.9599 80.963 55.3751 80.963 56.5006C80.963 58.1727 81.7123 60.814 82.8812 61.1892C83.028 61.5982 83.1961 61.9896 83.3766 62.3723C83.3878 62.3948 83.4015 62.4161 83.4114 62.4348C83.8135 63.2515 84.2653 63.9943 84.7533 64.6509C84.9898 64.9586 85.2374 65.2537 85.4914 65.5201C85.4914 65.5288 85.4876 65.5364 85.4864 65.5401C86.9004 67.0846 88.5759 67.9826 90.3758 67.9826C93.1279 67.9826 95.5876 65.8965 97.2568 62.5974C97.385 62.351 97.5294 62.1309 97.6899 61.9346C97.7883 61.6882 97.8841 61.4443 97.965 61.1905C98.9932 60.5539 99.6367 58.1727 99.6367 56.6219Z" fill="#94B0B7"/>
</g>
</g>
<g id="Group_14">
<g id="Group_15">
<path id="Vector_26" d="M97.2568 62.5999C97.385 62.3535 97.5293 62.1334 97.6899 61.9371C97.7883 61.6932 97.8841 61.4468 97.965 61.1929C98.9932 60.5539 99.638 58.1727 99.638 56.6219C99.638 55.5614 99.333 55.1325 98.8102 54.9561C98.9359 52.7838 99.2483 50.4839 98.4554 48.8919C96.9667 45.8879 92.8877 44.0295 90.0497 43.9857V67.965C90.1592 67.9701 90.2675 67.9851 90.377 67.9851C93.1279 67.9851 95.5863 65.899 97.2568 62.5999Z" fill="white"/>
</g>
</g>
<g id="Group_16">
<path id="Vector_27" d="M95.3896 47.9239C95.5602 49.3196 92.9549 49.2596 91.216 48.9719C89.4783 48.683 88.4551 49.0282 86.832 49.4947C85.1927 49.9674 83.5869 51.6683 83.3566 52.5212C83.2172 53.0314 83.3367 55.4914 83.3367 55.4914L81.8816 54.8061C81.8816 54.8061 81.4111 51.3931 81.9314 49.0945C82.4343 46.8834 83.5122 44.9174 87.6224 44.0232C91.3492 43.2153 93.9681 43.7043 94.0814 44.6335C94.3714 44.6936 94.6054 44.4597 94.949 44.4597C95.8191 44.4597 97.1335 45.524 97.8891 46.7471C98.6409 47.9702 99.7014 50.1613 99.1799 53.9481C99.0616 54.9361 98.8612 55.2 98.8612 55.2L97.6476 55.8991C97.6476 55.8991 98.1878 51.1242 96.2161 49.7261C95.5938 49.2883 95.3896 47.9239 95.3896 47.9239Z" fill="#001244"/>
<g id="Group_17">
<g id="Group_18">
<g id="Group_19">
<path id="Vector_28" d="M96.2012 49.6735C98.1704 51.0717 97.6327 55.8441 97.6327 55.8441L98.8463 55.1462C98.8463 55.1462 99.0492 54.8823 99.165 53.8968C99.689 50.1087 98.9646 47.8701 98.2102 46.647C97.4572 45.4227 95.8041 44.4072 94.9353 44.4072C94.7623 44.4072 94.2868 44.5285 94.1499 44.5785C94.5196 45.8116 95.3797 47.58 95.3722 47.8701C95.3722 47.8701 95.5788 49.2358 96.2012 49.6735Z" fill="#205F89"/>
</g>
<g id="Group_20">
<path id="Vector_29" d="M95.3736 47.8714C95.3698 47.9577 95.361 48.0752 95.3523 48.1966C95.3748 48.0965 95.3861 47.9902 95.3736 47.8714Z" fill="#205F89"/>
</g>
</g>
</g>
</g>
</g>
<g id="Group_21">
<g id="Group_22">
<path id="Vector_30" d="M99.0604 36.2882C99.0579 35.6979 95.2627 35 90.509 35C85.754 35 81.8381 35.6991 81.8343 36.2882V49.4384C81.8343 49.4384 81.965 49.4134 81.965 49.4046C81.965 48.9494 85.7789 48.3278 90.5351 48.3278C94.7984 48.3278 98.372 48.8769 99.0604 49.2658V36.2882Z" fill="white"/>
<g id="Group_23">
<path id="Vector_31" d="M81.8353 36.2879V49.4381C81.8353 49.4381 81.966 49.4131 81.966 49.4044C81.966 48.9491 85.7799 48.3276 90.5361 48.3276C90.561 48.3276 90.5847 48.3276 90.6083 48.3276V35.0023C90.5735 35.0023 90.5423 35.001 90.51 35.001C85.7538 34.9998 81.8378 35.6976 81.8353 36.2879Z" fill="#94B0B7"/>
</g>
</g>
<g id="Group_24">
<g id="Group_25">
<path id="Vector_32" d="M93.4055 40.7278H91.7749C91.7375 40.7278 91.7101 40.7015 91.7101 40.6653V39.0232C91.7101 38.9569 91.6604 38.9056 91.5957 38.9056H89.4485C89.3862 38.9056 89.3302 38.9569 89.3302 39.0232V40.6653C89.3302 40.7003 89.3028 40.7278 89.268 40.7278H87.6336C87.5689 40.7278 87.5179 40.7803 87.5179 40.8479V43.0014C87.5179 43.0665 87.5689 43.1202 87.6336 43.1202H89.268C89.3016 43.1202 89.3302 43.149 89.3302 43.1828V44.8248C89.3302 44.8898 89.3862 44.9424 89.4485 44.9424H91.5957C91.6604 44.9424 91.7101 44.8898 91.7101 44.8248V43.1828C91.7101 43.1503 91.7363 43.1202 91.7749 43.1202H93.4055C93.4752 43.1202 93.5262 43.0665 93.5262 43.0014V40.8479C93.525 40.7803 93.474 40.7278 93.4055 40.7278Z" fill="#F26D3E"/>
</g>
</g>
</g>
</g>
<path id="Vector_33" opacity="0.5" d="M53.5939 91.6587L22.0072 112.159L2.72104 93.1557L42.0402 70.3144L53.5939 91.6587Z" fill="url(#paint4_linear_222_1842)"/>
<g id="Group_26">
<path id="Vector_34" d="M87.9315 83.5222V83.207C86.5187 73.7611 84.1413 72.3642 69.9872 65.6521L51.4952 66.0448C37.335 70.8659 33.709 74.075 32.4556 84.7816L30.8872 98.9535H89.2883L87.9315 83.5222Z" fill="white"/>
<g id="Group_27">
<path id="Vector_35" d="M52.5135 61.1649L51.2613 65.8885L59.9994 72.9695L59.7231 61.9515L52.5135 61.1649Z" fill="#94B0B7"/>
<path id="Vector_36" d="M67.0509 61.3225L68.3043 66.0461L59.5649 73.1258L59.8438 62.1091L67.0509 61.3225Z" fill="white"/>
</g>
<path id="Vector_37" d="M51.7878 63.3685C52.6529 64.4715 57.2149 68.0245 59.8488 67.7419C62.4802 67.4618 66.8492 65.1018 67.7156 63.2109C68.4375 63.9975 71.1636 66.1236 71.1636 66.1236L59.5662 93.2845L48.7543 67.1453L51.7878 63.3685Z" fill="#001244"/>
<g id="Group_28">
<g id="Group_29">
<g id="Group_30">
<g id="Group_31">
<path id="Vector_38" d="M51.5575 61.2574C51.9085 61.7339 52.2782 62.1804 52.6579 62.5919C52.6603 62.5869 52.6628 62.5756 52.6666 62.5656C52.2819 62.1604 51.9135 61.7227 51.5575 61.2574Z" fill="white"/>
</g>
<path id="Vector_39" d="M73.9244 49.1877C73.9244 47.5895 73.4663 46.9454 72.6809 46.6827C72.8688 43.4186 73.3369 39.9619 72.1469 37.5695C69.8827 33.0023 63.6291 30.1934 59.3596 30.1934C55.2644 30.1934 50.0451 32.6058 47.7548 36.8529C46.3445 39.4767 47.059 42.9296 47.2407 46.4614C46.3719 46.6927 45.8628 47.3181 45.8628 49.0089C45.8628 51.5214 46.9855 55.4896 48.7419 56.0549C48.9672 56.6677 49.2174 57.2592 49.4887 57.8308C49.5061 57.867 49.5285 57.8995 49.5435 57.9271C50.1497 59.1539 50.8268 60.2707 51.56 61.2575C51.916 61.7227 52.2844 62.1616 52.6691 62.5668C52.6653 62.5768 52.6628 62.5881 52.6603 62.5931C54.7851 64.9167 57.3033 66.2674 60.0081 66.2674C64.1419 66.2674 67.8388 63.1296 70.3495 58.1709C70.5411 57.7995 70.7577 57.4718 71.0005 57.1767C71.1461 56.8065 71.2905 56.4413 71.4137 56.0574C72.9597 55.0957 73.9244 51.5176 73.9244 49.1877Z" fill="#94B0B7"/>
</g>
</g>
<g id="Group_32">
<g id="Group_33">
<path id="Vector_40" d="M70.347 58.1697C70.5387 57.7983 70.7553 57.4706 70.998 57.1754C71.1436 56.8077 71.288 56.4401 71.4112 56.0561C72.9585 55.0944 73.9244 51.5164 73.9244 49.189C73.9244 47.592 73.4663 46.9466 72.6809 46.6828C72.8689 43.4186 73.3369 39.9619 72.1469 37.5708C69.9076 33.056 63.7784 30.2646 59.5127 30.1984V66.2337C59.6782 66.2437 59.8413 66.2649 60.0056 66.2649C64.1407 66.2662 67.8363 63.1284 70.347 58.1697Z" fill="white"/>
</g>
</g>
<g id="Group_34">
<path id="Vector_41" d="M67.5401 36.1175C67.7978 38.2136 63.8818 38.1248 61.2691 37.6896C58.6563 37.2531 57.1216 37.7759 54.6806 38.475C52.216 39.1866 49.8037 41.7441 49.4589 43.0247C49.246 43.7913 49.429 47.4856 49.429 47.4856L47.2407 46.4614C47.2407 46.4614 46.235 41.0575 47.0179 37.6033C47.7722 34.2791 49.6904 31.5953 55.8681 30.2559C61.4719 29.039 65.4016 29.7744 65.5784 31.1713C66.0116 31.2614 66.3638 30.9112 66.8841 30.9112C68.1898 30.9112 70.6719 32.4395 71.8059 34.2779C72.9373 36.1175 74.0252 39.4804 73.2386 45.1707C73.0655 46.654 72.7618 47.0504 72.7618 47.0504L70.9358 48.0997C70.9358 48.0997 71.7461 40.9262 68.7861 38.8251C67.8513 38.1648 67.5401 36.1175 67.5401 36.1175Z" fill="#001244"/>
<g id="Group_35">
<g id="Group_36">
<g id="Group_37">
<path id="Vector_42" d="M68.7612 38.7475C71.7212 40.8486 70.9134 48.0196 70.9134 48.0196L72.7357 46.9729C72.7357 46.9729 73.0394 46.5777 73.2136 45.0932C73.9991 39.4029 72.9124 36.0387 71.7797 34.1991C70.647 32.3607 68.165 30.8324 66.8592 30.8324C66.6003 30.8324 65.8871 31.015 65.6792 31.0913C66.2344 32.9447 67.5276 35.5997 67.5164 36.0387C67.5164 36.0387 67.8251 38.0847 68.7612 38.7475Z" fill="#205F89"/>
</g>
<g id="Group_38">
<path id="Vector_43" d="M67.5153 36.0387C67.5128 36.1675 67.4953 36.3451 67.484 36.5239C67.5178 36.3751 67.5366 36.2175 67.5153 36.0387Z" fill="#205F89"/>
</g>
</g>
</g>
</g>
</g>
<g id="Group_39">
<g id="Clip path group_3">
<mask id="mask2_222_1842" style="mask-type:luminance" maskUnits="userSpaceOnUse" x="48" y="63" width="24" height="31">
<g id="SVGID_00000099645343826494261950000012655758673388984973_">
<path id="Vector_44" d="M51.6322 63.5261C52.4973 64.6279 57.058 68.1821 59.6907 67.902C62.3233 67.6193 66.6911 65.2582 67.5587 63.3685C68.2819 64.1551 71.0067 66.2812 71.0067 66.2812L59.4106 93.4433L48.5963 67.3042L51.6322 63.5261Z" fill="white"/>
</g>
</mask>
<g mask="url(#mask2_222_1842)">
<g id="Group_40">
<g id="Group_41">
<g id="Group_42">
<path id="Vector_45" d="M61.4669 74.9992H59.5525V69.948H63.3627L63.3876 72.1228L61.4669 74.9992Z" fill="#8CD4FA"/>
<path id="Vector_46" d="M61.7084 74.2289L65.0593 106.095L59.7604 110.27L59.6484 110.159L59.4529 74.2539L61.7084 74.2289Z" fill="#8CD4FA"/>
<path id="Vector_47" d="M58.0825 74.9992H59.6882V69.948H55.7871L55.8145 72.1228L58.0825 74.9992Z" fill="#006E99"/>
<path id="Vector_48" d="M57.8136 74.2289L54.4615 106.095L59.7604 110.27L59.6857 74.2289H57.8136Z" fill="#006E99"/>
</g>
<path id="Vector_49" d="M61.7856 74.948H57.7663V74.5803H61.7458L61.7856 74.948Z" fill="#006E99"/>
</g>
</g>
</g>
</g>
</g>
</g>
<g id="Group_43">
<g id="Group_44">
<g id="Group_45">
<g id="Group_46">
<path id="Vector_50" d="M45.1259 90.263C44.4463 90.5193 44.1612 90.6957 44.0218 90.847C43.911 90.9696 43.6259 91.3698 43.6297 92.2389C43.6322 92.8593 43.5177 96.87 44.5172 99.4425C44.6168 99.6426 44.8085 99.5726 44.908 99.4175C45.0387 99.2249 45.2479 97.8467 45.1072 97.7317C44.9653 97.6241 44.6703 97.504 44.5409 97.2627C44.4077 97.0238 44.5745 92.8005 44.6504 92.5879C44.7263 92.3703 44.9815 92.409 45.1632 92.4391C45.0201 91.4586 45.1259 90.263 45.1259 90.263Z" fill="#006E99"/>
</g>
</g>
</g>
<g id="Group_47">
<path id="Vector_51" d="M48.8626 92.7717H19.7766C19.4952 92.7717 19.2712 93.0018 19.2712 93.282V131.172C19.2712 131.453 19.4965 131.682 19.7766 131.682H48.8626C49.1452 131.682 49.3704 131.452 49.3704 131.172V93.282C49.3704 93.0018 49.1452 92.7717 48.8626 92.7717Z" fill="#001244"/>
<path id="Vector_52" d="M45.4806 123.163C45.4732 123.17 42.2232 126.656 42.2555 126.656H23.5357C23.3266 126.656 23.1586 126.487 23.1586 126.275V98.1794C23.1586 97.9693 23.3266 97.8005 23.5357 97.8005H45.106C45.3126 97.8005 45.4806 97.9693 45.4806 98.1794V123.163Z" fill="white"/>
<path id="Vector_53" d="M39.5631 91.8588H29.0773C28.8209 91.8588 28.613 92.0689 28.613 92.3252C28.613 92.5841 28.8209 92.7917 29.0773 92.7917H29.8889C29.7769 92.9656 29.7121 93.1682 29.7121 93.3883C29.7121 93.9961 30.2038 94.4951 30.8125 94.4951H37.8304C38.4366 94.4951 38.9308 93.9973 38.9308 93.3883C38.9308 93.1682 38.8635 92.9656 38.754 92.7917H39.5619C39.8195 92.7917 40.0261 92.5841 40.0261 92.3252C40.0274 92.0689 39.8208 91.8588 39.5631 91.8588Z" fill="#ADADAD"/>
<path id="Vector_54" d="M42.2256 101.984H26.4148V102.629H42.2256V101.984Z" fill="#94B0B7"/>
<path id="Vector_55" d="M42.2256 104.753H26.4148V105.398H42.2256V104.753Z" fill="#94B0B7"/>
<path id="Vector_56" d="M42.2256 107.717H26.4148V108.362H42.2256V107.717Z" fill="#94B0B7"/>
<path id="Vector_57" d="M42.2256 110.485H26.4148V111.131H42.2256V110.485Z" fill="#94B0B7"/>
<path id="Vector_58" d="M42.2256 113.448H26.4148V114.094H42.2256V113.448Z" fill="#94B0B7"/>
<path id="Vector_59" d="M42.2256 116.218H26.4148V116.861H42.2256V116.218Z" fill="#94B0B7"/>
<path id="Vector_60" d="M42.2256 119.181H26.4148V119.826H42.2256V119.181Z" fill="#94B0B7"/>
<g id="Group_48">
<path id="Vector_61" d="M42.6215 123.153H45.4919L42.2456 126.663V123.532C42.2443 123.322 42.4136 123.153 42.6215 123.153Z" fill="#ADADAD"/>
</g>
</g>
<g id="Group_49">
<g id="Group_50">
<path id="Vector_62" d="M46.8088 117.997C46.8088 117.997 46.5773 118.556 46.4603 118.556C46.3445 118.556 46.0956 117.977 46.0956 117.977L46.8088 117.997Z" fill="#318FB5"/>
<path id="Vector_63" d="M46.8088 118.014C47.0901 117.379 47.3229 115.41 47.3515 115.031L45.5653 115.039C45.5865 115.642 45.9512 117.611 46.103 118.022C46.5125 118.017 46.754 118.017 46.8088 118.014Z" fill="white"/>
<path id="Vector_64" d="M47.3416 115.095C47.527 114.177 47.888 100.962 47.888 100.962L44.9106 100.96C44.9106 100.96 45.3985 114.184 45.5839 115.108C46.6407 115.124 47.1586 115.1 47.3416 115.095Z" fill="#318FB5"/>
<path id="Vector_65" d="M46.4055 90.3831H46.4142C46.4142 90.3831 46.4142 90.3831 46.4154 90.3806L47.9079 90.2805C47.9079 90.1529 48.0187 88.3733 46.4142 88.3458C46.4117 88.3458 46.408 88.3458 46.4055 88.3458C46.403 88.3458 46.4005 88.3458 46.3968 88.3458C44.7923 88.3721 44.9056 90.1529 44.9056 90.2805L46.3955 90.3806C46.3955 90.3831 46.3968 90.3831 46.3968 90.3831H46.4055Z" fill="#006E99"/>
<path id="Vector_66" d="M46.3982 100.547L46.8164 100.593V100.506L47.913 100.469C47.913 100.379 48.0002 90.4618 47.8968 89.9828C47.201 89.9653 46.7106 89.9653 46.3982 89.9703C46.087 89.9653 45.5953 89.9653 44.9032 89.9828C44.7974 90.4618 44.9493 100.29 44.9493 100.38L45.9812 100.506V100.593L46.3982 100.547Z" fill="#318FB5"/>
<path id="Vector_67" d="M44.8906 101.098C44.8558 101.098 44.8259 101.073 44.8259 101.04V100.289C44.8259 100.258 44.8545 100.228 44.8906 100.228H47.9988C48.0324 100.228 48.0623 100.257 48.0623 100.289V101.04C48.0623 101.073 48.0336 101.098 47.9988 101.098H44.8906Z" fill="#006E99"/>
</g>
</g>
</g>
</g>
<defs>
<linearGradient id="paint0_linear_222_1842" x1="7.17991" y1="119.314" x2="83.976" y2="36.6662" gradientUnits="userSpaceOnUse">
<stop offset="0.1813" stop-color="white"/>
<stop offset="0.2558" stop-color="#F9F9F9"/>
<stop offset="0.359" stop-color="#E7E7E7"/>
<stop offset="0.4789" stop-color="#C9C9C9"/>
<stop offset="0.6115" stop-color="#A0A0A0"/>
<stop offset="0.7545" stop-color="#6C6C6C"/>
<stop offset="0.9038" stop-color="#2D2D2D"/>
<stop offset="1"/>
</linearGradient>
<linearGradient id="paint1_linear_222_1842" x1="12.3615" y1="131.145" x2="35.2668" y2="112.75" gradientUnits="userSpaceOnUse">
<stop offset="0.3846" stop-color="white"/>
<stop offset="0.462" stop-color="#E6E6E6"/>
<stop offset="0.6269" stop-color="#A5A5A5"/>
<stop offset="0.8641" stop-color="#3E3E3E"/>
<stop offset="1"/>
</linearGradient>
<linearGradient id="paint2_linear_222_1842" x1="27.5962" y1="74.7402" x2="29.1318" y2="54.1055" gradientUnits="userSpaceOnUse">
<stop offset="0.1044" stop-color="white"/>
<stop offset="0.206" stop-color="#FBFBFB"/>
<stop offset="0.2967" stop-color="#F1F1F1"/>
<stop offset="0.3832" stop-color="#DEDEDE"/>
<stop offset="0.4673" stop-color="#C5C5C5"/>
<stop offset="0.5494" stop-color="#A4A4A4"/>
<stop offset="0.6302" stop-color="#7B7B7B"/>
<stop offset="0.71" stop-color="#4B4B4B"/>
<stop offset="0.7869" stop-color="#141414"/>
<stop offset="0.8132"/>
</linearGradient>
<linearGradient id="paint3_linear_222_1842" x1="92.0259" y1="77.8736" x2="94.5876" y2="61.5259" gradientUnits="userSpaceOnUse">
<stop offset="0.1044" stop-color="white"/>
<stop offset="0.206" stop-color="#FBFBFB"/>
<stop offset="0.2967" stop-color="#F1F1F1"/>
<stop offset="0.3832" stop-color="#DEDEDE"/>
<stop offset="0.4673" stop-color="#C5C5C5"/>
<stop offset="0.5494" stop-color="#A4A4A4"/>
<stop offset="0.6302" stop-color="#7B7B7B"/>
<stop offset="0.71" stop-color="#4B4B4B"/>
<stop offset="0.7869" stop-color="#141414"/>
<stop offset="0.8132"/>
</linearGradient>
<linearGradient id="paint4_linear_222_1842" x1="2.58947" y1="113.131" x2="54.5041" y2="71.4452" gradientUnits="userSpaceOnUse">
<stop offset="0.3846" stop-color="white"/>
<stop offset="0.462" stop-color="#E6E6E6"/>
<stop offset="0.6269" stop-color="#A5A5A5"/>
<stop offset="0.8641" stop-color="#3E3E3E"/>
<stop offset="1"/>
</linearGradient>
</defs>
</svg>
