<svg width="120" height="138" viewBox="0 0 120 138" fill="none" xmlns="http://www.w3.org/2000/svg">
<g id="Group">
<path id="Vector" opacity="0.78" d="M115.542 101.727C115.542 102.869 114.766 104.271 113.821 104.845L59.496 137.572C58.5468 138.143 56.9948 138.143 56.0479 137.572L1.72464 104.845C0.774231 104.271 0 102.869 0 101.727V36.2732C0 35.1302 0.774231 33.727 1.72464 33.1542L56.0479 0.429583C56.9948 -0.143194 58.5468 -0.143194 59.496 0.429583L113.821 33.1542C114.767 33.727 115.542 35.1302 115.542 36.2732V101.727Z" fill="white"/>
<path id="Vector_2" d="M114.129 100.926C114.129 102.043 113.371 103.408 112.448 103.967L59.4541 135.893C58.5277 136.448 57.014 136.448 56.0911 135.893L3.09575 103.967C2.17051 103.409 1.41306 102.043 1.41306 100.926V37.0724C1.41306 35.9581 2.17051 34.5911 3.09575 34.0296L56.0911 2.1079C57.014 1.55013 58.5277 1.55013 59.4541 2.1079L112.448 34.0296C113.371 34.5899 114.129 35.9581 114.129 37.0724V100.926Z" fill="#8CD4FA"/>
<g id="Group_2">
<g id="Clip path group">
<mask id="mask0_222_1600" style="mask-type:luminance" maskUnits="userSpaceOnUse" x="1" y="1" width="114" height="136">
<g id="SVGID_00000081633416772911670890000014172871170810715322_">
<path id="Vector_3" d="M114.278 101.135C114.278 102.251 113.521 103.617 112.598 104.176L59.6039 136.102C58.6775 136.657 57.1638 136.657 56.2409 136.102L3.24556 104.176C2.32032 103.618 1.56287 102.251 1.56287 101.135V37.2825C1.56287 36.1682 2.32032 34.8012 3.24556 34.2397L56.2409 2.31802C57.1638 1.76025 58.6775 1.76025 59.6039 2.31802L112.598 34.2397C113.521 34.8 114.278 36.1682 114.278 37.2825V101.135Z" fill="white"/>
</g>
</mask>
<g mask="url(#mask0_222_1600)">
<path id="Vector_4" opacity="0.5" d="M72.9097 32.789L75.007 34.9776L75.3067 38.7294L70.8123 39.98L69.9134 53.7367L77.7037 71.5578L120.25 88.441L42.9471 135.339L-4.69333 106.262L-4.3937 67.4933L50.0962 32.9591L72.9097 32.789Z" fill="url(#paint0_linear_222_1600)"/>
</g>
</g>
</g>
<path id="Vector_5" opacity="0.5" d="M81.1469 118.519L55.8801 134.192L37.5538 122.311L57.3291 111.681L60.2403 114.619L74.3574 106.887L81.1469 118.519Z" fill="url(#paint1_linear_222_1600)"/>
<path id="Vector_6" opacity="0.5" d="M55.3792 110.599L33.1098 122.728L15.831 112.15L28.1156 106.21L34.4725 106.699L48.5908 98.9674L55.3792 110.599Z" fill="url(#paint2_linear_222_1600)"/>
<path id="Vector_7" opacity="0.5" d="M94.3328 28.8284L95.4319 41.8034L96.58 45.3989L100.475 42.0635L102.273 41.9597L103.072 49.5672L103.771 51.3393L103.921 65.4611L79.2509 77.2893L73.3591 62.1257L68.8647 44.3571L92.6573 28.4544L94.3328 28.8284Z" fill="url(#paint3_linear_222_1600)"/>
<g id="Group_3">
<path id="Vector_8" d="M56.9288 111.914V116.37H56.9492C57.1601 117.282 61.0217 118.012 65.7678 118.012C70.5139 118.012 74.3754 117.284 74.5864 116.37H74.6067V111.914H56.9288Z" fill="#94B0B7"/>
<path id="Vector_9" d="M65.7678 113.556C70.6494 113.556 74.6067 112.786 74.6067 111.836C74.6067 110.886 70.6494 110.116 65.7678 110.116C60.8862 110.116 56.9288 110.886 56.9288 111.836C56.9288 112.786 60.8862 113.556 65.7678 113.556Z" fill="white"/>
<g id="Group_4">
<path id="Vector_10" d="M69.3058 110.257C69.0301 110.238 68.7485 110.222 68.4608 110.208C66.9639 111.024 63.2641 113.047 62.575 113.429C63.0256 113.471 63.4966 113.506 63.9856 113.531L69.3058 110.257Z" fill="#94B0B7"/>
</g>
</g>
<g id="Group_5">
<path id="Vector_11" d="M84.5759 112.793C84.5759 116.66 81.5736 119.791 77.8691 119.791C74.1669 119.791 71.1635 116.66 71.1635 112.793C71.1635 108.928 74.1657 105.796 77.8691 105.796C81.5736 105.796 84.5759 108.928 84.5759 112.793Z" fill="white"/>
<path id="Vector_12" d="M83.9862 112.793C83.9862 116.317 81.2489 119.175 77.8703 119.175C74.4929 119.175 71.7543 116.317 71.7543 112.793C71.7543 109.27 74.4917 106.41 77.8703 106.41C81.2477 106.41 83.9862 109.269 83.9862 112.793Z" fill="#94B0B7"/>
<g id="Group_6">
<g id="Group_7">
<path id="Vector_13" d="M73.6791 118.064C73.6144 118.144 73.576 118.118 73.5916 118.007L73.6372 117.483C73.6528 117.371 73.7187 117.216 73.7834 117.137L81.2776 107.885C81.3435 107.805 81.479 107.71 81.5784 107.674L82.0734 107.543C82.1741 107.509 82.2029 107.543 82.1393 107.624L73.6791 118.064Z" fill="#BDDFEF"/>
</g>
<g id="Group_8">
<path id="Vector_14" d="M73.6311 118.019C73.5676 118.099 73.5976 118.137 73.6995 118.1L74.2052 117.967C74.3059 117.932 74.4425 117.838 74.5061 117.759L81.9739 108.536C82.0386 108.454 82.1057 108.301 82.1213 108.191L82.1753 107.633C82.1932 107.523 82.1549 107.499 82.0902 107.579L73.6311 118.019Z" fill="white"/>
</g>
</g>
</g>
<g id="Group_9">
<path id="Vector_15" d="M58.2089 104.873C58.2089 108.74 55.2066 111.871 51.502 111.871C47.7999 111.871 44.7964 108.74 44.7964 104.873C44.7964 101.008 47.7987 97.8755 51.502 97.8755C55.2066 97.8755 58.2089 101.008 58.2089 104.873Z" fill="#94B0B7"/>
<path id="Vector_16" d="M57.6192 104.873C57.6192 108.397 54.8818 111.256 51.5032 111.256C48.1259 111.256 45.3873 108.398 45.3873 104.873C45.3873 101.35 48.1247 98.4896 51.5032 98.4896C54.8806 98.4896 57.6192 101.348 57.6192 104.873Z" fill="white"/>
<g id="Group_10">
<g id="Group_11">
<path id="Vector_17" d="M47.3121 110.145C47.2473 110.224 47.209 110.199 47.2246 110.088L47.2713 109.564C47.2869 109.452 47.3528 109.297 47.4175 109.219L54.9118 99.9666C54.9777 99.8866 55.1131 99.7915 55.2126 99.7552L55.7076 99.6239C55.8082 99.5902 55.837 99.6239 55.7735 99.7052L47.3121 110.145Z" fill="#BDDFEF"/>
</g>
<g id="Group_12">
<path id="Vector_18" d="M47.2641 110.099C47.2006 110.179 47.2305 110.216 47.3324 110.18L47.8382 110.046C47.9389 110.011 48.0755 109.916 48.139 109.839L55.6069 100.616C55.6716 100.536 55.7387 100.38 55.7543 100.27L55.8082 99.7126C55.8262 99.6025 55.7879 99.5788 55.7231 99.6588L47.2641 110.099Z" fill="#94B0B7"/>
</g>
</g>
</g>
<g id="Group_13">
<g id="Group_14">
<path id="Vector_19" d="M49.5892 109.608C49.5892 111.916 47.7963 113.787 45.585 113.787H29.8092C27.5979 113.787 25.805 111.916 25.805 109.608C25.805 107.3 27.5979 105.429 29.8092 105.429H45.585C47.7963 105.429 49.5892 107.3 49.5892 109.608Z" fill="#E01212"/>
<g id="Group_15">
<path id="Vector_20" d="M49.5892 109.608C49.5892 107.3 47.7962 105.429 45.585 105.429H37.7576V113.787H45.585C47.7962 113.787 49.5892 111.916 49.5892 109.608Z" fill="#F27B57"/>
</g>
</g>
<g id="Group_16">
<path id="Vector_21" d="M29.808 113.787H37.7564V109.639H25.805C25.8217 111.931 27.6063 113.787 29.808 113.787Z" fill="#BC0202"/>
<path id="Vector_22" d="M45.5826 113.787C47.7843 113.787 49.5701 111.932 49.5856 109.639H37.7552V113.787H45.5826Z" fill="#F74D11"/>
</g>
</g>
<g id="Group_17">
<g id="Group_18">
<path id="Vector_23" d="M39.3156 116.782C39.3156 119.091 37.5227 120.962 35.3114 120.962H19.5356C17.3231 120.962 15.5314 119.091 15.5314 116.782C15.5314 114.474 17.3243 112.604 19.5356 112.604H35.3114C37.5227 112.604 39.3156 114.474 39.3156 116.782Z" fill="#E01212"/>
<g id="Group_19">
<path id="Vector_24" d="M39.3156 116.782C39.3156 114.474 37.5227 112.604 35.3114 112.604H27.484V120.962H35.3114C37.5227 120.962 39.3156 119.091 39.3156 116.782Z" fill="#F27B57"/>
</g>
</g>
<g id="Group_20">
<path id="Vector_25" d="M19.5344 120.962H27.4828V116.813H15.5314C15.5482 119.107 17.3327 120.962 19.5344 120.962Z" fill="#BC0202"/>
<path id="Vector_26" d="M35.309 120.962C37.5107 120.962 39.2965 119.107 39.3132 116.813H27.4828V120.962H35.309Z" fill="#F74D11"/>
</g>
</g>
<g id="Group_21">
<g id="Group_22">
<path id="Vector_27" d="M19.8556 48.8343C18.8812 48.1777 18.4833 46.8946 18.4833 45.3013C18.4905 41.8622 20.3074 36.6609 23.5062 31.4109C27.5823 24.7839 32.4375 20.2329 35.6662 20.1779C36.1816 20.1779 36.6682 20.303 37.0853 20.5819C38.0596 21.2384 38.4551 22.519 38.4575 24.1123C38.4503 27.549 36.631 32.7503 33.4346 38.0041C29.3561 44.631 24.501 49.1807 21.2746 49.2345C21.2698 49.2345 21.265 49.2345 21.259 49.2345C20.7485 49.2357 20.2667 49.1057 19.8556 48.8343ZM24.1091 31.8135C20.9558 36.9648 19.1892 42.1235 19.1964 45.3013C19.1964 46.7908 19.5763 47.7763 20.2391 48.2065C20.5268 48.3941 20.8659 48.4916 21.2758 48.4941C23.8993 48.5492 28.8755 44.1495 32.833 37.6076C35.9838 32.4438 37.7504 27.2889 37.7432 24.1136C37.7432 22.6266 37.3633 21.6411 36.7005 21.2109C36.4129 21.0183 36.0761 20.9245 35.6662 20.9245C35.6495 20.9245 35.6339 20.9245 35.6183 20.9245C32.9816 20.9233 28.0402 25.3054 24.1091 31.8135Z" fill="#318FB5"/>
<path id="Vector_28" d="M34.9854 49.6822C31.7483 49.6146 27.0705 44.691 23.3204 37.6764C20.6106 32.5489 19.1221 27.5427 19.1173 24.1136C19.1197 22.2114 19.5739 20.7181 20.7149 20.0503C21.0912 19.834 21.5143 19.7289 21.9565 19.7327C25.1925 19.7977 29.8714 24.7201 33.6216 31.741L33.3111 31.9211L32.9959 32.1024C29.3681 25.1678 24.5345 20.4093 21.9553 20.4768C21.615 20.4768 21.3225 20.5531 21.06 20.7044C20.2858 21.1321 19.828 22.3102 19.8304 24.1161C19.8256 27.3276 21.2746 32.28 23.9436 37.3187C27.5727 44.2471 32.4063 49.0094 34.9842 48.9418C35.327 48.9381 35.6218 48.8656 35.8783 48.7167C36.6514 48.284 37.1104 47.1047 37.108 45.3038C37.1128 42.091 35.6662 37.1424 32.9947 32.1037L33.3099 31.9223L33.6204 31.7422C36.329 36.8672 37.8187 41.8734 37.8211 45.3026C37.8211 47.2048 37.3645 48.693 36.2271 49.3683C35.8544 49.5822 35.4373 49.6834 35.0022 49.6834C34.9962 49.6822 34.9902 49.6822 34.9854 49.6822Z" fill="#318FB5"/>
<path id="Vector_29" d="M17.2584 39.1371C14.3916 38.0691 12.4668 36.6196 12.4237 34.71C12.4668 32.7978 14.3916 31.3483 17.2584 30.2803C20.1492 29.2173 24.1043 28.5695 28.4716 28.5695V28.9422V29.3149C24.1726 29.3149 20.2823 29.9564 17.4957 30.9819C14.684 31.9999 13.096 33.4369 13.138 34.71C13.096 35.9818 14.684 37.4175 17.4957 38.4355C20.2823 39.461 24.1726 40.1026 28.4716 40.1026C32.7694 40.1026 36.6598 39.461 39.4463 38.4355C42.258 37.4175 43.846 35.9806 43.8028 34.71C43.846 33.4369 42.2568 31.9999 39.4463 30.9819C36.6598 29.9564 32.7694 29.3149 28.4716 29.3149V28.9422V28.5695C32.839 28.5695 36.7916 29.2173 39.6824 30.2803C42.5516 31.3483 44.474 32.7978 44.5172 34.71C44.474 36.6196 42.5516 38.0691 39.6824 39.1371C36.7904 40.2001 32.839 40.8479 28.4716 40.8479C24.1043 40.8479 20.1492 40.2001 17.2584 39.1371Z" fill="#318FB5"/>
</g>
<path id="Vector_30" d="M26.3179 34.7687C26.3179 33.687 27.158 32.8115 28.1935 32.8115C29.2302 32.8115 30.0692 33.687 30.0692 34.7687C30.0692 35.8492 29.229 36.7259 28.1935 36.7259C27.158 36.7259 26.3179 35.8492 26.3179 34.7687Z" fill="#318FB5"/>
</g>
<g id="Group_23">
<path id="Vector_31" d="M81.7019 65.6287C81.5641 65.6287 81.4346 65.5736 81.3363 65.4711C81.2381 65.3698 81.1865 65.2347 81.1865 65.0897L81.1889 48.5917C81.2057 48.5404 81.3387 47.1672 82.4641 46.2543C82.427 45.724 81.8709 45.1588 81.8325 43.9369C81.8325 43.7218 81.8553 43.493 81.8996 43.2516C82.1957 41.7283 82.8273 38.9595 82.8237 38.2367C82.8189 38.1892 82.8201 38.1566 82.8201 38.1566C82.8105 37.6001 83.1964 36.4208 84.456 36.3195C84.5064 36.3095 84.5387 36.3095 84.5567 36.3095C84.5639 36.3095 84.5699 36.3095 84.5747 36.3095C85.9697 36.3257 86.3425 37.6151 86.3425 38.1566L86.3449 38.1829L86.3401 38.2267H86.3425C86.3425 38.2267 86.3449 38.2267 86.3425 38.2417C86.3413 38.9758 86.9669 41.7346 87.2665 43.2516C87.3145 43.5055 87.3348 43.7406 87.3348 43.9582C87.3001 45.155 86.7823 45.7153 86.75 46.2543C87.8754 47.1672 88.0108 48.5416 88.0276 48.5929L87.5146 48.6592H88.0312V65.0922C88.0312 65.236 87.9784 65.3723 87.8802 65.4736C87.7831 65.5762 87.6524 65.6312 87.5146 65.6312H81.7019V65.6287ZM82.2184 64.5494H86.9981V48.7192C86.9885 48.6755 86.9573 48.4179 86.8183 48.0777C86.6625 47.7038 86.4 47.2735 85.9661 46.9947C85.8283 46.9034 85.7408 46.7545 85.7265 46.5845C85.7217 46.5182 85.7169 46.4494 85.7169 46.3756C85.7672 45.2001 86.3401 44.7536 86.3017 43.9569C86.3017 43.8131 86.2874 43.648 86.2526 43.4617C85.9626 41.9284 85.3214 39.2759 85.3094 38.2254C85.3118 38.2192 85.3094 38.2042 85.3118 38.1566V38.1541C85.2818 37.909 85.1991 37.3862 84.5759 37.3862L84.5483 37.39C84.021 37.39 83.8676 37.9378 83.8556 38.1541H83.8532L83.8556 38.1804C83.8556 38.1929 83.8556 38.2067 83.8556 38.2242C83.846 39.2709 83.2024 41.9247 82.9148 43.4605C82.88 43.6418 82.8644 43.7956 82.8644 43.9344C82.8249 44.7336 83.4397 45.1763 83.4972 46.3806C83.4972 46.4469 83.4924 46.5044 83.4924 46.5595C83.4829 46.737 83.393 46.8971 83.2503 46.9934C82.8177 47.2735 82.554 47.7025 82.3982 48.0764C82.2568 48.4216 82.2208 48.6805 82.2184 48.6655V64.5494Z" fill="white"/>
<path id="Vector_32" d="M99.007 65.5299C98.8944 65.5299 98.7889 65.4849 98.7086 65.4011C98.6283 65.3173 98.5864 65.2085 98.5864 65.0897L98.5888 51.6044C98.6007 51.5619 98.711 50.4426 99.6291 49.696C99.6015 49.2608 99.1437 48.7981 99.1113 47.7976C99.1113 47.6212 99.1317 47.4374 99.1688 47.241C99.4121 45.9879 99.9323 43.7106 99.9227 43.1328C99.9227 43.1303 99.9227 43.1266 99.9227 43.1241C99.9203 43.0965 99.9215 43.079 99.9203 43.079C99.9131 42.6226 100.228 41.6584 101.254 41.5733C101.295 41.5646 101.324 41.5646 101.339 41.5658C101.347 41.5658 101.351 41.5658 101.355 41.5658C102.498 41.5771 102.799 42.6388 102.801 43.079V43.0965L102.799 43.1328H102.801C102.801 43.1341 102.801 43.1353 102.801 43.1366C102.801 43.1366 102.801 43.1428 102.801 43.1491C102.8 43.7556 103.314 46.0042 103.557 47.2436C103.595 47.4474 103.609 47.6375 103.609 47.8164C103.582 48.7943 103.157 49.2533 103.132 49.6935C104.054 50.4413 104.163 51.5632 104.175 51.6057L103.757 51.6595H104.179V65.091C104.179 65.2098 104.133 65.3186 104.053 65.4023C103.974 65.4849 103.868 65.5312 103.755 65.5312H99.007V65.5299ZM99.4301 64.6495H103.335V51.697C103.323 51.6382 103.294 51.4406 103.186 51.1867C103.062 50.8791 102.848 50.5289 102.493 50.3013C102.381 50.225 102.308 50.1037 102.298 49.9674C102.293 49.9099 102.289 49.8523 102.289 49.791C102.332 48.8331 102.797 48.4654 102.767 47.8151C102.767 47.6938 102.755 47.5587 102.726 47.4124C102.491 46.1593 101.965 43.9895 101.958 43.1316C101.958 43.1278 101.954 43.1166 101.958 43.0753C101.933 42.8727 101.863 42.445 101.355 42.445V42.4437L101.335 42.4475C100.902 42.45 100.776 42.8965 100.766 43.0778H100.764L100.766 43.0953C100.766 43.1065 100.766 43.1178 100.766 43.1316C100.757 43.987 100.233 46.1543 99.9982 47.4124C99.9682 47.5587 99.9574 47.6875 99.9574 47.7976C99.9227 48.4504 100.426 48.8143 100.473 49.7986C100.473 49.8398 100.473 49.8923 100.468 49.9549C100.458 50.0962 100.385 50.2263 100.27 50.3013C99.5847 50.724 99.4337 51.6444 99.4289 51.6607L99.4301 64.6495Z" fill="white"/>
<g id="Group_24">
<path id="Vector_33" d="M95.994 52.3273H91.0166V64.9221H95.994V52.3273Z" fill="#F27B57"/>
<path id="Vector_34" d="M90.747 65.61C90.6163 65.61 90.4893 65.5562 90.3958 65.4561C90.3035 65.3598 90.2484 65.226 90.2484 65.0909L90.2532 43.997C90.2676 43.9469 90.3982 42.6263 91.4804 41.7471C91.4457 41.2344 90.9076 40.6903 90.8704 39.5098C90.8704 39.3034 90.8932 39.0834 90.9363 38.852C91.2072 37.4676 91.8292 30.7505 91.8244 29.8576C91.8244 29.8501 91.8244 29.8426 91.8244 29.8364C91.8232 29.8076 91.8244 29.7863 91.8244 29.7863C91.8148 29.2461 92.1924 28.0968 93.4268 28.013C93.4604 28.008 93.4831 28.008 93.4987 28.008C93.5059 28.008 93.5119 28.008 93.5167 28.008C94.8614 28.0242 95.2186 29.2698 95.2186 29.7863V29.8101L95.215 29.8576H95.2186C95.2186 29.8601 95.2186 29.8626 95.2186 29.8639C95.2186 29.8651 95.2186 29.8651 95.2186 29.8651C95.2174 30.7868 95.8382 37.4713 96.1079 38.8557C96.1534 39.0959 96.175 39.321 96.175 39.5348C96.1402 40.6866 95.6428 41.2269 95.6105 41.7459C96.6951 42.6251 96.827 43.9482 96.8401 43.9982L96.3464 44.0633H96.8437V65.0922C96.8437 65.2298 96.7922 65.3611 96.6987 65.4574C96.604 65.5574 96.4782 65.6112 96.3464 65.6112L90.747 65.61ZM91.2443 64.5682H95.849V44.1108C95.8358 44.0532 95.8034 43.8144 95.6764 43.503C95.5254 43.1403 95.2737 42.7276 94.8578 42.4587C94.7224 42.3724 94.6373 42.2261 94.6253 42.0648C94.6181 41.9973 94.6157 41.9297 94.6157 41.8634C94.6649 40.7341 95.2162 40.3002 95.179 39.5348C95.179 39.3972 95.1634 39.2371 95.1311 39.0571C94.835 37.49 94.2274 30.9482 94.2226 29.8589C94.225 29.8514 94.2202 29.8364 94.225 29.7838C94.1951 29.5475 94.1123 29.0485 93.5167 29.0485V29.0472L93.4891 29.051C92.981 29.051 92.8335 29.5787 92.818 29.7876L92.8204 29.8114C92.8204 29.8251 92.8204 29.8401 92.8204 29.8589C92.8156 30.9457 92.2067 37.4875 91.9119 39.0571C91.8795 39.2296 91.8664 39.3785 91.8664 39.511C91.8256 40.2814 92.4189 40.7091 92.474 41.8697C92.474 41.9272 92.4716 41.9847 92.4692 42.0498C92.4596 42.2173 92.3721 42.3712 92.2367 42.46C91.8184 42.7288 91.5655 43.1415 91.4181 43.5042C91.2815 43.8394 91.2455 44.0883 91.2431 44.072L91.2443 64.5682Z" fill="white"/>
</g>
</g>
<g id="Group_25">
<path id="Vector_35" opacity="0.5" d="M49.3028 24.6813H49.2093L46.9681 20.6319L49.2117 16.5824H53.6917L55.9329 20.6319L53.6917 24.6813H49.3028ZM53.5011 24.3399L55.5529 20.6306L53.5011 16.9238H49.3974L47.3492 20.6306L49.3998 24.3399H53.5011Z" fill="#318FB5"/>
<path id="Vector_36" opacity="0.5" d="M61.3225 28.8584H61.1871L58.0243 23.1419L61.1871 17.4266H67.5152L70.678 23.1419L67.5152 28.8584H61.3225ZM67.2479 28.3782L70.1435 23.1431L67.2479 17.9081H61.4544L58.5588 23.1431L61.4544 28.3782H67.2479Z" fill="#318FB5"/>
<path id="Vector_37" opacity="0.5" d="M55.2078 14.8716H55.1131L52.8719 10.8184L55.1155 6.77142H59.5943L61.8379 10.8184L59.5967 14.8716H55.2078ZM59.4061 14.5277L61.4556 10.8196L59.4061 7.11033H55.3013L53.2518 10.8196L55.3024 14.5277H59.4061Z" fill="#318FB5"/>
</g>
<path id="Vector_38" opacity="0.5" d="M53.5 16.5L54.9718 14.6228L55.2031 14.8204L53.7313 16.6976L53.5 16.5Z" fill="#318FB5"/>
<path id="Vector_39" opacity="0.5" d="M59.4076 14.8324L59.6593 14.6648L61.4164 17.5437L61.1623 17.7113L59.4076 14.8324Z" fill="#318FB5"/>
<path id="Vector_40" d="M120 70.411H69.464V87.9195H120V70.411Z" fill="white"/>
<g id="Group_26">
<path id="Vector_41" d="M49.087 66.0902H74.5768C74.5768 66.0902 79.1742 74.957 79.3145 76.8479C79.4523 78.7388 81.1266 86.1499 76.8072 89.3477C72.489 92.5455 71.6536 91.9664 70.4012 91.9664C69.1464 91.9664 50.6199 91.8189 49.6431 91.5275C48.6688 91.2374 43.3762 86.1486 43.6554 83.0972C43.9347 80.0457 46.7212 69.288 47.6944 67.9811C48.6676 66.673 49.087 66.0902 49.087 66.0902Z" fill="#F27B57"/>
<path id="Vector_42" d="M49.087 66.0902H75.3534C75.3534 66.0902 79.1515 75.5798 78.9453 76.0087C77.1979 76.0087 45.4064 76.0087 45.4064 76.0087L49.087 66.0902Z" fill="#F26D3E"/>
<g id="Group_27">
<path id="Vector_43" d="M52.4057 40.7329C49.92 40.7329 47.9077 38.6344 47.9077 36.0456C47.9077 33.4531 49.92 31.3558 52.4057 31.3558H71.7172C74.2016 31.3558 76.2127 33.4531 76.2127 36.0456C76.2127 38.6344 74.2016 40.7329 71.7172 40.7329H52.4057ZM49.4646 36.0456C49.4718 37.7389 50.7829 39.1071 52.4057 39.1071H71.7172C73.3387 39.1071 74.6475 37.7389 74.6475 36.0456C74.6475 34.356 73.3387 32.9891 71.7172 32.9829H52.4057C50.7829 32.9879 49.4718 34.356 49.4646 36.0456Z" fill="white"/>
<path id="Vector_44" d="M70.9213 54.7434C70.4419 53.4803 70.2298 50.8365 70.2346 48.2028C70.2298 44.656 70.5822 40.9205 70.7619 40.2164L71.0004 39.2109H53.1176L53.3585 40.2164C53.5359 40.9205 53.8894 44.656 53.8858 48.2028C53.8894 50.8365 53.6785 53.4816 53.2003 54.7434C52.015 58.0125 43.3115 74.0128 43.2599 81.5564C43.2599 81.8603 43.2671 82.1655 43.3127 82.4806C44.1564 89.4815 49.1278 92.1578 50.4282 92.463L50.5073 92.4742H73.6132L73.6935 92.463C74.9927 92.1578 79.9652 89.4803 80.8054 82.4806C80.8521 82.1655 80.8605 81.8603 80.8605 81.5564C80.8102 74.0128 72.1043 58.0125 70.9213 54.7434ZM79.2593 82.2668C78.6469 88.2272 74.2316 90.6283 73.4466 90.8497H50.6738C49.89 90.6283 45.4747 88.2259 44.8587 82.2668C44.8324 82.0467 44.818 81.8128 44.818 81.5564C44.77 74.9319 53.3345 58.7729 54.6541 55.335C55.2749 53.6129 55.4331 50.9316 55.4427 48.2015C55.4367 45.2863 55.2377 42.435 55.0328 40.8267H69.0864C68.8815 42.435 68.6849 45.2863 68.6742 48.2015C68.6873 50.9328 68.8467 53.6129 69.4664 55.335C70.7859 58.7729 79.3504 74.9319 79.3025 81.5564C79.3025 81.8128 79.2893 82.0479 79.2593 82.2668Z" fill="white"/>
</g>
</g>
<g id="Group_28">
<path id="Vector_45" d="M97.4286 74.997H85.0445V76.2476H97.4286V74.997Z" fill="#94B0B7"/>
<path id="Vector_46" d="M97.4286 78.1235H85.0445V79.3741H97.4286V78.1235Z" fill="#94B0B7"/>
<path id="Vector_47" d="M97.4286 81.25H85.0445V82.5006H97.4286V81.25Z" fill="#94B0B7"/>
</g>
<g id="Group_29">
<path id="Vector_48" d="M114.208 74.997H101.823V76.2476H114.208V74.997Z" fill="#94B0B7"/>
<path id="Vector_49" d="M114.208 78.1235H101.823V79.3741H114.208V78.1235Z" fill="#94B0B7"/>
<path id="Vector_50" d="M114.208 81.25H101.823V82.5006H114.208V81.25Z" fill="#94B0B7"/>
</g>
<g id="Group_30">
<path id="Vector_51" d="M37.579 95.9096C37.579 97.7142 36.1768 99.1762 34.4485 99.1762H16.1869C14.4587 99.1762 13.0565 97.7142 13.0565 95.9096V70.321C13.0565 68.5176 14.4587 67.0544 16.1869 67.0544H34.4497C36.178 67.0544 37.5802 68.5176 37.5802 70.321L37.579 95.9096Z" fill="white"/>
<path id="Vector_52" d="M32.9492 58.3427H17.6875V73.0435H32.9492V58.3427Z" fill="white"/>
<g id="Group_31">
<path id="Vector_53" d="M13.0565 70.321V95.9096C13.0565 97.7142 14.4587 99.1762 16.1869 99.1762H25.6132V67.0531H16.1869C14.4575 67.0531 13.0565 68.5163 13.0565 70.321Z" fill="#94B0B7"/>
</g>
<path id="Vector_54" opacity="0.4" d="M33.0535 64.258L26.6978 72.7584L12.8347 70.2422L17.7774 64.0779L33.0535 64.258Z" fill="url(#paint4_linear_222_1600)"/>
<g id="Group_32">
<path id="Vector_55" d="M35.7633 64.3318V59.1581C35.7633 57.3547 34.5959 55.8927 33.1577 55.8927H17.9547C16.5165 55.8927 15.3492 57.3547 15.3492 59.1581V64.3318H35.7633Z" fill="#94B0B7"/>
<g id="Group_33">
<path id="Vector_56" d="M34.3562 62.7773C34.3562 63.0099 34.1561 63.1987 33.9092 63.1987C33.6611 63.1987 33.4609 63.0111 33.4609 62.7773V58.21C33.4609 57.9774 33.6611 57.7911 33.9092 57.7911C34.1561 57.7911 34.3562 57.9774 34.3562 58.21V62.7773Z" fill="white"/>
<path id="Vector_57" d="M32.5009 62.7773C32.5009 63.0099 32.3008 63.1987 32.0527 63.1987C31.8058 63.1987 31.6057 63.0111 31.6057 62.7773V58.21C31.6057 57.9774 31.8058 57.7911 32.0527 57.7911C32.3008 57.7911 32.5009 57.9774 32.5009 58.21V62.7773Z" fill="white"/>
<path id="Vector_58" d="M30.6445 62.7773C30.6445 63.0099 30.4431 63.1987 30.195 63.1987C29.9469 63.1987 29.7468 63.0111 29.7468 62.7773V58.21C29.7468 57.9774 29.9469 57.7911 30.195 57.7911C30.4431 57.7911 30.6445 57.9774 30.6445 58.21V62.7773Z" fill="white"/>
<path id="Vector_59" d="M28.788 62.7773C28.788 63.0099 28.5878 63.1987 28.3397 63.1987C28.0928 63.1987 27.8927 63.0111 27.8927 62.7773V58.21C27.8927 57.9774 28.0928 57.7911 28.3397 57.7911C28.5878 57.7911 28.788 57.9774 28.788 58.21V62.7773Z" fill="white"/>
<path id="Vector_60" d="M26.9327 62.7773C26.9327 63.0099 26.7314 63.1987 26.4845 63.1987C26.2352 63.1987 26.035 63.0111 26.035 62.7773V58.21C26.035 57.9774 26.2352 57.7911 26.4845 57.7911C26.7314 57.7911 26.9327 57.9774 26.9327 58.21V62.7773Z" fill="white"/>
<path id="Vector_61" d="M25.0762 62.7773C25.0762 63.0099 24.8749 63.1987 24.6268 63.1987C24.3799 63.1987 24.1797 63.0111 24.1797 62.7773V58.21C24.1797 57.9774 24.3799 57.7911 24.6268 57.7911C24.8749 57.7911 25.0762 57.9774 25.0762 58.21V62.7773Z" fill="white"/>
<path id="Vector_62" d="M23.2197 62.7773C23.2197 63.0099 23.0196 63.1987 22.7727 63.1987C22.5246 63.1987 22.3245 63.0111 22.3245 62.7773V58.21C22.3245 57.9774 22.5246 57.7911 22.7727 57.7911C23.0196 57.7911 23.2197 57.9774 23.2197 58.21V62.7773Z" fill="white"/>
<path id="Vector_63" d="M21.3645 62.7773C21.3645 63.0099 21.1643 63.1987 20.9162 63.1987C20.6681 63.1987 20.468 63.0111 20.468 62.7773V58.21C20.468 57.9774 20.6681 57.7911 20.9162 57.7911C21.1643 57.7911 21.3645 57.9774 21.3645 58.21V62.7773Z" fill="white"/>
<path id="Vector_64" d="M19.5068 62.7773C19.5068 63.0099 19.3067 63.1987 19.0586 63.1987C18.8105 63.1987 18.6103 63.0111 18.6103 62.7773V58.21C18.6103 57.9774 18.8105 57.7911 19.0586 57.7911C19.3067 57.7911 19.5068 57.9774 19.5068 58.21V62.7773Z" fill="white"/>
<path id="Vector_65" d="M17.6515 62.7773C17.6515 63.0099 17.4514 63.1987 17.2033 63.1987C16.9552 63.1987 16.755 63.0111 16.755 62.7773V58.21C16.755 57.9774 16.9552 57.7911 17.2033 57.7911C17.4514 57.7911 17.6515 57.9774 17.6515 58.21V62.7773Z" fill="white"/>
</g>
</g>
</g>
</g>
<defs>
<linearGradient id="paint0_linear_222_1600" x1="15.7868" y1="126.694" x2="91.2338" y2="51.0703" gradientUnits="userSpaceOnUse">
<stop offset="0.2582" stop-color="white"/>
<stop offset="0.3314" stop-color="#FAFAFA"/>
<stop offset="0.4233" stop-color="#EAEAEA"/>
<stop offset="0.5253" stop-color="#D0D0D0"/>
<stop offset="0.6345" stop-color="#ADADAD"/>
<stop offset="0.7495" stop-color="#7F7F7F"/>
<stop offset="0.8694" stop-color="#464646"/>
<stop offset="0.9912" stop-color="#050505"/>
<stop offset="1"/>
</linearGradient>
<linearGradient id="paint1_linear_222_1600" x1="42.9333" y1="134.255" x2="82.5508" y2="110.341" gradientUnits="userSpaceOnUse">
<stop offset="0.2912" stop-color="white"/>
<stop offset="0.3803" stop-color="#E6E6E6"/>
<stop offset="0.5703" stop-color="#A5A5A5"/>
<stop offset="0.8435" stop-color="#3E3E3E"/>
<stop offset="1"/>
</linearGradient>
<linearGradient id="paint2_linear_222_1600" x1="21.1187" y1="123.587" x2="56.0988" y2="102.472" gradientUnits="userSpaceOnUse">
<stop offset="0.2912" stop-color="white"/>
<stop offset="0.3661" stop-color="#FAFAFA"/>
<stop offset="0.4537" stop-color="#ECECEC"/>
<stop offset="0.5478" stop-color="#D4D4D4"/>
<stop offset="0.6465" stop-color="#B3B3B3"/>
<stop offset="0.7488" stop-color="#898989"/>
<stop offset="0.854" stop-color="#555555"/>
<stop offset="0.9597" stop-color="#191919"/>
<stop offset="1"/>
</linearGradient>
<linearGradient id="paint3_linear_222_1600" x1="71.1408" y1="67.4388" x2="109.461" y2="42.9903" gradientUnits="userSpaceOnUse">
<stop offset="0.2912" stop-color="white"/>
<stop offset="0.3515" stop-color="#F6F6F6"/>
<stop offset="0.448" stop-color="#DFDFDF"/>
<stop offset="0.5686" stop-color="#B9B9B9"/>
<stop offset="0.7086" stop-color="#848484"/>
<stop offset="0.8629" stop-color="#414141"/>
<stop offset="1"/>
</linearGradient>
<linearGradient id="paint4_linear_222_1600" x1="21.825" y1="71.8477" x2="25.081" y2="59.561" gradientUnits="userSpaceOnUse">
<stop offset="0.1044" stop-color="white"/>
<stop offset="0.206" stop-color="#FBFBFB"/>
<stop offset="0.2967" stop-color="#F1F1F1"/>
<stop offset="0.3832" stop-color="#DEDEDE"/>
<stop offset="0.4673" stop-color="#C5C5C5"/>
<stop offset="0.5494" stop-color="#A4A4A4"/>
<stop offset="0.6302" stop-color="#7B7B7B"/>
<stop offset="0.71" stop-color="#4B4B4B"/>
<stop offset="0.7869" stop-color="#141414"/>
<stop offset="0.8132"/>
</linearGradient>
</defs>
</svg>
