<svg width="120" height="138" viewBox="0 0 120 138" fill="none" xmlns="http://www.w3.org/2000/svg">
<g id="Group">
<path id="Vector" opacity="0.78" d="M120 101.271C120 102.407 119.195 103.805 118.213 104.374L61.7906 136.953C60.8048 137.522 59.194 137.522 58.2094 136.953L1.78997 104.374C0.802886 103.805 0 102.407 0 101.271V36.1108C0 34.9729 0.802886 33.5773 1.78997 33.0083L58.2094 0.426723C59.194 -0.142241 60.8048 -0.142241 61.7906 0.426723L118.213 33.0083C119.195 33.5773 120 34.9729 120 36.1108V101.271Z" fill="white"/>
<path id="Vector_2" d="M118.53 100.477C118.53 101.584 117.745 102.945 116.787 103.502L61.7458 135.284C60.7849 135.838 59.2127 135.838 58.253 135.284L3.21397 103.502C2.25178 102.946 1.46635 101.584 1.46635 100.477V36.9089C1.46635 35.7996 2.25178 34.4363 3.21397 33.881L58.253 2.09998C59.2127 1.54472 60.7836 1.54472 61.7458 2.09998L116.787 33.881C117.746 34.435 118.53 35.7996 118.53 36.9089V100.477Z" fill="#8CD4FA"/>
<g id="Group_2">
<g id="Clip path group">
<mask id="mask0_231_2283" style="mask-type:luminance" maskUnits="userSpaceOnUse" x="1" y="1" width="118" height="135">
<g id="SVGID_00000181059982636898880610000011170567608352401536_">
<path id="Vector_3" d="M118.717 100.661C118.717 101.771 117.929 103.129 116.972 103.687L61.9325 135.47C60.9703 136.024 59.3982 136.024 58.4385 135.47L3.39819 103.687C2.436 103.13 1.65057 101.771 1.65057 100.661V37.0931C1.65057 35.9838 2.436 34.6231 3.39819 34.0653L58.4385 2.28425C59.3969 1.72898 60.9691 1.72898 61.9325 2.28425L116.972 34.0653C117.929 34.6218 118.717 35.9838 118.717 37.0931V100.661Z" fill="white"/>
</g>
</mask>
<g mask="url(#mask0_231_2283)">
<path id="Vector_4" opacity="0.5" d="M33.4675 45.2105L49.6792 33.6532L67.5699 43.1588L82.1049 34.7712L88.0672 52.4801L110.616 88.0783L23.9639 134.304L-4.36285 102.429L-3.98815 51.2674L20.8645 37.2413L33.4675 45.2105Z" fill="url(#paint0_linear_231_2283)"/>
</g>
</g>
</g>
<g id="Group_3">
<path id="Vector_5" d="M41.9599 72.5273V72.3206C41.0188 66.0632 39.438 65.1357 30.0177 60.6911L17.7134 60.9513C8.29065 64.1434 5.8771 66.2674 5.04312 73.3626L4 82.7524H42.8611L41.9599 72.5273Z" fill="white"/>
<g id="Group_4">
<path id="Vector_6" d="M18.3918 57.7155L17.5566 60.8454L23.372 65.5366L23.1865 58.2384L18.3918 57.7155Z" fill="#94B0B7"/>
<path id="Vector_7" d="M28.0635 57.8213L28.8975 60.9513L23.0845 65.6412L23.2675 58.3417L28.0635 57.8213Z" fill="white"/>
</g>
<path id="Vector_8" d="M17.8516 59.7598C18.4279 60.4894 21.6668 62.8499 23.4194 62.6631C25.1682 62.4801 28.076 60.9152 28.6535 59.6627C29.1352 60.1856 30.8007 61.0023 30.8007 61.0023L23.0845 68.7811L15.8886 61.6808L17.8516 59.7598Z" fill="#94B0B7"/>
<path id="Vector_9" opacity="0.4" d="M28.1419 58.5945L19.2046 70.031L13.058 65.2253L21.9953 53.7925L28.1419 58.5945Z" fill="url(#paint1_linear_231_2283)"/>
<g id="Group_5">
<g id="Group_6">
<g id="Group_7">
<g id="Group_8">
<path id="Vector_10" d="M17.7533 57.7778C17.9885 58.094 18.2337 58.3903 18.4864 58.663C18.4877 58.6592 18.4914 58.6517 18.4914 58.643C18.2375 58.3778 17.991 58.084 17.7533 57.7778Z" fill="white"/>
</g>
<path id="Vector_11" d="M32.6367 49.7824C32.6367 48.7266 32.3317 48.2971 31.809 48.1241C31.9347 45.9615 32.2471 43.672 31.4542 42.0858C29.948 39.058 25.7869 37.1992 22.9463 37.1992C20.2216 37.1992 16.7487 38.7953 15.2239 41.6102C14.2854 43.3507 14.7596 45.6353 14.8829 47.9734C14.3016 48.1278 13.963 48.5411 13.963 49.6616C13.963 51.3262 14.7123 53.9556 15.8812 54.3291C16.028 54.7362 16.1961 55.1259 16.3766 55.5069C16.3878 55.5293 16.4015 55.5505 16.4114 55.5692C16.8135 56.3821 17.2653 57.1216 17.7533 57.7753C17.9898 58.0815 18.2374 58.3754 18.4914 58.6406C18.4914 58.6493 18.4876 58.6567 18.4864 58.6605C19.9004 60.198 21.5759 61.0919 23.3758 61.0919C26.1279 61.0919 28.5876 59.0153 30.2568 55.731C30.385 55.4857 30.5294 55.2666 30.6899 55.0711C30.7883 54.8259 30.8841 54.5831 30.965 54.3304C31.9932 53.6967 32.6367 51.3262 32.6367 49.7824Z" fill="#94B0B7"/>
</g>
</g>
<g id="Group_9">
<g id="Group_10">
<path id="Vector_12" d="M30.2568 55.7335C30.385 55.4882 30.5293 55.2691 30.6899 55.0736C30.7882 54.8309 30.8841 54.5856 30.965 54.3329C31.9932 53.6967 32.6379 51.3262 32.6379 49.7824C32.6379 48.7266 32.333 48.2996 31.8102 48.1241C31.9359 45.9615 32.2483 43.672 31.4554 42.0871C29.9667 39.0966 25.8877 37.2465 23.0496 37.203V61.0745C23.1592 61.0795 23.2675 61.0944 23.377 61.0944C26.1279 61.0944 28.5863 59.0178 30.2568 55.7335Z" fill="white"/>
</g>
</g>
<g id="Group_11">
<path id="Vector_13" d="M28.3896 41.1234C28.5602 42.5129 25.9549 42.4531 24.216 42.1668C22.4783 41.8792 21.4551 42.2228 19.832 42.6872C18.1926 43.1578 16.5869 44.851 16.3566 45.7001C16.2172 46.208 16.3367 48.6569 16.3367 48.6569L14.8816 47.9747C14.8816 47.9747 14.4111 44.5771 14.9314 42.2888C15.4343 40.0876 16.5122 38.1305 20.6224 37.2403C24.3491 36.436 26.9681 36.9228 27.0814 37.8479C27.3714 37.9076 27.6054 37.6748 27.949 37.6748C28.8191 37.6748 30.1335 38.7343 30.8891 39.9519C31.6409 41.1695 32.7014 43.3507 32.1799 47.1206C32.0616 48.1041 31.8612 48.3668 31.8612 48.3668L30.6476 49.0628C30.6476 49.0628 31.1878 44.3094 29.2161 42.9175C28.5938 42.4817 28.3896 41.1234 28.3896 41.1234Z" fill="#001244"/>
<g id="Group_12">
<g id="Group_13">
<g id="Group_14">
<path id="Vector_14" d="M29.2012 42.8652C31.1704 44.2571 30.6327 49.008 30.6327 49.008L31.8463 48.3133C31.8463 48.3133 32.0492 48.0506 32.1649 47.0695C32.689 43.2984 31.9645 41.0699 31.2102 39.8523C30.4571 38.6334 28.8041 37.6225 27.9353 37.6225C27.7622 37.6225 27.2868 37.7433 27.1498 37.7931C27.5195 39.0206 28.3797 40.7811 28.3722 41.0699C28.3722 41.0699 28.5788 42.4294 29.2012 42.8652Z" fill="#205F89"/>
</g>
<g id="Group_15">
<path id="Vector_15" d="M28.3735 41.0712C28.3698 41.1571 28.361 41.2741 28.3523 41.3949C28.3748 41.2953 28.386 41.1894 28.3735 41.0712Z" fill="#205F89"/>
</g>
</g>
</g>
</g>
</g>
</g>
<g id="Group_16">
<path id="Vector_16" d="M109.318 77.38V77.1733C108.377 70.9159 106.796 69.9884 97.3754 65.5438L85.0711 65.804C75.6483 68.9961 73.2348 71.1201 72.4008 78.2153L71.3577 87.6051H110.219L109.318 77.38Z" fill="white"/>
<g id="Group_17">
<path id="Vector_17" d="M85.7495 62.5682L84.9143 65.6981L90.7297 70.3893L90.5442 63.0911L85.7495 62.5682Z" fill="#94B0B7"/>
<path id="Vector_18" d="M95.4212 62.6741L96.2552 65.804L90.4422 70.4939L90.6252 63.1945L95.4212 62.6741Z" fill="white"/>
</g>
<path id="Vector_19" d="M85.2093 64.6125C85.7856 65.3421 89.0245 67.7026 90.7771 67.5159C92.5259 67.3328 95.4336 65.7679 96.0112 64.5154C96.4929 65.0383 98.1584 65.855 98.1584 65.855L90.4422 73.6338L83.2463 66.5336L85.2093 64.6125Z" fill="#94B0B7"/>
<path id="Vector_20" opacity="0.4" d="M95.4996 63.4472L86.5623 74.8838L80.4157 70.0781L89.353 58.6453L95.4996 63.4472Z" fill="url(#paint2_linear_231_2283)"/>
<g id="Group_18">
<g id="Group_19">
<g id="Group_20">
<g id="Group_21">
<path id="Vector_21" d="M85.111 62.6305C85.3462 62.9467 85.5914 63.243 85.8441 63.5157C85.8454 63.5119 85.8491 63.5045 85.8491 63.4958C85.5952 63.2306 85.3487 62.9368 85.111 62.6305Z" fill="white"/>
</g>
<path id="Vector_22" d="M99.9944 54.6351C99.9944 53.5794 99.6894 53.1498 99.1666 52.9768C99.2924 50.8142 99.6048 48.5247 98.8119 46.9386C97.3057 43.9107 93.1446 42.0519 90.304 42.0519C87.5793 42.0519 84.1064 43.648 82.5816 46.463C81.6431 48.2035 82.1173 50.488 82.2406 52.8262C81.6593 52.9805 81.3207 53.3939 81.3207 54.5144C81.3207 56.1789 82.07 58.8084 83.2389 59.1819C83.3857 59.589 83.5538 59.9787 83.7343 60.3596C83.7455 60.382 83.7592 60.4032 83.7691 60.4219C84.1712 61.2349 84.623 61.9744 85.111 62.628C85.3475 62.9343 85.5951 63.2281 85.8491 63.4933C85.8491 63.502 85.8453 63.5095 85.8441 63.5132C87.2581 65.0508 88.9336 65.9447 90.7335 65.9447C93.4856 65.9447 95.9453 63.868 97.6145 60.5837C97.7427 60.3384 97.8871 60.1193 98.0476 59.9239C98.146 59.6786 98.2418 59.4358 98.3227 59.1831C99.3509 58.5494 99.9944 56.1789 99.9944 54.6351Z" fill="#94B0B7"/>
</g>
</g>
<g id="Group_22">
<g id="Group_23">
<path id="Vector_23" d="M97.6144 60.5862C97.7427 60.3409 97.887 60.1218 98.0476 59.9263C98.1459 59.6836 98.2418 59.4383 98.3227 59.1856C99.3509 58.5494 99.9956 56.1789 99.9956 54.6351C99.9956 53.5793 99.6907 53.1523 99.1679 52.9768C99.2936 50.8142 99.606 48.5247 98.8131 46.9398C97.3244 43.9493 93.2454 42.0992 90.4073 42.0557V65.9272C90.5169 65.9322 90.6252 65.9471 90.7347 65.9471C93.4856 65.9471 95.944 63.8705 97.6144 60.5862Z" fill="white"/>
</g>
</g>
<g id="Group_24">
<path id="Vector_24" d="M95.7473 45.9762C95.9179 47.3656 93.3126 47.3058 91.5736 47.0195C89.836 46.7319 88.8128 47.0755 87.1897 47.5399C85.5503 48.0105 83.9446 49.7037 83.7143 50.5528C83.5749 51.0607 83.6944 53.5097 83.6944 53.5097L82.2393 52.8274C82.2393 52.8274 81.7688 49.4298 82.2891 47.1415C82.792 44.9403 83.8699 42.9832 87.9801 42.093C91.7068 41.2888 94.3258 41.7755 94.4391 42.7006C94.7291 42.7603 94.9631 42.5275 95.3067 42.5275C96.1768 42.5275 97.4912 43.587 98.2468 44.8046C98.9986 46.0222 100.059 48.2035 99.5376 51.9733C99.4193 52.9569 99.2189 53.2196 99.2189 53.2196L98.0053 53.9155C98.0053 53.9155 98.5455 49.1621 96.5738 47.7702C95.9515 47.3345 95.7473 45.9762 95.7473 45.9762Z" fill="#001244"/>
<g id="Group_25">
<g id="Group_26">
<g id="Group_27">
<path id="Vector_25" d="M96.5589 47.7179C98.5281 49.1098 97.9904 53.8607 97.9904 53.8607L99.204 53.166C99.204 53.166 99.4069 52.9033 99.5226 51.9223C100.047 48.1512 99.3222 45.9226 98.5679 44.705C97.8148 43.4862 96.1618 42.4752 95.293 42.4752C95.1199 42.4752 94.6445 42.596 94.5075 42.6458C94.8772 43.8734 95.7374 45.6338 95.7299 45.9226C95.7299 45.9226 95.9365 47.2822 96.5589 47.7179Z" fill="#205F89"/>
</g>
<g id="Group_28">
<path id="Vector_26" d="M95.7312 45.9239C95.7275 46.0098 95.7187 46.1268 95.71 46.2476C95.7325 46.148 95.7437 46.0422 95.7312 45.9239Z" fill="#205F89"/>
</g>
</g>
</g>
</g>
</g>
</g>
<path id="Vector_27" opacity="0.5" d="M54 91.4237L21.7134 112L2 92.9262L42.1903 70L54 91.4237Z" fill="url(#paint3_linear_231_2283)"/>
<g id="Group_29">
<path id="Vector_28" d="M86.0443 84.5004V84.1867C84.6315 74.7832 82.2541 73.3926 68.1001 66.7107L49.6081 67.1016C35.4478 71.9011 31.8218 75.0957 30.5684 85.7541L29 99.8624H87.4011L86.0443 84.5004Z" fill="#318FB5"/>
<g id="Group_30">
<path id="Vector_29" d="M50.6263 62.2436L49.3741 66.946L58.1122 73.9952L57.8359 63.0267L50.6263 62.2436Z" fill="#94B0B7"/>
<path id="Vector_30" d="M65.1637 62.4005L66.4171 67.1029L57.6778 74.1508L57.9566 63.1836L65.1637 62.4005Z" fill="white"/>
</g>
<path id="Vector_31" d="M49.9006 64.4373C50.7657 65.5354 55.3277 69.0725 57.9616 68.7911C60.593 68.5122 64.9621 66.1629 65.8284 64.2805C66.5504 65.0636 69.2764 67.18 69.2764 67.18L57.679 94.2189L46.8672 68.1972L49.9006 64.4373Z" fill="#001244"/>
<g id="Group_31">
<g id="Group_32">
<g id="Group_33">
<g id="Group_34">
<path id="Vector_32" d="M49.6703 62.3358C50.0213 62.8101 50.391 63.2546 50.7707 63.6642C50.7732 63.6592 50.7756 63.648 50.7794 63.6381C50.3947 63.2347 50.0263 62.7989 49.6703 62.3358Z" fill="white"/>
</g>
<path id="Vector_33" d="M72.0372 50.3203C72.0372 48.7292 71.5791 48.088 70.7937 47.8266C70.9817 44.5771 71.4497 41.136 70.2597 38.7543C67.9955 34.2076 61.7419 31.4113 57.4724 31.4113C53.3772 31.4113 48.158 33.8129 45.8676 38.0409C44.4573 40.6529 45.1718 44.0903 45.3535 47.6062C44.4847 47.8365 43.9756 48.459 43.9756 50.1423C43.9756 52.6435 45.0984 56.5938 46.8547 57.1566C47.08 57.7666 47.3302 58.3555 47.6015 58.9245C47.619 58.9606 47.6414 58.993 47.6563 59.0203C48.2625 60.2417 48.9396 61.3535 49.6728 62.3358C50.0288 62.7989 50.3973 63.2359 50.7819 63.6393C50.7782 63.6492 50.7756 63.6604 50.7732 63.6654C52.8979 65.9786 55.4161 67.3232 58.1209 67.3232C62.2547 67.3232 65.9516 64.1995 68.4623 59.2631C68.654 58.8933 68.8706 58.5672 69.1133 58.2733C69.2589 57.9048 69.4033 57.5413 69.5266 57.1591C71.0725 56.2017 72.0372 52.6397 72.0372 50.3203Z" fill="#94B0B7"/>
</g>
</g>
<g id="Group_35">
<g id="Group_36">
<path id="Vector_34" d="M68.4598 59.2619C68.6515 58.8921 68.8681 58.5659 69.1108 58.2721C69.2564 57.9061 69.4008 57.5401 69.524 57.1579C71.0713 56.2005 72.0372 52.6385 72.0372 50.3216C72.0372 48.7317 71.5792 48.0893 70.7937 47.8266C70.9817 44.5772 71.4497 41.136 70.2597 38.7556C68.0204 34.2611 61.8913 31.4823 57.6255 31.4163V67.2896C57.7911 67.2996 57.9541 67.3208 58.1184 67.3208C62.2535 67.322 65.9492 64.1983 68.4598 59.2619Z" fill="white"/>
</g>
</g>
<g id="Group_37">
<path id="Vector_35" d="M65.6529 37.3088C65.9106 39.3955 61.9946 39.3071 59.3819 38.8738C56.7692 38.4393 55.2344 38.9597 52.7934 39.6557C50.3288 40.3641 47.9165 42.9101 47.5717 44.185C47.3588 44.9482 47.5418 48.6259 47.5418 48.6259L45.3535 47.6062C45.3535 47.6062 44.3478 42.2266 45.1307 38.7879C45.8851 35.4787 47.8032 32.8069 53.9809 31.4735C59.5848 30.2622 63.5145 30.9942 63.6912 32.3849C64.1244 32.4745 64.4766 32.1259 64.9969 32.1259C66.3027 32.1259 68.7847 33.6473 69.9187 35.4775C71.0502 37.3089 72.1381 40.6566 71.3514 46.3214C71.1784 47.7979 70.8746 48.1926 70.8746 48.1926L69.0486 49.2372C69.0486 49.2372 69.8589 42.0959 66.8989 40.0043C65.9641 39.3469 65.6529 37.3088 65.6529 37.3088Z" fill="#001244"/>
<g id="Group_38">
<g id="Group_39">
<g id="Group_40">
<path id="Vector_36" d="M66.874 39.9271C69.834 42.0187 69.0262 49.1575 69.0262 49.1575L70.8485 48.1154C70.8485 48.1154 71.1522 47.722 71.3265 46.2442C72.1119 40.5794 71.0253 37.2304 69.8925 35.399C68.7598 33.5689 66.2778 32.0475 64.972 32.0475C64.7131 32.0475 63.9999 32.2293 63.792 32.3052C64.3472 34.1503 65.6405 36.7934 65.6293 37.2304C65.6293 37.2304 65.938 39.2672 66.874 39.9271Z" fill="#205F89"/>
</g>
<g id="Group_41">
<path id="Vector_37" d="M65.6282 37.2304C65.6257 37.3586 65.6081 37.5354 65.5969 37.7134C65.6306 37.5653 65.6494 37.4084 65.6282 37.2304Z" fill="#205F89"/>
</g>
</g>
</g>
</g>
</g>
</g>
</g>
<defs>
<linearGradient id="paint0_linear_231_2283" x1="7.17991" y1="118.777" x2="83.6048" y2="36.1581" gradientUnits="userSpaceOnUse">
<stop offset="0.1813" stop-color="white"/>
<stop offset="0.2558" stop-color="#F9F9F9"/>
<stop offset="0.359" stop-color="#E7E7E7"/>
<stop offset="0.4789" stop-color="#C9C9C9"/>
<stop offset="0.6115" stop-color="#A0A0A0"/>
<stop offset="0.7545" stop-color="#6C6C6C"/>
<stop offset="0.9038" stop-color="#2D2D2D"/>
<stop offset="1"/>
</linearGradient>
<linearGradient id="paint1_linear_231_2283" x1="25.0259" y1="70.9386" x2="27.5652" y2="54.6609" gradientUnits="userSpaceOnUse">
<stop offset="0.1044" stop-color="white"/>
<stop offset="0.206" stop-color="#FBFBFB"/>
<stop offset="0.2967" stop-color="#F1F1F1"/>
<stop offset="0.3832" stop-color="#DEDEDE"/>
<stop offset="0.4673" stop-color="#C5C5C5"/>
<stop offset="0.5494" stop-color="#A4A4A4"/>
<stop offset="0.6302" stop-color="#7B7B7B"/>
<stop offset="0.71" stop-color="#4B4B4B"/>
<stop offset="0.7869" stop-color="#141414"/>
<stop offset="0.8132"/>
</linearGradient>
<linearGradient id="paint2_linear_231_2283" x1="92.3836" y1="75.7913" x2="94.9229" y2="59.5136" gradientUnits="userSpaceOnUse">
<stop offset="0.1044" stop-color="white"/>
<stop offset="0.206" stop-color="#FBFBFB"/>
<stop offset="0.2967" stop-color="#F1F1F1"/>
<stop offset="0.3832" stop-color="#DEDEDE"/>
<stop offset="0.4673" stop-color="#C5C5C5"/>
<stop offset="0.5494" stop-color="#A4A4A4"/>
<stop offset="0.6302" stop-color="#7B7B7B"/>
<stop offset="0.71" stop-color="#4B4B4B"/>
<stop offset="0.7869" stop-color="#141414"/>
<stop offset="0.8132"/>
</linearGradient>
<linearGradient id="paint3_linear_231_2283" x1="1.86551" y1="112.976" x2="54.1702" y2="70.2054" gradientUnits="userSpaceOnUse">
<stop offset="0.3846" stop-color="white"/>
<stop offset="0.462" stop-color="#E6E6E6"/>
<stop offset="0.6269" stop-color="#A5A5A5"/>
<stop offset="0.8641" stop-color="#79B1C9"/>
<stop offset="1" stop-color="#205F89"/>
</linearGradient>
</defs>
</svg>
