<svg width="120" height="138" viewBox="0 0 120 138" fill="none" xmlns="http://www.w3.org/2000/svg">
<g id="Group">
<path id="Vector" opacity="0.78" d="M120 102.722C120 103.832 119.195 105.198 118.213 105.753L61.7924 137.583C60.8066 138.139 59.1947 138.139 58.2113 137.583L1.79242 105.753C0.805347 105.197 0 103.832 0 102.722V39.0613C0 37.9496 0.804102 36.5849 1.79242 36.029L58.2101 4.19879C59.1934 3.64292 60.8053 3.64292 61.7912 4.19879L118.211 36.029C119.193 36.5849 119.999 37.9496 119.999 39.0613L120 102.722Z" fill="white"/>
<path id="Vector_2" d="M118.532 101.942C118.532 103.027 117.746 104.358 116.787 104.899L61.7488 135.951C60.7867 136.492 59.2146 136.492 58.2561 135.951L3.21639 104.899C2.25545 104.358 1.46878 103.026 1.46878 101.942V39.8398C1.46878 38.7548 2.25421 37.4254 3.21639 36.8817L58.2561 5.8311C59.2158 5.28862 60.7867 5.28862 61.7488 5.8311L116.787 36.8817C117.746 37.4241 118.532 38.7548 118.532 39.8398V101.942Z" fill="#8CD4FA"/>
<path id="Vector_3" opacity="0.5" d="M110.672 67.0163L84.1641 85.0886L45.5909 79.991L44.4732 32.9188L69.1488 15.2309L110.672 67.0163Z" fill="url(#paint0_linear_222_1122)"/>
<g id="Group_2">
<path id="Vector_4" d="M110.61 67.0151C110.61 67.2426 110.424 67.425 110.198 67.425H69.0218C68.7928 67.425 68.6098 67.2413 68.6098 67.0151V15.4937C68.6098 15.2674 68.7941 15.0825 69.0218 15.0825H110.198C110.424 15.0825 110.61 15.2674 110.61 15.4937V67.0151Z" fill="white"/>
<g id="Group_3">
<path id="Vector_5" d="M105.001 21.2056H88.2717V22.5861H105.001V21.2056Z" fill="#ADADAD"/>
<path id="Vector_6" d="M105.001 23.5215H88.2717V24.8996H105.001V23.5215Z" fill="#ADADAD"/>
<path id="Vector_7" d="M105.001 25.8763H88.2717V27.2556H105.001V25.8763Z" fill="#ADADAD"/>
<path id="Vector_8" d="M105.001 28.2274H88.2717V29.6068H105.001V28.2274Z" fill="#ADADAD"/>
</g>
<g id="Group_4">
<path id="Vector_9" d="M105.001 35.281H88.2717V36.6615H105.001V35.281Z" fill="#ADADAD"/>
<path id="Vector_10" d="M105.001 37.5981H88.2717V38.9774H105.001V37.5981Z" fill="#ADADAD"/>
<path id="Vector_11" d="M105.001 39.9517H88.2717V41.331H105.001V39.9517Z" fill="#ADADAD"/>
<path id="Vector_12" d="M105.001 42.3041H88.2717V43.6834H105.001V42.3041Z" fill="#ADADAD"/>
</g>
<g id="Group_5">
<path id="Vector_13" d="M105.001 49.0839H88.2717V50.4645H105.001V49.0839Z" fill="#ADADAD"/>
<path id="Vector_14" d="M105.001 51.3998H88.2717V52.7791H105.001V51.3998Z" fill="#ADADAD"/>
<path id="Vector_15" d="M105.001 53.7534H88.2717V55.1327H105.001V53.7534Z" fill="#ADADAD"/>
<path id="Vector_16" d="M105.001 56.1058H88.2717V57.4851H105.001V56.1058Z" fill="#ADADAD"/>
</g>
<g id="Group_6">
<path id="Vector_17" d="M83.518 25.5357C83.518 27.7543 81.6771 29.5532 79.4054 29.5532C77.135 29.5532 75.2941 27.7543 75.2941 25.5357C75.2941 23.3159 77.135 21.5169 79.4054 21.5169C81.6771 21.5169 83.518 23.3159 83.518 25.5357Z" fill="#BC0202"/>
<g id="Group_7">
<g id="Group_8">
<path id="Vector_18" d="M78.2155 25.8726H77.9877V26.3288H77.6802V25.8726H76.8786V25.6561L77.5968 24.559H77.9864V25.6245H78.2142L78.2155 25.8726ZM77.679 25.6245V25.2231C77.679 25.1209 77.6877 24.9592 77.6927 24.8558H77.6815C77.6354 24.9482 77.5844 25.037 77.5334 25.1319L77.2023 25.6245H77.679Z" fill="white"/>
<path id="Vector_19" d="M78.3997 25.436C78.3997 24.8375 78.6387 24.5261 79.0146 24.5261C79.3905 24.5261 79.6295 24.84 79.6295 25.436C79.6295 26.0344 79.3905 26.3628 79.0146 26.3628C78.6387 26.3628 78.3997 26.0344 78.3997 25.436ZM79.317 25.436C79.317 24.9348 79.1913 24.7767 79.0146 24.7767C78.8403 24.7767 78.7121 24.9361 78.7121 25.436C78.7121 25.9371 78.8403 26.1122 79.0146 26.1122C79.1913 26.1122 79.317 25.9371 79.317 25.436Z" fill="white"/>
<path id="Vector_20" d="M79.8299 25.0492C79.8299 24.6843 80.0116 24.4751 80.2743 24.4751C80.5357 24.4751 80.7186 24.6843 80.7186 25.0492C80.7186 25.4165 80.5369 25.6281 80.2743 25.6281C80.0116 25.6281 79.8299 25.4165 79.8299 25.0492ZM80.4821 25.0492C80.4821 24.7755 80.3938 24.6624 80.2743 24.6624C80.1548 24.6624 80.0664 24.7767 80.0664 25.0492C80.0664 25.3216 80.1548 25.442 80.2743 25.442C80.3938 25.4408 80.4821 25.3216 80.4821 25.0492ZM80.334 26.3628L81.351 24.4751H81.5501L80.5332 26.3628H80.334ZM81.1655 25.7838C81.1655 25.4189 81.3472 25.2109 81.6099 25.2109C81.8725 25.2109 82.0542 25.4189 82.0542 25.7838C82.0542 26.1512 81.8725 26.3628 81.6099 26.3628C81.3485 26.3628 81.1655 26.1512 81.1655 25.7838ZM81.8177 25.7838C81.8177 25.5114 81.7294 25.397 81.6099 25.397C81.4904 25.397 81.402 25.5114 81.402 25.7838C81.402 26.0575 81.4904 26.1767 81.6099 26.1767C81.7294 26.1755 81.8177 26.0563 81.8177 25.7838Z" fill="white"/>
</g>
</g>
</g>
<g id="Group_9">
<path id="Vector_21" d="M83.518 39.3095C83.518 41.5281 81.6771 43.327 79.4054 43.327C77.135 43.327 75.2941 41.5281 75.2941 39.3095C75.2941 37.0909 77.135 35.2907 79.4054 35.2907C81.6771 35.2919 83.518 37.0909 83.518 39.3095Z" fill="#F27B57"/>
<g id="Group_10">
<g id="Group_11">
<path id="Vector_22" d="M76.9359 39.9152C77.44 39.4384 77.7562 39.127 77.7562 38.857C77.7562 38.6709 77.6516 38.5505 77.4574 38.5505C77.318 38.5505 77.201 38.6429 77.1039 38.7487L76.9222 38.5711C77.0877 38.3984 77.252 38.2987 77.4997 38.2987C77.847 38.2987 78.0723 38.5127 78.0723 38.8412C78.0723 39.155 77.7736 39.4785 77.4151 39.8483C77.5084 39.8398 77.6279 39.8288 77.7176 39.8288H78.1619V40.1013H76.9371L76.9359 39.9152Z" fill="white"/>
<path id="Vector_23" d="M78.3997 39.2085C78.3997 38.6101 78.6387 38.2987 79.0146 38.2987C79.3905 38.2987 79.6295 38.6125 79.6295 39.2085C79.6295 39.8069 79.3905 40.1353 79.0146 40.1353C78.6387 40.1353 78.3997 39.8069 78.3997 39.2085ZM79.317 39.2085C79.317 38.7074 79.1913 38.5492 79.0146 38.5492C78.8403 38.5492 78.7121 38.7086 78.7121 39.2085C78.7121 39.7096 78.8403 39.8848 79.0146 39.8848C79.1913 39.8848 79.317 39.7096 79.317 39.2085Z" fill="white"/>
<path id="Vector_24" d="M79.8299 38.8217C79.8299 38.4568 80.0116 38.2476 80.2743 38.2476C80.5357 38.2476 80.7186 38.4568 80.7186 38.8217C80.7186 39.189 80.5369 39.4007 80.2743 39.4007C80.0116 39.4007 79.8299 39.189 79.8299 38.8217ZM80.4821 38.8217C80.4821 38.548 80.3938 38.4349 80.2743 38.4349C80.1548 38.4349 80.0664 38.5492 80.0664 38.8217C80.0664 39.0942 80.1548 39.2146 80.2743 39.2146C80.3938 39.2146 80.4821 39.0942 80.4821 38.8217ZM80.334 40.1353L81.351 38.2476H81.5501L80.5332 40.1353H80.334ZM81.1655 39.5564C81.1655 39.1915 81.3472 38.9835 81.6099 38.9835C81.8725 38.9835 82.0542 39.1915 82.0542 39.5564C82.0542 39.9237 81.8725 40.1353 81.6099 40.1353C81.3485 40.1353 81.1655 39.9237 81.1655 39.5564ZM81.8177 39.5564C81.8177 39.2839 81.7294 39.1696 81.6099 39.1696C81.4904 39.1696 81.402 39.2839 81.402 39.5564C81.402 39.83 81.4904 39.9492 81.6099 39.9492C81.7294 39.9492 81.8177 39.83 81.8177 39.5564Z" fill="white"/>
</g>
</g>
</g>
<g id="Group_12">
<path id="Vector_25" d="M83.518 52.9409C83.518 55.1595 81.6771 56.9585 79.4054 56.9585C77.135 56.9585 75.2941 55.1595 75.2941 52.9409C75.2941 50.7223 77.135 48.9221 79.4054 48.9221C81.6771 48.9234 83.518 50.7223 83.518 52.9409Z" fill="#E00A0A"/>
<g id="Group_13">
<g id="Group_14">
<path id="Vector_26" d="M77.9727 52.3255C77.908 52.2476 77.7935 52.1917 77.6852 52.1917C77.4574 52.1917 77.272 52.3559 77.2583 52.8461C77.3641 52.7147 77.5209 52.6368 77.6516 52.6368C77.964 52.6368 78.1819 52.8144 78.1819 53.1854C78.1819 53.5394 77.923 53.7668 77.6118 53.7668C77.2558 53.7668 76.9533 53.4968 76.9533 52.9008C76.9533 52.2136 77.2956 51.9302 77.6653 51.9302C77.8844 51.9302 78.0412 52.0189 78.1495 52.1308L77.9727 52.3255ZM77.8757 53.1866C77.8757 52.9774 77.7711 52.8716 77.5906 52.8716C77.4885 52.8716 77.369 52.9275 77.2657 53.0747C77.2993 53.3898 77.4276 53.5236 77.6056 53.5236C77.7562 53.5236 77.8757 53.4031 77.8757 53.1866Z" fill="white"/>
<path id="Vector_27" d="M78.3997 52.8412C78.3997 52.2427 78.6387 51.9314 79.0146 51.9314C79.3905 51.9314 79.6295 52.2452 79.6295 52.8412C79.6295 53.4396 79.3905 53.768 79.0146 53.768C78.6387 53.768 78.3997 53.4396 78.3997 52.8412ZM79.317 52.8412C79.317 52.34 79.1913 52.1819 79.0146 52.1819C78.8403 52.1819 78.7121 52.3413 78.7121 52.8412C78.7121 53.3423 78.8403 53.5175 79.0146 53.5175C79.1913 53.5175 79.317 53.3423 79.317 52.8412Z" fill="white"/>
<path id="Vector_28" d="M79.8299 52.4544C79.8299 52.0895 80.0116 51.8803 80.2743 51.8803C80.5357 51.8803 80.7186 52.0895 80.7186 52.4544C80.7186 52.8217 80.5369 53.0334 80.2743 53.0334C80.0116 53.0334 79.8299 52.8217 79.8299 52.4544ZM80.4821 52.4544C80.4821 52.1807 80.3938 52.0676 80.2743 52.0676C80.1548 52.0676 80.0664 52.1819 80.0664 52.4544C80.0664 52.7268 80.1548 52.8473 80.2743 52.8473C80.3938 52.8473 80.4821 52.7268 80.4821 52.4544ZM80.334 53.768L81.351 51.8803H81.5501L80.5332 53.768H80.334ZM81.1655 53.1891C81.1655 52.8242 81.3472 52.6162 81.6099 52.6162C81.8725 52.6162 82.0542 52.8242 82.0542 53.1891C82.0542 53.5564 81.8725 53.768 81.6099 53.768C81.3485 53.768 81.1655 53.5564 81.1655 53.1891ZM81.8177 53.1891C81.8177 52.9166 81.7294 52.8023 81.6099 52.8023C81.4904 52.8023 81.402 52.9166 81.402 53.1891C81.402 53.4627 81.4904 53.5819 81.6099 53.5819C81.7294 53.5819 81.8177 53.4627 81.8177 53.1891Z" fill="white"/>
</g>
</g>
</g>
</g>
<g id="Group_15">
<g id="Clip path group">
<mask id="mask0_222_1122" style="mask-type:luminance" maskUnits="userSpaceOnUse" x="1" y="5" width="118" height="132">
<g id="SVGID_00000053545741675975397330000009378736240037723549_">
<path id="Vector_29" d="M118.532 101.942C118.532 103.027 117.746 104.358 116.787 104.899L61.7488 135.951C60.7867 136.492 59.2146 136.492 58.2561 135.951L3.21639 104.899C2.25545 104.358 1.46878 103.026 1.46878 101.942V39.8398C1.46878 38.7548 2.25421 37.4254 3.21639 36.8817L58.2561 5.8311C59.2158 5.28862 60.7867 5.28862 61.7488 5.8311L116.787 36.8817C117.746 37.4241 118.532 38.7548 118.532 39.8398V101.942Z" fill="white"/>
</g>
</mask>
<g mask="url(#mask0_222_1122)">
<path id="Vector_30" opacity="0.5" d="M57.8889 20.764L49.9239 26.7739L57.8889 49.3077L53.8834 51.6747L25.8382 71.4316L33.4311 76.0756L68.3883 73.8764L70.0015 75.9844L54.9078 89.6413L58.2624 92.1896L68.3248 83.4502L76.1517 83.3857L76.3384 86.2721L80.1573 83.3748L87.7987 83.3188L87.9829 86.3633L92.3619 83.3115L99.9112 83.2678L97.5811 116.227L52.8577 142.085L-0.250179 110.218L-3.46533 53.5406L46.4287 19.5355L57.8889 20.764Z" fill="url(#paint1_linear_222_1122)"/>
</g>
</g>
</g>
<g id="Group_16">
<g id="Group_17">
<g id="Group_18">
<g id="Group_19">
<path id="Vector_31" d="M45.6544 80.8777H58.6021V75.2558H45.6544V80.8777Z" fill="#001244"/>
</g>
</g>
<g id="Group_20">
<path id="Vector_32" d="M43.155 84.4962C43.155 84.7736 43.3467 84.9962 43.5832 84.9962H60.6734C60.9099 84.9962 61.1003 84.7736 61.1003 84.4962V81.9967C61.1003 81.723 60.9099 81.5004 60.6734 81.5004H43.5832C43.3467 81.5004 43.155 81.723 43.155 81.9967V84.4962Z" fill="#001244"/>
</g>
<g id="Group_21">
<g id="Group_22">
<g id="Group_23">
<path id="Vector_33" d="M47.041 0.665334C47.041 1.03267 47.3261 1.3331 47.6734 1.3331H56.2471C56.5932 1.3331 56.8769 1.03267 56.8769 0.665334C56.8769 0.298002 56.5932 0 56.2471 0H47.6734C47.3261 0 47.041 0.298002 47.041 0.665334Z" fill="#001244"/>
</g>
<g id="Group_24">
<g id="Group_25">
<path id="Vector_34" d="M55.9011 1.70165H48.0194V19.9381H55.9011V1.70165Z" fill="#001244"/>
</g>
</g>
<path id="Vector_35" d="M45.9967 20.8334C45.9967 19.1901 47.3597 17.8521 49.0451 17.8521H54.8717C56.5571 17.8521 57.9201 19.1889 57.9201 20.8334H45.9967Z" fill="#94B0B7"/>
</g>
<path id="Vector_36" d="M57.9226 21.506H45.9967V49.3965H57.9226V21.506Z" fill="#94B0B7"/>
<g id="Group_26">
<path id="Vector_37" d="M45.9967 50.2334H57.9226C57.9226 51.8791 54.339 53.1745 54.4211 53.2122V54.4127H49.4534V53.1866C49.0551 52.9993 45.9967 51.7684 45.9967 50.2334Z" fill="#001244"/>
</g>
</g>
<g id="Group_27">
<g id="Group_28">
<g id="Group_29">
<g id="Group_30">
<path id="Vector_38" d="M55.433 63.4099C55.5824 63.4293 56.0915 63.3843 56.8806 63.2469C57.6735 63.1082 58.2362 62.9538 58.2984 62.9124L58.4876 63.9378C58.4776 64.0327 57.854 64.2127 57.0835 64.3477C56.3081 64.479 55.6658 64.5216 55.6235 64.4365L55.433 63.4099Z" fill="#001244"/>
</g>
</g>
<g id="Group_31">
<g id="Group_32">
<path id="Vector_39" d="M53.7439 58.3755L54.6762 63.1836C54.7522 63.2445 55.687 63.1386 56.8209 62.944C57.9561 62.747 58.871 62.5329 58.9195 62.4502L57.9935 57.6396C57.9935 57.6396 57.0039 57.9011 55.8973 58.0921C54.7982 58.2818 53.7439 58.3755 53.7439 58.3755Z" fill="#001244"/>
</g>
</g>
<g id="Group_33">
<g id="Group_34">
<path id="Vector_40" d="M53.4116 58.1322C53.5161 58.2709 53.6406 58.3816 53.7601 58.4594C53.7601 58.4594 54.6563 58.4266 55.9471 58.1979C57.0487 58.0009 57.9984 57.7783 58.0208 57.7333C58.0208 57.7333 58.1739 57.5764 58.2349 57.4207L53.4116 58.1322Z" fill="#001244"/>
</g>
</g>
</g>
<g id="Group_35">
<g id="Group_36">
<g id="Group_37">
<g id="Group_38">
<path id="Vector_41" d="M48.7675 68.1609C48.9405 68.2144 49.5355 68.257 50.4753 68.2521C51.42 68.2448 52.1021 68.173 52.1843 68.1366L52.1967 69.3626C52.1644 69.4684 51.4076 69.5548 50.4852 69.5609C49.5616 69.567 48.8123 69.4915 48.7787 69.3869L48.7675 68.1609Z" fill="#001244"/>
</g>
</g>
</g>
<g id="Group_39">
<g id="Group_40">
<path id="Vector_42" d="M47.9497 59.261L47.9385 67.74C48.0132 67.8312 49.1173 67.8945 50.4666 67.8848C51.8183 67.8775 52.9212 67.7972 52.9971 67.7072L53.0469 59.0384C52.9237 59.0809 51.9092 59.2147 50.5935 59.2233C49.2778 59.233 48.0767 59.3011 47.9497 59.261Z" fill="#001244"/>
</g>
</g>
<g id="Group_41">
<g id="Group_42">
<path id="Vector_43" d="M47.4369 58.8851C47.5713 59.115 48.0057 59.5006 48.0057 59.5006C48.1327 59.5419 49.0637 59.52 50.3807 59.5115C51.6963 59.5042 52.8963 59.4215 52.8963 59.4215C53.2411 59.1697 53.4514 58.7294 53.5224 58.1213L47.4369 58.8851Z" fill="#001244"/>
</g>
</g>
</g>
<g id="Group_43">
<g id="Group_44">
<g id="Group_45">
<g id="Group_46">
<path id="Vector_44" d="M61.3244 64.2114C61.5123 64.2175 62.1198 64.102 63.0658 63.8392C64.0118 63.579 64.6777 63.3211 64.7462 63.2651L65.1084 64.4924C65.1046 64.6067 64.369 64.8999 63.4454 65.1565C62.5206 65.4095 61.7463 65.5372 61.6804 65.4399L61.3244 64.2114Z" fill="#001244"/>
</g>
</g>
</g>
<g id="Group_47">
<g id="Group_48">
<path id="Vector_45" d="M58.6706 58.1918L60.3746 64.029C60.473 64.0898 61.5982 63.8514 62.955 63.478C64.3092 63.1034 65.3984 62.7336 65.4469 62.629L63.7529 56.7882C63.7529 56.7882 62.5766 57.226 61.2609 57.5909C59.9402 57.9522 58.6706 58.1918 58.6706 58.1918Z" fill="#001244"/>
</g>
</g>
<g id="Group_49">
<g id="Group_50">
<path id="Vector_46" d="M58.1677 57.4304C58.1092 57.58 58.0034 57.732 57.9997 57.7406C58.1677 58.0361 58.5001 58.3949 58.7839 58.4132C58.7839 58.4132 59.7311 58.2502 61.2721 57.8172C62.5915 57.4462 63.7205 57.0606 63.7417 57.0047C63.7417 57.0047 63.8948 56.7261 63.9246 56.5145L58.1677 57.4304Z" fill="#001244"/>
</g>
</g>
</g>
</g>
<g id="Group_51">
<path id="Vector_47" d="M46.9452 58.4679L45.0607 57.0497C45.0246 56.8222 45.1851 56.6081 45.4216 56.5704L64.8159 53.4785C65.0511 53.442 65.2752 53.5941 65.3125 53.8215L63.9794 55.8698L46.9452 58.4679Z" fill="#94B0B7"/>
<path id="Vector_48" d="M46.1697 56.107L63.9545 53.273L63.84 52.5845C63.7989 52.3437 63.5662 52.1795 63.3197 52.2196L46.4299 54.9114C46.1822 54.9515 46.0141 55.179 46.0552 55.4222L46.1697 56.107Z" fill="#94B0B7"/>
</g>
<g id="Group_52">
<path id="Vector_49" d="M54.5978 72.1735C55.1829 71.8926 55.7106 71.5982 55.8998 71.4656C56.0069 71.3902 56.0293 71.2479 55.9521 71.1445C55.8749 71.0399 55.7281 71.018 55.621 71.0947C55.494 71.1859 54.9513 71.4924 54.3925 71.7588C53.8385 72.0276 53.2087 72.2563 52.9984 72.2453C52.8154 72.2453 51.5818 72.058 50.1529 71.8245C48.7102 71.5909 47.0361 71.3112 45.861 71.1238C45.0694 70.9974 44.5379 70.9159 44.3699 70.911C44.157 70.9159 43.9578 71.0034 43.7039 71.1178C43.4562 71.2345 43.1799 71.3866 42.9185 71.5386C42.3994 71.8415 41.2543 72.4691 41.253 72.4715C41.1447 72.5421 41.1186 72.6856 41.1883 72.7902C41.2617 72.8948 41.4086 72.924 41.5169 72.8535C41.5207 72.8523 43.2259 71.8549 43.9093 71.5338C44.1296 71.4279 44.3375 71.3671 44.3624 71.3744C44.4296 71.3732 45.0134 71.4559 45.7851 71.5824C46.5668 71.7065 47.5713 71.8731 48.582 72.0373C50.6159 72.3706 52.6162 72.7002 52.9921 72.7087C53.4116 72.7002 54.0066 72.4472 54.5978 72.1735Z" fill="#94B0B7"/>
<g id="Group_53">
<g id="Group_54">
<path id="Vector_50" d="M41.6364 71.0387H39.9709V72.963H41.6364V71.0387Z" fill="#001244"/>
<path id="Vector_51" d="M39.2876 71.1506C39.2876 71.3951 39.493 71.5934 39.7444 71.5934H41.863C42.1156 71.5934 42.3185 71.3951 42.3185 71.1506V70.2627C42.3185 70.017 42.1156 69.8175 41.863 69.8175H39.7444C39.493 69.8175 39.2876 70.017 39.2876 70.2627V71.1506Z" fill="#001244"/>
</g>
</g>
</g>
<path id="Vector_52" d="M58.6308 98.5327C58.6308 98.7748 58.4254 98.9755 58.1752 98.9755H45.113C44.8628 98.9755 44.6599 98.7748 44.6599 98.5327V93.4253C44.6599 93.4095 44.6649 93.3986 44.6674 93.3815C45.2437 93.7294 48.1377 93.9909 51.6317 93.9909C55.1754 93.9909 58.1043 93.7197 58.6208 93.367C58.6258 93.3876 58.6296 93.4059 58.6296 93.4253V98.5327H58.6308Z" fill="#94B0B7"/>
<path id="Vector_53" d="M44.7096 92.4316L44.7457 92.5788C45.0669 93.0446 48.0256 93.3463 51.659 93.3463C55.2924 93.3463 58.2038 93.0227 58.5249 92.5593C58.5249 92.5593 58.5859 92.3671 58.5635 92.3379C58.5162 91.6106 58.2424 90.9781 57.696 90.6168C57.1906 90.2094 54.8268 89.8797 51.6677 89.8797C48.6181 89.8797 46.288 90.196 45.7291 90.5828C45.0868 90.9598 44.7096 91.5923 44.7096 92.4316ZM47.2576 90.9392C48.2248 90.5548 49.8292 90.3042 51.6478 90.3042C53.4639 90.3042 55.0633 90.5536 56.0317 90.9355C54.9376 91.0936 53.3693 91.1946 51.6329 91.1946C49.9089 91.1934 48.3517 91.0948 47.2576 90.9392Z" fill="#94B0B7"/>
<g id="Group_55">
<path id="Vector_54" d="M26.6299 99.5812H39.3511V87.6003H39.3473C39.3473 87.5869 39.3511 87.5748 39.3511 87.5614C39.3511 86.1614 38.1885 85.0253 36.7558 85.0253C35.7027 85.0253 34.7679 85.6578 34.2887 86.6005L26.6299 99.5812ZM35.1102 87.9299C35.1102 87.0858 35.811 86.4022 36.6749 86.4022C37.5387 86.4022 38.237 87.0858 38.237 87.9299C38.237 88.7741 37.5375 89.4589 36.6749 89.4589C35.811 89.4589 35.1102 88.7741 35.1102 87.9299Z" fill="#94B0B7"/>
<g id="Group_56">
<path id="Vector_55" d="M35.6853 87.9032C35.6853 88.4067 36.1035 88.8154 36.6213 88.8154C37.1317 88.8154 37.5524 88.4067 37.5524 87.9032C37.5524 87.4021 37.1329 86.9934 36.6213 86.9934C36.1048 86.9921 35.6853 87.4008 35.6853 87.9032Z" fill="#001244"/>
</g>
</g>
<g id="Group_57">
<g id="Group_58">
<g id="Group_59">
<g id="Group_60">
<path id="Vector_56" d="M34.8824 34.8796C34.8824 36.8585 36.5218 38.4629 38.5494 38.4629C40.5771 38.4629 42.2164 36.8598 42.2164 34.8796C42.2164 32.8994 40.5759 31.2963 38.5494 31.2963C36.5218 31.295 34.8824 32.8982 34.8824 34.8796ZM37.347 34.8796C37.347 34.23 37.886 33.7034 38.5482 33.7034C39.2116 33.7034 39.7506 34.2313 39.7506 34.8796C39.7506 35.5279 39.2116 36.0558 38.5482 36.0558C37.886 36.0545 37.347 35.5267 37.347 34.8796Z" fill="#001244"/>
</g>
</g>
<path id="Vector_57" d="M37.7229 34.8796C37.7229 35.326 38.0926 35.6872 38.5482 35.6872C39.005 35.6872 39.3759 35.3272 39.3759 34.8796C39.3759 34.4356 39.005 34.0731 38.5482 34.0731C38.0926 34.0731 37.7229 34.4356 37.7229 34.8796ZM38.0117 34.3188C38.0379 34.2957 38.0876 34.3042 38.1225 34.3395L39.0872 35.3089C39.1208 35.3454 39.1307 35.3941 39.1058 35.416C39.0797 35.4415 39.0312 35.433 38.9951 35.3977L38.0304 34.4271C37.9943 34.3906 37.9881 34.3432 38.0117 34.3188Z" fill="#94B0B7"/>
</g>
<g id="Group_61">
<path id="Vector_58" d="M31.7731 44.131C31.7731 44.9727 32.4677 45.6502 33.3266 45.6502C34.1829 45.6502 34.88 44.9715 34.88 44.131C34.88 43.2942 34.1829 42.6154 33.3266 42.6154C32.4677 42.6154 31.7731 43.2942 31.7731 44.131Z" fill="#001244"/>
</g>
<g id="Group_62">
<g id="Group_63">
<path id="Vector_59" d="M14.5808 63.0997C14.5808 74.9663 22.4152 86.8207 28.2654 93.9593L33.3315 85.3586C34.1829 84.0523 35.3467 83.2762 37.2549 83.3079C39.2527 83.3407 40.8074 84.9584 40.7427 87.8764C40.7427 87.891 40.785 96.7739 40.7128 101.153L41.8791 101.147V75.5525C41.8791 75.5525 39.7743 75.9223 34.9061 75.6584C30.0292 75.392 26.0834 68.7873 25.2706 60.8519C24.459 52.9166 29.423 50.9242 32.6718 50.1312C35.1326 49.5291 41.965 49.54 45.1341 49.5814V25.2401C41.1335 25.2888 36.1334 26.285 31.6362 29.6384C26.4929 33.4747 14.5808 44.7161 14.5808 63.0997ZM38.5084 39.5114C35.9156 39.5114 33.8157 37.4582 33.8157 34.927C33.8157 32.3934 35.9156 30.3402 38.5084 30.3402C41.1012 30.3402 43.201 32.3934 43.201 34.927C43.201 37.4594 41.1012 39.5114 38.5084 39.5114ZM30.6827 44.1371C30.6827 42.6957 31.8777 41.5317 33.3489 41.5317C34.8202 41.5317 36.0164 42.6957 36.0164 44.1371C36.0164 45.576 34.8215 46.7425 33.3489 46.7425C31.8764 46.7425 30.6827 45.576 30.6827 44.1371Z" fill="#001244"/>
</g>
</g>
</g>
<g id="Group_64">
<path id="Vector_60" d="M17.9441 102.687C17.9441 103.051 18.2528 103.351 18.6275 103.351H69.7388C70.1135 103.351 70.4184 103.051 70.4184 102.687V97.8005C70.4184 97.4344 70.1135 97.1352 69.7388 97.1352H18.6275C18.2515 97.1352 17.9441 97.4344 17.9441 97.8005V102.687Z" fill="#001244"/>
</g>
<path id="Vector_61" d="M35.6617 75.5209C35.6617 75.7094 35.8185 75.8627 36.0139 75.8627H69.7239C69.9168 75.8627 70.0736 75.7107 70.0736 75.5209V73.0092C70.0736 72.8194 69.9168 72.6662 69.7239 72.6662H36.0139C35.8185 72.6662 35.6617 72.8194 35.6617 73.0092V75.5209Z" fill="#94B0B7"/>
</g>
</g>
<g id="Group_65">
<path id="Vector_62" d="M111.456 106.663H66.0556V111.934H111.456V106.663Z" fill="white"/>
<g id="Group_66">
<path id="Vector_63" d="M85.2943 89.5166C85.2943 89.5166 85.1673 118.01 85.2943 118.998C85.4225 119.987 86.5602 121.809 88.8666 121.779C90.4475 121.757 92.2486 121.347 92.6282 118.813C93.0091 116.28 92.7552 89.5312 92.7552 89.5312L85.2943 89.5166Z" fill="white"/>
<g id="Group_67">
<path id="Vector_64" d="M85.9191 90.7925C85.9166 91.0869 86.1531 91.3277 86.4481 91.3277L91.5839 91.3533C91.8764 91.3545 92.1154 91.1161 92.1179 90.8217L92.1328 88.4341C92.1341 88.1397 91.8988 87.8989 91.6051 87.8977L86.4705 87.8745C86.1768 87.8733 85.9365 88.1117 85.9341 88.4061L85.9191 90.7925Z" fill="#BDDFEF"/>
<path id="Vector_65" d="M85.0117 118.402L85.0478 89.3414C85.0478 89.2758 85.0764 89.2137 85.1275 89.1736C85.1785 89.1322 85.2457 89.1152 85.3105 89.1286C85.3105 89.1261 85.6801 89.1967 86.2689 89.2502C86.951 89.3122 87.9468 89.3305 89.0011 89.3354C90.2508 89.3414 91.4308 89.2977 92.1067 89.2429C92.4752 89.2137 92.6793 89.1626 92.6793 89.1626C92.7465 89.1456 92.8162 89.1614 92.871 89.2028C92.9258 89.2441 92.9569 89.3062 92.9569 89.3743L92.922 118.437C92.9158 119.316 92.5673 120.12 91.9984 120.739C91.2852 121.512 90.2272 122.002 89.0472 121.996L88.8405 121.995C87.8248 121.989 86.9012 121.619 86.2166 121.018C85.471 120.364 85.0067 119.432 85.0117 118.402ZM85.4561 118.403C85.4486 119.305 85.8532 120.117 86.5129 120.695C87.1166 121.226 87.9356 121.555 88.8405 121.561H89.0496C90.1002 121.566 91.04 121.13 91.6686 120.448C92.1702 119.902 92.4727 119.2 92.4776 118.435L92.5113 89.6346C92.4129 89.6492 92.2872 89.665 92.1416 89.6759C91.4458 89.7331 90.262 89.7757 88.9999 89.772C87.9418 89.7659 86.9423 89.7501 86.2291 89.6844C85.9179 89.6565 85.6652 89.6236 85.4909 89.5981L85.4561 118.403Z" fill="#BDDFEF"/>
<path id="Vector_66" d="M86.0486 95.8817V117.956C86.0399 119.593 87.3082 120.754 88.8828 120.763H89.0471C90.6217 120.768 91.9063 119.62 91.9187 117.981V95.8804L86.0486 95.8817Z" fill="#F27B57"/>
<path id="Vector_67" d="M85.115 85.6888C84.8835 85.7971 84.7217 86.0245 84.7204 86.2921L84.708 88.2468C84.7067 88.5788 84.9196 88.8403 85.2818 88.9121C85.8345 89.0641 87.2908 89.1748 88.9986 89.1833C90.6815 89.1894 92.1191 89.0909 92.693 88.951C93.0676 88.8914 93.3203 88.6348 93.3216 88.2832L93.334 86.3286C93.3377 86.0148 93.1187 85.7533 92.8224 85.6766C92.8224 85.6766 85.2258 85.5416 85.115 85.6888Z" fill="white"/>
</g>
</g>
<g id="Group_68">
<path id="Vector_68" d="M97.0956 89.5166C97.0956 89.5166 96.9686 118.01 97.0956 118.998C97.2226 119.987 98.3279 121.871 100.572 121.779C102.152 121.713 104.049 121.347 104.428 118.813C104.807 116.28 104.555 89.5312 104.555 89.5312L97.0956 89.5166Z" fill="white"/>
<g id="Group_69">
<path id="Vector_69" d="M97.713 90.7925C97.7105 91.0869 97.947 91.3277 98.2433 91.3277L103.378 91.3533C103.67 91.3545 103.911 91.1161 103.913 90.8217L103.927 88.4341C103.928 88.1397 103.693 87.8989 103.399 87.8977L98.2644 87.8745C97.9707 87.8733 97.7304 88.1117 97.7279 88.4061L97.713 90.7925Z" fill="#BDDFEF"/>
<path id="Vector_70" d="M96.8056 118.402L96.8404 89.3414C96.8404 89.2758 96.8703 89.2137 96.9213 89.1736C96.9711 89.1322 97.0371 89.1152 97.1031 89.1286C97.1031 89.1261 97.4752 89.1967 98.0627 89.2502C98.7461 89.3122 99.7407 89.3305 100.795 89.3354C102.045 89.3414 103.225 89.2977 103.899 89.2429C104.268 89.2137 104.473 89.1639 104.473 89.1639C104.54 89.1468 104.61 89.1614 104.662 89.2028C104.718 89.2441 104.751 89.3062 104.749 89.3743L104.715 118.437C104.71 119.316 104.362 120.12 103.794 120.739C103.082 121.512 102.024 122.002 100.843 121.996L100.636 121.995C99.6199 121.989 98.6963 121.619 98.0105 121.018C97.2636 120.364 96.7993 119.432 96.8056 118.402ZM97.2487 118.403C97.2437 119.305 97.647 120.117 98.3042 120.695C98.9104 121.226 99.7295 121.555 100.634 121.561H100.841C101.894 121.566 102.831 121.13 103.46 120.448C103.962 119.902 104.264 119.2 104.269 118.435L104.303 89.6346C104.204 89.6492 104.08 89.665 103.934 89.6759C103.238 89.7331 102.053 89.7757 100.792 89.772C99.7344 89.7659 98.7337 89.7501 98.0204 89.6844C97.7105 89.6565 97.4578 89.6236 97.2835 89.5981L97.2487 118.403Z" fill="#BDDFEF"/>
<path id="Vector_71" d="M97.8425 93.4794V117.957C97.8325 119.594 99.1009 120.756 100.675 120.764H100.84C102.413 120.769 103.698 119.621 103.709 117.982V93.477L97.8425 93.4794Z" fill="#BC0202"/>
<path id="Vector_72" d="M96.9076 85.6888C96.6774 85.7971 96.5143 86.0245 96.5131 86.2921L96.5006 88.2468C96.4994 88.5788 96.711 88.8403 97.0732 88.9121C97.6271 89.0641 99.0822 89.1748 100.791 89.1833C102.474 89.1894 103.911 89.0909 104.484 88.951C104.86 88.8914 105.114 88.6348 105.115 88.2832L105.128 86.3286C105.13 86.0148 104.913 85.7533 104.616 85.6766C104.616 85.6766 97.0197 85.5416 96.9076 85.6888Z" fill="white"/>
</g>
</g>
<g id="Group_70">
<path id="Vector_73" d="M73.4095 89.5166C73.4095 89.5166 73.2838 118.01 73.4095 118.998C73.5352 119.987 74.8322 121.871 76.9495 121.779C78.5304 121.709 80.3639 121.347 80.7435 118.813C81.1231 116.28 80.8692 89.5312 80.8692 89.5312L73.4095 89.5166Z" fill="white"/>
<g id="Group_71">
<path id="Vector_74" d="M74.068 90.7925C74.0655 91.0869 74.3032 91.3277 74.597 91.3277L79.7315 91.3533C80.0253 91.3545 80.2643 91.1161 80.2668 90.8217L80.2805 88.4341C80.2829 88.1397 80.0477 87.8989 79.7539 87.8977L74.6181 87.8745C74.3244 87.8733 74.0842 88.1117 74.0829 88.4061L74.068 90.7925Z" fill="#BDDFEF"/>
<path id="Vector_75" d="M73.1618 118.402L73.1967 89.3414C73.1979 89.2758 73.2266 89.2137 73.2764 89.1736C73.3286 89.1322 73.3958 89.1152 73.4593 89.1286C73.4606 89.1261 73.8315 89.1967 74.419 89.2502C75.1011 89.3122 76.0982 89.3305 77.1512 89.3354C78.4009 89.3414 79.5809 89.2977 80.2543 89.2429C80.6253 89.2137 80.8269 89.1639 80.8269 89.1639C80.8954 89.1468 80.9638 89.1614 81.0186 89.2028C81.0746 89.2441 81.1045 89.3062 81.1045 89.3743L81.0696 118.437C81.0647 119.316 80.7161 120.12 80.1473 120.739C79.4353 121.512 78.376 122.002 77.196 121.996L76.9894 121.995C75.9725 121.989 75.0501 121.619 74.3643 121.018C73.6199 120.364 73.1544 119.432 73.1618 118.402ZM73.605 118.403C73.5987 119.305 74.0033 120.117 74.6617 120.695C75.2654 121.226 76.0857 121.555 76.9906 121.561H77.1985C78.2503 121.566 79.1901 121.13 79.8174 120.448C80.3191 119.902 80.6215 119.2 80.6265 118.435L80.6601 89.6346C80.5618 89.6492 80.4373 89.665 80.2904 89.6759C79.5946 89.7331 78.4096 89.7757 77.1487 89.772C76.0895 89.7659 75.0912 89.7501 74.3767 89.6844C74.0668 89.6565 73.8141 89.6236 73.6398 89.5981L73.605 118.403Z" fill="#BDDFEF"/>
<path id="Vector_76" d="M74.1987 104.814V117.957C74.19 119.594 75.4584 120.756 77.0329 120.764H77.1973C78.7718 120.769 80.0564 119.621 80.0689 117.982V104.813L74.1987 104.814Z" fill="#BC0202"/>
<path id="Vector_77" d="M73.2652 85.6888C73.0324 85.7971 72.8718 86.0245 72.8706 86.2921L72.8581 88.2468C72.8569 88.5788 73.0697 88.8403 73.4307 88.9121C73.9846 89.0641 75.4372 89.1748 77.1475 89.1833C78.8304 89.1894 80.268 89.0909 80.8406 88.951C81.2153 88.8914 81.4692 88.6348 81.4692 88.2832L81.4829 86.3286C81.4854 86.0148 81.2688 85.7533 80.9713 85.6766C80.9713 85.6766 73.3759 85.5416 73.2652 85.6888Z" fill="white"/>
</g>
</g>
<path id="Vector_78" d="M66.1564 121.659V99.8895C66.1564 96.4692 68.9932 93.6959 72.4959 93.6947L73.2763 93.6959V94.5692H72.4959C69.4886 94.5753 67.0551 96.9533 67.0514 99.8895V121.658L66.1564 121.659Z" fill="white"/>
<path id="Vector_79" d="M110.794 121.659V99.8895C110.789 96.9533 108.356 94.5753 105.351 94.5692H104.569V93.6947H105.351C108.851 93.6959 111.688 96.4692 111.688 99.8895V121.658H111.689L110.794 121.659Z" fill="white"/>
<g id="Group_72">
<path id="Vector_80" d="M80.8008 94.5705V93.6959H85.1076V94.5705H80.8008Z" fill="white"/>
<path id="Vector_81" d="M92.7092 94.5705V93.6959H97.0123V94.5705H92.7092Z" fill="white"/>
</g>
</g>
</g>
<defs>
<linearGradient id="paint0_linear_222_1122" x1="47.8747" y1="82.1241" x2="91.1592" y2="35.7948" gradientUnits="userSpaceOnUse">
<stop offset="0.2473" stop-color="white"/>
<stop offset="1"/>
</linearGradient>
<linearGradient id="paint1_linear_222_1122" x1="12.5863" y1="122.21" x2="84.3066" y2="45.4445" gradientUnits="userSpaceOnUse">
<stop offset="0.1044" stop-color="white"/>
<stop offset="0.1908" stop-color="#EFEFEF"/>
<stop offset="0.3592" stop-color="#C6C6C6"/>
<stop offset="0.5931" stop-color="#838383"/>
<stop offset="0.8805" stop-color="#282828"/>
<stop offset="1"/>
</linearGradient>
</defs>
</svg>
