<svg width="120" height="138" viewBox="0 0 120 138" fill="none" xmlns="http://www.w3.org/2000/svg">
<g id="Group">
<path id="Vector" opacity="0.78" d="M120 101.728C120 102.87 119.196 104.271 118.213 104.844L61.7918 137.571C60.8072 138.143 59.1953 138.143 58.2107 137.571L1.79119 104.844C0.804102 104.271 0 102.87 0 101.728V36.2723C0 35.1305 0.804102 33.726 1.79119 33.1557L58.2107 0.428645C59.1953 -0.142882 60.8072 -0.142882 61.7918 0.428645L118.213 33.1557C119.196 33.7273 120 35.1305 120 36.2723V101.728Z" fill="white"/>
<path id="Vector_2" d="M118.532 100.927C118.532 102.043 117.747 103.41 116.789 103.969L61.7482 135.893C60.7873 136.448 59.2139 136.448 58.2555 135.893L3.21643 103.969C2.25424 103.411 1.46756 102.043 1.46756 100.927V37.0751C1.46756 35.9608 2.25424 34.5914 3.21643 34.0349L58.2555 2.10944C59.2139 1.55167 60.7861 1.55167 61.7482 2.10944L116.789 34.0349C117.748 34.5914 118.532 35.9608 118.532 37.0751V100.927Z" fill="#8CD4FA"/>
<g id="Group_2">
<path id="Vector_3" opacity="0.5" d="M101.208 59.456L30.6743 104.39L1.23231 42.6041L67.2587 3.72272L101.208 59.456Z" fill="url(#paint0_linear_222_1557)"/>
<path id="Vector_4" d="M51.7181 31.7513C51.7181 14.7268 65.4551 0.925117 82.3986 0.925117C99.3434 0.925117 113.079 14.7268 113.079 31.7513C113.079 48.7746 99.3434 62.5775 82.3986 62.5775C65.4551 62.5788 51.7181 48.7746 51.7181 31.7513Z" fill="#001244"/>
<path id="Vector_5" d="M114.58 33.3108C114.58 15.1108 99.8973 0.361095 81.7825 0.359844C63.6701 0.361095 48.9883 15.1108 48.9858 33.3108C48.9883 51.5096 63.6701 66.2605 81.7825 66.2605H81.79C81.7924 66.2605 81.7962 66.2605 81.7974 66.2605C99.906 66.2518 114.579 51.5034 114.58 33.3108ZM104.697 49.9376C102.505 48.8396 100.023 47.9066 97.3244 47.16C98.2219 43.3432 98.7434 39.1349 98.8468 34.699H111.778C111.508 40.6869 109.502 46.2083 106.253 50.788C105.749 50.4941 105.235 50.2103 104.697 49.9376ZM106.193 15.7461C109.476 20.3433 111.507 25.896 111.777 31.9201H98.838C98.7422 27.443 98.1995 23.2072 97.2796 19.3641C99.9795 18.6187 102.46 17.6845 104.652 16.5865C105.186 16.3176 105.694 16.035 106.193 15.7461ZM96.0822 31.9201H83.1679V21.3188C87.2121 21.2337 91.0683 20.7897 94.6059 20.0169C95.4722 23.6324 95.995 27.6643 96.0822 31.9201ZM83.1679 18.5562V3.29002C84.4711 3.5639 85.7458 4.22672 87.0042 5.29223C89.7775 7.60836 92.216 11.8829 93.874 17.3343C90.5729 18.0497 86.9619 18.4811 83.1679 18.5562ZM76.5633 5.29223C77.8217 4.22672 79.0976 3.56389 80.4008 3.28876V18.5361C76.613 18.4486 72.9995 18.0297 69.7047 17.3168C70.337 15.2358 71.0714 13.3074 71.9166 11.6153C73.2734 8.88523 74.8741 6.72543 76.5633 5.29223ZM80.4008 21.33V31.9201H67.4965C67.5899 27.6556 68.1152 23.6286 68.9803 20.0069C72.5141 20.7772 76.3628 21.2337 80.4008 21.33ZM64.7207 31.9201H51.7903C52.0629 25.8835 54.1018 20.317 57.3979 15.7148C59.9334 17.1905 62.9258 18.4173 66.2692 19.3428C65.3543 23.1897 64.8253 27.4417 64.7207 31.9201ZM64.7282 34.699C64.824 39.1512 65.363 43.3657 66.2717 47.1925C62.9121 48.1255 59.9048 49.3674 57.3643 50.8568C54.0881 46.2646 52.0629 40.7169 51.7915 34.699H64.7282ZM67.4853 34.699H80.4008V45.1941C76.3454 45.2954 72.4892 45.7569 68.9454 46.5335C68.0878 42.938 67.5699 38.9298 67.4853 34.699ZM80.4008 47.9867V63.3304C79.0976 63.054 77.8217 62.3924 76.5633 61.3294C73.7812 59.0058 71.3316 54.7049 69.6773 49.221C72.9771 48.5032 76.5981 48.078 80.4008 47.9867ZM87.0042 61.3294C85.7458 62.3924 84.4711 63.0552 83.1679 63.3304V47.9654C86.9731 48.0379 90.5928 48.4682 93.8976 49.1823C93.2578 51.3108 92.5122 53.2805 91.6521 55.0038C90.2953 57.7351 88.6946 59.8962 87.0042 61.3294ZM83.1679 45.2028V34.699H96.071C95.9788 38.9198 95.466 42.9067 94.6158 46.4972C91.0745 45.7256 87.2146 45.2854 83.1679 45.2028ZM104.458 13.5437C102.227 14.7768 99.5537 15.8424 96.5576 16.6728C95.8743 14.3942 95.0689 12.2669 94.1266 10.371C92.9304 7.96979 91.5388 5.91254 89.963 4.28175C94.9644 5.70118 99.4368 8.38373 103.017 11.9755C103.517 12.4795 103.995 13.006 104.458 13.5437ZM73.6095 4.28175C70.8013 7.20066 68.5433 11.489 66.9986 16.649C64.4917 15.9524 62.2076 15.092 60.2297 14.0965C59.8475 13.9052 59.5052 13.7013 59.1467 13.5C59.5986 12.9785 60.0641 12.4657 60.552 11.9767C64.1282 8.38373 68.6043 5.70244 73.6095 4.28175ZM59.1057 53.0704C59.4903 52.8515 59.8612 52.6302 60.2732 52.4251C62.2387 51.4359 64.5066 50.5804 66.9924 49.8876C67.6782 52.19 68.4923 54.336 69.4408 56.2469C70.637 58.6468 72.0299 60.7041 73.6032 62.3361C68.6018 60.9179 64.1295 58.2354 60.5533 54.6424C60.0479 54.1384 59.57 53.6106 59.1057 53.0704ZM89.9617 62.3374C92.7886 59.396 95.0615 55.0664 96.605 49.8501C99.611 50.6842 102.293 51.756 104.529 52.9966C104.042 53.5606 103.542 54.1159 103.018 54.6437C99.438 58.2379 94.9644 60.9192 89.9617 62.3374Z" fill="#BDDFEF"/>
</g>
<g id="Group_3">
<g id="Clip path group">
<mask id="mask0_222_1557" style="mask-type:luminance" maskUnits="userSpaceOnUse" x="1" y="1" width="118" height="136">
<g id="SVGID_00000132089512848616446560000017025697928995437192_">
<path id="Vector_6" d="M118.532 100.74C118.532 101.854 117.747 103.221 116.789 103.78L61.7482 135.707C60.7873 136.262 59.2139 136.262 58.2555 135.707L3.21643 103.78C2.25424 103.222 1.46756 101.854 1.46756 100.74V36.8863C1.46756 35.7708 2.25424 34.4038 3.21643 33.8448L58.2555 1.9206C59.2139 1.36283 60.7861 1.36283 61.7482 1.9206L116.789 33.8448C117.748 34.4038 118.532 35.7708 118.532 36.8863V100.74Z" fill="white"/>
</g>
</mask>
<g mask="url(#mask0_222_1557)">
<path id="Vector_7" opacity="0.5" d="M41.0356 38.342L48.0311 33.9486L82.141 96.9241L21.264 136.403L-0.537724 104.109L-14.235 70.6889L39.8693 37.4641L41.0356 38.342Z" fill="url(#paint1_linear_222_1557)"/>
</g>
</g>
<g id="Clip path group_2">
<mask id="mask1_222_1557" style="mask-type:luminance" maskUnits="userSpaceOnUse" x="1" y="1" width="118" height="136">
<g id="SVGID_00000132089512848616446560000017025697928995437192__2">
<path id="Vector_8" d="M118.532 100.74C118.532 101.854 117.747 103.221 116.789 103.78L61.7482 135.707C60.7873 136.262 59.2139 136.262 58.2555 135.707L3.21643 103.78C2.25424 103.222 1.46756 101.854 1.46756 100.74V36.8863C1.46756 35.7708 2.25424 34.4038 3.21643 33.8448L58.2555 1.9206C59.2139 1.36283 60.7861 1.36283 61.7482 1.9206L116.789 33.8448C117.748 34.4038 118.532 35.7708 118.532 36.8863V100.74Z" fill="white"/>
</g>
</mask>
<g mask="url(#mask1_222_1557)">
<path id="Vector_9" opacity="0.5" d="M24.2465 89.3167L27.7865 91.5641L35.9857 120.583L10.1771 136.032L-6.59468 94.4667L9.77129 81.7018L24.2465 89.3167Z" fill="url(#paint2_linear_222_1557)"/>
</g>
</g>
</g>
<g id="Group_4">
<path id="Vector_10" d="M95.8531 57.919L81.4999 37.3253L73.2385 43.1381V33.0857H48.2166V43.1381L39.9552 37.3253L25.6007 57.919L38.9158 67.286L25.6007 76.6518L39.954 97.2443L48.2166 91.4327V101.649H73.2385V91.4327L81.4999 97.2443L95.8531 76.6518L82.5393 67.286L95.8531 57.919Z" fill="white"/>
<path id="Vector_11" d="M56.6136 66.2105C56.8066 66.2105 56.9597 66.0542 56.9597 65.8616C56.9597 65.669 56.8066 65.5127 56.6136 65.5127C56.4232 65.5127 56.2676 65.6678 56.2676 65.8616C56.2676 66.0554 56.422 66.2105 56.6136 66.2105ZM65.5871 65.5552C65.3954 65.5552 65.2398 65.7115 65.2398 65.9041C65.2398 66.0967 65.3954 66.253 65.5871 66.253C65.78 66.253 65.9343 66.0955 65.9343 65.9041C65.9343 65.7115 65.78 65.5552 65.5871 65.5552ZM61.1371 53.842C62.5635 53.842 63.7199 55.0038 63.7199 56.4383C63.7199 57.5088 63.0727 58.4292 62.1503 58.8269C62.1379 59.5373 62.0656 64.596 61.9686 70.6377L60.2931 69.856C60.2023 64.1583 60.1326 59.501 60.1201 58.8232C59.1965 58.428 58.5505 57.51 58.5505 56.4395C58.5517 55.0038 59.7106 53.842 61.1371 53.842ZM46.988 61.4895C46.988 61.4895 45.9648 61.4007 45.4794 60.4615C44.9952 59.521 45.1794 59.3147 45.1794 59.3147C45.1794 59.3147 51.1467 59.3259 54.0993 59.3334C53.9399 59.1183 53.7769 58.8907 53.6225 58.6456L43.7118 58.7156C43.7118 58.7156 42.6924 58.6306 42.2057 57.6889C41.7215 56.7472 41.9045 56.5446 41.9045 56.5446C41.9045 56.5446 49.7066 56.5596 52.5894 56.5671C52.5247 56.3795 52.4637 56.1869 52.4089 55.9918H38.3719C38.3719 55.9918 37.3512 55.9068 36.8645 54.9663C36.3803 54.0246 36.5633 53.8208 36.5633 53.8208C36.5633 53.8208 49.251 53.8208 52.0616 53.8208C52.0554 53.6094 52.0504 53.3981 52.0566 53.1805H35.6147C35.6147 53.1805 34.5928 53.0929 34.1111 52.1537C33.6244 51.212 33.8074 51.0057 33.8074 51.0057C33.8074 51.0057 51.7006 51.0057 52.0878 51.0057C52.4774 51.0057 53.6387 50.9431 54.0258 52.1112C54.4154 53.2792 54.1167 54.915 55.2556 57.1074C56.4506 59.4122 58.2256 60.5465 58.7409 60.8717C59.2612 61.1968 59.7106 62.0085 58.9364 62.5275C58.08 63.1015 56.6435 62.096 56.1108 61.5095L46.988 61.4895ZM57.2199 90.6611C57.0394 90.4785 56.9709 88.8077 57.5945 88.1824L60.196 89.3842C59.0596 89.8957 57.9916 90.361 57.2199 90.6611ZM61.5715 93.3849C61.5092 93.8802 61.3898 94.4905 61.1545 94.5492C61.1545 94.5492 61.142 94.5542 61.1371 94.5542C61.1296 94.5542 61.1172 94.5492 61.1172 94.5492C60.8831 94.4905 60.7649 93.8802 60.7014 93.3849C60.689 93.2811 60.6578 91.8342 60.6168 89.5781L61.6474 90.0596C61.6113 92.0368 61.5852 93.2886 61.5715 93.3849ZM65.2385 90.8337C62.5922 89.7982 56.4232 86.8555 56.1307 86.6154C55.6054 86.1827 55.2917 85.1872 56.2402 84.3643C56.4531 84.1817 57.1663 83.8028 58.0725 83.3563L60.0753 84.303L60.0678 84.6644C59.3409 84.9834 58.8144 85.316 58.782 85.3798C58.6501 85.6412 64.1033 87.8385 64.7207 88.2374C65.4987 88.7377 65.4339 90.6398 65.2385 90.8337ZM60.5284 84.5131L61.7346 85.0784C61.7296 85.4286 61.7258 85.7737 61.7159 86.1102L60.5471 85.5611C60.5408 85.2197 60.5334 84.8721 60.5284 84.5131ZM66.3289 86.4428C66.2331 86.5204 65.5061 86.8893 64.478 87.3883L62.1951 86.3365L62.2001 86.0801C63.0677 85.6787 63.7249 85.2985 63.6801 85.211C63.5506 84.9521 56.7381 82.2833 55.6067 81.6405C54.3457 80.9289 54.764 79.652 55.4959 79.2181C55.6017 79.1555 56.3921 78.8191 57.4713 78.3627L59.9857 79.5057V79.8384C59.311 80.171 58.8181 80.4249 58.8343 80.4737C58.9003 80.665 65.4962 83.5627 66.2206 84.193C67.1691 85.0134 66.8579 86.0126 66.3289 86.4428ZM60.45 79.7458L61.8142 80.3836C61.8092 80.6625 61.8043 80.9389 61.8018 81.2153L60.4649 80.5937C60.4587 80.3111 60.4562 80.0297 60.45 79.7458ZM66.7247 81.7593C66.4248 81.9319 65.7153 82.247 64.8389 82.6222L62.266 81.4391L62.271 81.2278C62.9781 80.8901 63.4797 80.6425 63.4959 80.5925C63.5618 80.3961 56.4319 77.2371 54.9233 76.543C53.7159 75.9853 53.4831 74.4883 54.9034 73.7754C54.9034 73.7754 55.995 73.2877 57.5373 72.5936L59.8475 73.6541V74.3207C58.6563 74.8359 57.7738 75.2299 57.6792 75.2674C57.3593 75.3975 66.4584 79.113 66.833 79.3344C67.5662 79.7671 67.9857 81.0452 66.7247 81.7593ZM60.3554 73.903L61.9076 74.6246C61.8964 75.2149 61.8889 75.8052 61.8777 76.3967L60.3853 75.7014C60.374 75.0973 60.3628 74.4983 60.3554 73.903ZM67.4056 76.4267C66.9189 76.6518 65.8447 77.1308 64.6174 77.6873L62.3569 76.6393V76.2741C63.7398 75.6651 64.7618 75.1949 64.6498 75.1524C64.3286 75.0223 55.1859 71.0729 53.6038 70.3488C52.1612 69.6872 51.6446 68.7467 51.6446 67.221C51.6446 65.5114 52.6952 64.6735 53.4545 64.4609C54.0781 64.2896 55.8481 64.022 57.0493 64.6585C58.2343 65.2851 58.1696 67.5311 58.1696 67.5311H54.7229C54.7229 67.5311 54.4665 67.6212 54.6806 67.8363C54.8959 68.0527 67.428 73.6554 67.428 73.6554C68.8495 74.372 68.6143 75.8689 67.4056 76.4267ZM68.5993 70.3925C68.0529 70.6414 66.5965 71.2792 64.9161 72.0108L62.4465 70.869L62.4515 70.2537C65.0966 69.0531 67.4305 67.9751 67.5239 67.8838C67.738 67.6637 67.4815 67.5724 67.4815 67.5724H64.0361C64.0361 67.5724 63.9701 65.3288 65.1539 64.701C66.3551 64.0645 68.1238 64.3334 68.7499 64.5059C69.508 64.716 70.5586 65.5539 70.5586 67.2648C70.5586 68.788 70.0433 69.731 68.5993 70.3925ZM80.4232 56.5446C80.4232 56.5446 80.6074 56.7484 80.1207 57.6889C79.6365 58.6293 78.6133 58.7156 78.6133 58.7156L68.7064 58.6456C68.5483 58.8907 68.3877 59.1183 68.2259 59.3334C71.1822 59.3259 77.1495 59.3147 77.1495 59.3147C77.1495 59.3147 77.3337 59.5198 76.8495 60.4615C76.3641 61.4007 75.3421 61.4895 75.3421 61.4895L66.2169 61.5082C65.6841 62.0948 64.2477 63.1003 63.3938 62.5262C62.6183 62.0072 63.0664 61.1956 63.5842 60.8704C64.0983 60.5453 65.8783 59.411 67.072 57.1061C68.2097 54.9138 67.9135 53.278 68.3006 52.1099C68.6902 50.9406 69.8503 51.0044 70.2362 51.0044C70.627 51.0044 88.5191 51.0044 88.5191 51.0044C88.5191 51.0044 88.7033 51.2107 88.2191 52.1524C87.7311 53.0917 86.7104 53.1792 86.7104 53.1792H70.271C70.2785 53.3968 70.271 53.6082 70.2623 53.8195C73.0767 53.8195 85.7632 53.8195 85.7632 53.8195C85.7632 53.8195 85.9449 54.0221 85.4644 54.9651C84.9777 55.9055 83.9546 55.9906 83.9546 55.9906H69.9175C69.8603 56.1869 69.8018 56.3783 69.7358 56.5658C72.6199 56.5596 80.4232 56.5446 80.4232 56.5446Z" fill="#BDDFEF"/>
</g>
<g id="Group_5">
<g id="Group_6">
<path id="Vector_12" d="M14.0881 97.2243C16.407 93.8351 18.5169 93.5388 20.5943 93.5388C22.2399 93.5388 23.2096 94.5643 23.8456 94.3742C28.3454 92.7046 31.0951 94.8144 31.6701 94.5117C33.012 93.8039 36.0989 93.051 37.9673 93.3999C39.293 93.6463 45.4458 94.8531 45.0997 104.699C44.8122 112.939 37.8416 119.847 34.4522 122.031C32.5664 123.248 30.0084 123.663 27.6882 123.63C27.6882 123.63 27.682 123.63 27.6782 123.63C27.6347 123.63 27.5898 123.63 27.5475 123.63V123.622C25.8111 123.572 24.2352 123.271 23.2133 122.865C20.7811 121.903 17.4203 119.59 14.8362 113.487C12.2757 107.447 11.5724 100.896 14.0881 97.2243Z" fill="#F27B57"/>
<g id="Group_7">
<path id="Vector_13" d="M27.677 123.631C27.6334 123.631 27.5886 123.631 27.5463 123.631V123.623C25.8099 123.573 24.234 123.272 23.2121 122.867C20.7798 121.904 17.419 119.591 14.8349 113.488C12.2757 107.448 11.5724 100.897 14.0881 97.2243C16.407 93.8351 18.5169 93.5388 20.5944 93.5388C22.2399 93.5388 23.2096 94.5643 23.8456 94.3742C25.8211 93.6401 27.4579 93.6376 28.7226 93.8352V123.615C28.374 123.63 28.028 123.637 27.6869 123.632C27.6844 123.631 27.6807 123.631 27.677 123.631Z" fill="#F26D3E"/>
</g>
</g>
<g id="Group_8">
<g id="Group_9">
<g id="Group_10">
<path id="Vector_14" d="M13.401 82.0757C14.9855 82.3546 17.1228 82.4909 18.9077 82.9524C22.937 83.4926 23.9415 86.9931 24.0597 87.452C24.2689 88.3137 24.4755 89.2829 24.6747 89.7019L12.4612 84.1992L9.54971 81.6718C9.54971 81.6718 12.7213 82.0007 13.401 82.0757Z" fill="#001244"/>
</g>
</g>
<path id="Vector_15" d="M24.3187 89.3167C18.9886 86.8893 14.3271 84.6119 9.58456 81.6718C9.84347 81.9219 15.0602 90.2271 18.426 90.7486C20.5209 91.03 22.2013 90.4047 22.9096 90.1171C23.5469 89.8557 24.1817 89.433 24.3187 89.3167Z" fill="#001244"/>
<path id="Vector_16" d="M23.6303 89.3605C23.7747 89.3817 27.148 91.03 27.6645 92.9635C27.738 92.6471 27.4094 90.6711 27.4094 90.6711C27.4094 90.6711 24.6261 88.9115 24.1456 88.8565C24.0573 88.9603 23.6303 89.3605 23.6303 89.3605Z" fill="#001244"/>
<g id="Group_11">
<path id="Vector_17" d="M28.9989 96.5115C29.162 95.6448 28.44 89.9245 27.6421 86.1977C27.5388 85.72 27.1791 84.4319 26.9102 84.3293C26.6401 84.2293 24.6 84.4219 24.7581 84.6745C24.8464 84.817 25.7252 86.5891 25.9879 87.2382C26.2468 87.8873 27.5774 90.9613 27.4143 96.4827C28.1724 96.6228 28.9989 96.5115 28.9989 96.5115Z" fill="#001244"/>
</g>
</g>
</g>
</g>
<defs>
<linearGradient id="paint0_linear_222_1557" x1="18.1711" y1="72.103" x2="87.1981" y2="29.0976" gradientUnits="userSpaceOnUse">
<stop offset="0.2033" stop-color="white"/>
<stop offset="0.3034" stop-color="#E6E6E6"/>
<stop offset="0.5169" stop-color="#A5A5A5"/>
<stop offset="0.8241" stop-color="#3E3E3E"/>
<stop offset="1"/>
</linearGradient>
<linearGradient id="paint1_linear_222_1557" x1="5.95192" y1="117.337" x2="72.2438" y2="64.0962" gradientUnits="userSpaceOnUse">
<stop offset="0.1813" stop-color="white"/>
<stop offset="0.2558" stop-color="#F9F9F9"/>
<stop offset="0.359" stop-color="#E7E7E7"/>
<stop offset="0.4789" stop-color="#C9C9C9"/>
<stop offset="0.6115" stop-color="#A0A0A0"/>
<stop offset="0.7545" stop-color="#6C6C6C"/>
<stop offset="0.9038" stop-color="#2D2D2D"/>
<stop offset="1"/>
</linearGradient>
<linearGradient id="paint2_linear_222_1557" x1="3.20784" y1="114.186" x2="31.2399" y2="95.7719" gradientUnits="userSpaceOnUse">
<stop offset="0.1813" stop-color="white"/>
<stop offset="0.2692" stop-color="#FAFAFA"/>
<stop offset="0.3705" stop-color="#ECECEC"/>
<stop offset="0.4784" stop-color="#D5D5D5"/>
<stop offset="0.5911" stop-color="#B5B5B5"/>
<stop offset="0.7073" stop-color="#8B8B8B"/>
<stop offset="0.8267" stop-color="#585858"/>
<stop offset="0.9463" stop-color="#1D1D1D"/>
<stop offset="1"/>
</linearGradient>
</defs>
</svg>
