<svg width="40" height="41" viewBox="0 0 40 41" fill="none" xmlns="http://www.w3.org/2000/svg">
<path d="M31.9575 3.54126H8.04126C5.29126 3.54126 3.04126 5.79126 3.04126 8.54126V32.46C3.04126 35.21 5.29126 37.46 8.04126 37.46H31.96C34.71 37.46 36.96 35.21 36.96 32.46V8.54126C36.9575 5.79126 34.71 3.54126 31.9575 3.54126ZM31.6363 21.645H27.6113V36.2075H21.5888V21.645H18.5763V16.625H21.5888V13.6125C21.5888 9.51751 23.2888 7.08126 28.1263 7.08126H32.1475V12.1H29.6325C27.7525 12.1 27.6275 12.8038 27.6275 14.1125L27.6113 16.625H32.1675L31.6363 21.645Z" fill="#989898"/>
</svg>
