<svg xmlns="http://www.w3.org/2000/svg" width="20" height="20" viewBox="0 0 20 20" fill="none">
  <g clip-path="url(#clip0_232_3382)">
    <path fill-rule="evenodd" clip-rule="evenodd" d="M10.7566 1.31769C10.6899 1.17313 10.5832 1.05071 10.4491 0.964905C10.315 0.879098 10.1591 0.833496 9.99994 0.833496C9.84074 0.833496 9.68487 0.879098 9.55078 0.964905C9.41668 1.05071 9.30997 1.17313 9.24327 1.31769L6.8516 6.50102L1.1841 7.17352C1.02598 7.19219 0.876513 7.25577 0.753395 7.35674C0.630276 7.4577 0.53866 7.59182 0.489389 7.74323C0.440118 7.89464 0.435254 8.05699 0.475374 8.21108C0.515494 8.36517 0.598917 8.50453 0.715771 8.61269L4.90744 12.4877L3.79494 18.0877C3.76404 18.2438 3.77848 18.4055 3.83656 18.5536C3.89464 18.7018 3.99392 18.8302 4.12268 18.9237C4.25143 19.0173 4.40427 19.072 4.56312 19.0814C4.72198 19.0908 4.88021 19.0545 5.0191 18.9769L9.99994 16.1885L14.9808 18.9769C15.1198 19.0548 15.2782 19.0914 15.4373 19.082C15.5964 19.0727 15.7495 19.018 15.8784 18.9243C16.0073 18.8306 16.1067 18.702 16.1647 18.5535C16.2228 18.4051 16.237 18.2431 16.2058 18.0869L15.0933 12.4885L19.2841 8.61269C19.401 8.50453 19.4844 8.36517 19.5245 8.21108C19.5646 8.05699 19.5598 7.89464 19.5105 7.74323C19.4612 7.59182 19.3696 7.4577 19.2465 7.35674C19.1234 7.25577 18.9739 7.19219 18.8158 7.17352L13.1474 6.50019L10.7566 1.31769Z" fill="#F27B57"/>
  </g>
  <defs>
    <clipPath id="clip0_232_3382">
      <rect width="20" height="20" fill="white"/>
    </clipPath>
  </defs>
</svg>