<svg width="40" height="41" viewBox="0 0 40 41" fill="none" xmlns="http://www.w3.org/2000/svg">
<path d="M20 14.675C16.775 14.675 14.175 17.3 14.175 20.5C14.175 23.7 16.8 26.325 20 26.325C23.2 26.325 25.825 23.7 25.825 20.5C25.825 17.3 23.2 14.675 20 14.675ZM37.5 20.5C37.5 18.075 37.5 15.7 37.375 13.275C37.25 10.475 36.6 7.975 34.55 5.95C32.5 3.9 30.025 3.25 27.225 3.125C24.8 3 22.425 3 20 3C17.575 3 15.2 3 12.775 3.125C9.975 3.25 7.475 3.9 5.45 5.95C3.4 8 2.75 10.475 2.625 13.275C2.5 15.7 2.5 18.075 2.5 20.5C2.5 22.925 2.5 25.3 2.625 27.725C2.75 30.525 3.4 33.025 5.45 35.05C7.5 37.1 9.975 37.75 12.775 37.875C15.2 38 17.575 38 20 38C22.425 38 24.8 38 27.225 37.875C30.025 37.75 32.525 37.1 34.55 35.05C36.6 33 37.25 30.525 37.375 27.725C37.525 25.325 37.5 22.925 37.5 20.5ZM20 29.475C15.025 29.475 11.025 25.475 11.025 20.5C11.025 15.525 15.025 11.525 20 11.525C24.975 11.525 28.975 15.525 28.975 20.5C28.975 25.475 24.975 29.475 20 29.475ZM29.35 13.25C28.2 13.25 27.25 12.325 27.25 11.15C27.25 9.975 28.175 9.05 29.35 9.05C30.525 9.05 31.45 9.975 31.45 11.15C31.4563 11.4238 31.4063 11.6961 31.3031 11.9498C31.1999 12.2035 31.0457 12.4333 30.85 12.625C30.6583 12.8207 30.4285 12.9749 30.1748 13.0781C29.9211 13.1813 29.6488 13.2313 29.375 13.225L29.35 13.25Z" fill="#989898"/>
</svg>
