<svg width="81" height="80" viewBox="0 0 81 80" fill="none" xmlns="http://www.w3.org/2000/svg">
<path d="M80.5 39.9966C80.5 51.0468 76.0249 61.0452 68.78 68.2846C61.5467 75.5239 51.5435 80 40.4997 80C18.4119 80 0.5 62.0922 0.5 39.9973C0.5 28.9525 4.97508 18.9541 12.22 11.7148C19.4533 4.47542 29.4565 0 40.5003 0C51.5442 0 61.5474 4.47542 68.7807 11.7148C76.0249 18.9534 80.5 28.9512 80.5 39.9966Z" fill="url(#paint0_linear_289_2061)"/>
<path d="M63.8722 16.6108L34.6322 63.9523C34.0426 64.9073 32.6707 64.9529 32.0184 64.0402L17.1544 43.2329C16.6194 42.4838 17.4857 41.5357 18.2797 42.0012L32.3565 50.2568L62.5029 15.602C63.1913 14.812 64.4228 15.7192 63.8722 16.6108Z" fill="white"/>
<defs>
<linearGradient id="paint0_linear_289_2061" x1="0.499864" y1="39.9992" x2="80.4998" y2="39.9992" gradientUnits="userSpaceOnUse">
<stop stop-color="#4FC646"/>
<stop offset="1" stop-color="#3FB06B"/>
</linearGradient>
</defs>
</svg>
